{"glyphs":{"0":{"ha":897,"x_min":92,"x_max":806,"o":"m 376 -11 q 228 28 293 -11 q 128 138 164 67 q 92 300 92 208 l 92 672 q 128 835 92 764 q 228 944 164 906 q 376 983 293 983 l 524 983 q 671 944 607 983 q 770 835 735 906 q 806 672 806 764 l 806 300 q 770 138 806 208 q 671 28 735 67 q 524 -11 607 -11 l 376 -11 m 521 81 q 653 141 603 81 q 703 300 703 201 l 703 672 q 653 831 703 771 q 521 892 603 892 l 379 892 q 246 831 297 892 q 194 672 194 771 l 194 300 q 246 141 194 201 q 379 81 297 81 l 521 81 z "},"1":{"ha":496,"x_min":50,"x_max":376,"o":"m 274 861 l 50 749 l 50 846 l 288 972 l 376 972 l 376 0 l 274 0 l 274 861 z "},"2":{"ha":772,"x_min":67,"x_max":722,"o":"m 72 92 q 100 224 72 168 q 189 326 128 281 l 533 588 q 606 715 606 640 l 606 760 q 565 856 606 819 q 458 892 525 892 l 331 892 q 213 841 257 892 q 169 706 169 790 l 67 706 q 138 908 67 832 q 328 983 210 983 l 458 983 q 640 922 571 983 q 708 760 708 861 l 708 715 q 597 517 708 599 l 263 268 q 194 194 213 232 q 175 92 175 156 l 722 92 l 722 0 l 72 0 l 72 92 z "},"3":{"ha":819,"x_min":64,"x_max":750,"o":"m 614 500 q 714 419 678 471 q 750 299 750 368 l 750 243 q 674 59 750 129 q 472 -11 597 -11 l 338 -11 q 194 24 257 -11 q 98 124 132 60 q 64 271 64 188 l 164 271 q 212 133 164 185 q 338 81 260 81 l 472 81 q 599 125 551 81 q 647 243 647 169 l 647 299 q 601 415 647 376 q 468 453 554 453 l 321 453 l 321 542 l 468 542 q 587 581 544 542 q 629 693 629 619 l 629 749 q 587 853 629 814 q 475 892 544 892 l 340 892 q 219 840 265 892 q 174 701 174 788 l 71 701 q 105 849 71 785 q 200 948 139 913 q 340 983 261 983 l 475 983 q 662 919 592 983 q 732 749 732 856 l 732 693 q 701 578 732 628 q 614 500 669 528 z "},"4":{"ha":810,"x_min":36,"x_max":765,"o":"m 540 200 l 114 200 q 55 214 74 200 q 36 258 36 228 l 36 286 l 546 972 l 643 972 l 643 292 l 765 292 l 765 200 l 643 200 l 643 0 l 540 0 l 540 200 m 543 292 l 543 819 l 542 819 l 150 292 l 543 292 z "},"5":{"ha":831,"x_min":78,"x_max":756,"o":"m 340 -11 q 150 60 222 -11 q 78 249 78 132 l 178 249 q 222 126 178 172 q 340 81 267 81 l 474 81 q 603 128 554 81 q 653 256 653 176 l 653 342 q 602 460 653 415 q 469 504 551 504 l 113 504 l 113 972 l 719 972 l 719 881 l 215 881 l 215 596 l 469 596 q 677 526 599 596 q 756 342 756 457 l 756 256 q 720 116 756 176 q 621 22 685 56 q 474 -11 557 -11 l 340 -11 z "},"6":{"ha":842,"x_min":92,"x_max":783,"o":"m 388 -11 q 233 29 300 -11 q 128 143 165 69 q 92 313 92 217 l 92 660 q 171 897 92 810 q 383 983 250 983 l 503 983 q 686 912 617 983 q 756 724 756 840 l 656 724 q 614 846 656 800 q 503 892 572 892 l 383 892 q 246 831 297 892 q 194 660 194 769 l 194 488 q 294 582 231 547 q 424 617 357 617 l 514 617 q 710 540 636 617 q 783 339 783 464 l 783 286 q 747 131 783 199 q 643 26 710 64 q 489 -11 576 -11 l 388 -11 m 489 81 q 628 137 575 81 q 681 286 681 193 l 681 342 q 635 474 681 424 q 513 525 589 525 l 421 525 q 279 467 339 525 q 203 325 219 410 l 203 275 q 254 134 203 188 q 390 81 306 81 l 489 81 z "},"7":{"ha":683,"x_min":28,"x_max":656,"o":"m 218 28 q 231 169 218 100 q 265 288 243 238 l 536 881 l 28 881 l 28 972 l 656 972 l 656 908 l 374 288 q 335 162 349 231 q 321 28 321 93 l 321 0 l 218 0 l 218 28 z "},"8":{"ha":861,"x_min":64,"x_max":797,"o":"m 357 -11 q 144 58 225 -11 q 64 240 64 126 l 64 282 q 101 407 64 351 q 210 499 138 463 l 210 500 q 125 583 154 533 q 96 693 96 632 l 96 749 q 172 919 96 854 q 371 983 247 983 l 490 983 q 690 919 614 983 q 765 749 765 854 l 765 693 q 736 583 765 632 q 651 500 707 533 l 651 499 q 797 282 797 426 l 797 240 q 717 58 797 126 q 504 -11 636 -11 l 357 -11 m 490 542 q 615 583 567 542 q 663 693 663 625 l 663 749 q 615 852 663 813 q 490 892 568 892 l 371 892 q 246 852 293 892 q 199 749 199 813 l 199 693 q 247 583 199 625 q 371 542 294 542 l 490 542 m 504 81 q 642 124 590 81 q 694 240 694 168 l 694 282 q 638 406 694 358 q 490 453 582 453 l 371 453 q 223 406 279 453 q 167 282 167 358 l 167 240 q 219 124 167 168 q 357 81 271 81 l 504 81 z "},"9":{"ha":847,"x_min":67,"x_max":756,"o":"m 357 -11 q 165 58 236 -11 q 93 242 93 128 l 193 242 q 237 124 193 168 q 357 81 281 81 l 476 81 q 605 138 557 81 q 653 293 653 194 l 653 461 q 555 383 611 411 q 432 356 499 356 l 339 356 q 141 433 215 356 q 67 638 67 510 l 67 693 q 104 845 67 779 q 210 947 142 911 q 369 983 279 983 l 467 983 q 618 948 553 983 q 719 847 683 913 q 756 697 756 782 l 756 293 q 681 69 756 150 q 476 -11 606 -11 l 357 -11 m 435 447 q 574 494 514 447 q 653 613 635 540 l 653 708 q 601 841 653 790 q 467 892 550 892 l 369 892 q 224 837 279 892 q 169 693 169 782 l 169 638 q 215 499 169 551 q 338 447 261 447 l 435 447 z "},"\u0000":{"ha":0,"x_min":0,"x_max":0,"o":""},"\r":{"ha":361,"x_min":0,"x_max":0,"o":""}," ":{"ha":361,"x_min":0,"x_max":0,"o":""},"A":{"ha":899,"x_min":31,"x_max":868,"o":"m 663 269 l 236 269 l 136 0 l 31 0 l 404 972 l 451 972 q 518 917 497 972 l 732 356 l 733 356 l 733 353 l 868 0 l 763 0 l 663 269 m 268 356 l 631 356 l 450 839 l 449 839 l 268 356 z "},"Á":{"ha":899,"x_min":31,"x_max":868,"o":"m 663 269 l 236 269 l 136 0 l 31 0 l 404 972 l 451 972 q 518 917 497 972 l 732 356 l 733 356 l 733 353 l 868 0 l 763 0 l 663 269 m 268 356 l 631 356 l 450 839 l 449 839 l 268 356 m 522 1296 l 636 1296 l 499 1085 l 407 1085 l 522 1296 z "},"Ă":{"ha":899,"x_min":31,"x_max":868,"o":"m 663 269 l 236 269 l 136 0 l 31 0 l 404 972 l 451 972 q 518 917 497 972 l 732 356 l 733 356 l 733 353 l 868 0 l 763 0 l 663 269 m 268 356 l 631 356 l 450 839 l 449 839 l 268 356 m 442 1074 q 302 1124 356 1074 q 249 1256 249 1174 l 249 1267 l 329 1267 l 329 1256 q 360 1174 329 1204 q 442 1143 390 1143 l 458 1143 q 541 1174 510 1143 q 572 1256 572 1204 l 572 1267 l 651 1267 l 651 1256 q 598 1124 651 1174 q 458 1074 544 1074 l 442 1074 z "},"Ắ":{"ha":899,"x_min":31,"x_max":868,"o":"m 663 269 l 236 269 l 136 0 l 31 0 l 404 972 l 451 972 q 518 917 497 972 l 732 356 l 733 356 l 733 353 l 868 0 l 763 0 l 663 269 m 268 356 l 631 356 l 450 839 l 449 839 l 268 356 m 496 1497 l 593 1497 l 488 1336 l 407 1336 l 496 1497 m 442 1074 q 302 1124 356 1074 q 249 1256 249 1174 l 249 1267 l 329 1267 l 329 1256 q 360 1174 329 1204 q 442 1143 390 1143 l 458 1143 q 541 1174 510 1143 q 572 1256 572 1204 l 572 1267 l 651 1267 l 651 1256 q 598 1124 651 1174 q 458 1074 544 1074 l 442 1074 z "},"Ặ":{"ha":899,"x_min":31,"x_max":868,"o":"m 663 269 l 236 269 l 136 0 l 31 0 l 404 972 l 451 972 q 518 917 497 972 l 732 356 l 733 356 l 733 353 l 868 0 l 763 0 l 663 269 m 268 356 l 631 356 l 450 839 l 449 839 l 268 356 m 450 -249 q 396 -228 417 -249 q 375 -174 375 -207 q 396 -119 375 -140 q 450 -99 417 -99 q 504 -119 483 -99 q 525 -174 525 -140 q 504 -228 525 -207 q 450 -249 483 -249 m 442 1074 q 302 1124 356 1074 q 249 1256 249 1174 l 249 1267 l 329 1267 l 329 1256 q 360 1174 329 1204 q 442 1143 390 1143 l 458 1143 q 541 1174 510 1143 q 572 1256 572 1204 l 572 1267 l 651 1267 l 651 1256 q 598 1124 651 1174 q 458 1074 544 1074 l 442 1074 z "},"Ằ":{"ha":899,"x_min":31,"x_max":868,"o":"m 663 269 l 236 269 l 136 0 l 31 0 l 404 972 l 451 972 q 518 917 497 972 l 732 356 l 733 356 l 733 353 l 868 0 l 763 0 l 663 269 m 268 356 l 631 356 l 450 839 l 449 839 l 268 356 m 307 1497 l 404 1497 l 493 1336 l 413 1336 l 307 1497 m 442 1074 q 302 1124 356 1074 q 249 1256 249 1174 l 249 1267 l 329 1267 l 329 1256 q 360 1174 329 1204 q 442 1143 390 1143 l 458 1143 q 541 1174 510 1143 q 572 1256 572 1204 l 572 1267 l 651 1267 l 651 1256 q 598 1124 651 1174 q 458 1074 544 1074 l 442 1074 z "},"Ẳ":{"ha":899,"x_min":31,"x_max":868,"o":"m 663 269 l 236 269 l 136 0 l 31 0 l 404 972 l 451 972 q 518 917 497 972 l 732 356 l 733 356 l 733 353 l 868 0 l 763 0 l 663 269 m 268 356 l 631 356 l 450 839 l 449 839 l 268 356 m 413 1319 q 427 1359 413 1343 q 468 1392 442 1375 q 497 1415 488 1406 q 507 1436 507 1424 l 507 1449 q 496 1476 507 1467 q 465 1486 485 1486 l 443 1486 q 394 1439 394 1486 l 328 1439 q 443 1547 328 1547 l 465 1547 q 576 1449 576 1547 l 576 1436 q 560 1392 576 1410 q 518 1357 544 1374 q 493 1338 501 1346 q 485 1319 485 1329 l 485 1308 l 413 1308 l 413 1319 m 442 1074 q 302 1124 356 1074 q 249 1256 249 1174 l 249 1267 l 329 1267 l 329 1256 q 360 1174 329 1204 q 442 1143 390 1143 l 458 1143 q 541 1174 510 1143 q 572 1256 572 1204 l 572 1267 l 651 1267 l 651 1256 q 598 1124 651 1174 q 458 1074 544 1074 l 442 1074 z "},"Ẵ":{"ha":899,"x_min":31,"x_max":868,"o":"m 663 269 l 236 269 l 136 0 l 31 0 l 404 972 l 451 972 q 518 917 497 972 l 732 356 l 733 356 l 733 353 l 868 0 l 763 0 l 663 269 m 268 356 l 631 356 l 450 839 l 449 839 l 268 356 m 526 1325 q 479 1338 499 1325 q 436 1374 460 1350 q 407 1399 418 1390 q 383 1407 396 1407 l 371 1407 q 340 1390 353 1407 q 326 1344 328 1372 l 258 1344 q 291 1434 260 1400 q 371 1468 322 1468 l 383 1468 q 437 1454 415 1468 q 481 1417 458 1440 q 506 1393 497 1400 q 526 1386 515 1386 l 539 1386 q 567 1403 556 1386 q 581 1449 579 1421 l 649 1449 q 617 1359 647 1393 q 539 1325 586 1325 l 526 1325 m 442 1074 q 302 1124 356 1074 q 249 1256 249 1174 l 249 1267 l 329 1267 l 329 1256 q 360 1174 329 1204 q 442 1143 390 1143 l 458 1143 q 541 1174 510 1143 q 572 1256 572 1204 l 572 1267 l 651 1267 l 651 1256 q 598 1124 651 1174 q 458 1074 544 1074 l 442 1074 z "},"Ǎ":{"ha":899,"x_min":31,"x_max":868,"o":"m 663 269 l 236 269 l 136 0 l 31 0 l 404 972 l 451 972 q 518 917 497 972 l 732 356 l 733 356 l 733 353 l 868 0 l 763 0 l 663 269 m 268 356 l 631 356 l 450 839 l 449 839 l 268 356 m 239 1310 l 333 1310 l 450 1154 l 567 1310 l 661 1310 l 488 1085 l 411 1085 l 239 1310 z "},"Â":{"ha":899,"x_min":31,"x_max":868,"o":"m 663 269 l 236 269 l 136 0 l 31 0 l 404 972 l 451 972 q 518 917 497 972 l 732 356 l 733 356 l 733 353 l 868 0 l 763 0 l 663 269 m 268 356 l 631 356 l 450 839 l 449 839 l 268 356 m 411 1310 l 488 1310 l 661 1085 l 567 1085 l 450 1240 l 333 1085 l 239 1085 l 411 1310 z "},"Ấ":{"ha":899,"x_min":31,"x_max":868,"o":"m 663 269 l 236 269 l 136 0 l 31 0 l 404 972 l 451 972 q 518 917 497 972 l 732 356 l 733 356 l 733 353 l 868 0 l 763 0 l 663 269 m 268 356 l 631 356 l 450 839 l 449 839 l 268 356 m 689 1457 l 786 1457 l 681 1296 l 600 1296 l 689 1457 m 411 1310 l 488 1310 l 661 1085 l 567 1085 l 450 1240 l 333 1085 l 239 1085 l 411 1310 z "},"Ậ":{"ha":899,"x_min":31,"x_max":868,"o":"m 663 269 l 236 269 l 136 0 l 31 0 l 404 972 l 451 972 q 518 917 497 972 l 732 356 l 733 356 l 733 353 l 868 0 l 763 0 l 663 269 m 268 356 l 631 356 l 450 839 l 449 839 l 268 356 m 450 -249 q 396 -228 417 -249 q 375 -174 375 -207 q 396 -119 375 -140 q 450 -99 417 -99 q 504 -119 483 -99 q 525 -174 525 -140 q 504 -228 525 -207 q 450 -249 483 -249 m 411 1310 l 488 1310 l 661 1085 l 567 1085 l 450 1240 l 333 1085 l 239 1085 l 411 1310 z "},"Ầ":{"ha":899,"x_min":31,"x_max":868,"o":"m 663 269 l 236 269 l 136 0 l 31 0 l 404 972 l 451 972 q 518 917 497 972 l 732 356 l 733 356 l 733 353 l 868 0 l 763 0 l 663 269 m 268 356 l 631 356 l 450 839 l 449 839 l 268 356 m 531 1457 l 628 1457 l 717 1296 l 636 1296 l 531 1457 m 411 1310 l 488 1310 l 661 1085 l 567 1085 l 450 1240 l 333 1085 l 239 1085 l 411 1310 z "},"Ẩ":{"ha":899,"x_min":31,"x_max":868,"o":"m 663 269 l 236 269 l 136 0 l 31 0 l 404 972 l 451 972 q 518 917 497 972 l 732 356 l 733 356 l 733 353 l 868 0 l 763 0 l 663 269 m 268 356 l 631 356 l 450 839 l 449 839 l 268 356 m 604 1293 q 619 1333 604 1317 q 660 1365 633 1349 q 689 1388 679 1379 q 699 1410 699 1397 l 699 1422 q 688 1450 699 1440 q 657 1460 676 1460 l 635 1460 q 586 1413 586 1460 l 519 1413 q 635 1521 519 1521 l 657 1521 q 768 1422 768 1521 l 768 1410 q 752 1365 768 1383 q 710 1331 736 1347 q 685 1311 693 1319 q 676 1293 676 1303 l 676 1282 l 604 1282 l 604 1293 m 411 1310 l 488 1310 l 661 1085 l 567 1085 l 450 1240 l 333 1085 l 239 1085 l 411 1310 z "},"Ẫ":{"ha":899,"x_min":31,"x_max":868,"o":"m 663 269 l 236 269 l 136 0 l 31 0 l 404 972 l 451 972 q 518 917 497 972 l 732 356 l 733 356 l 733 353 l 868 0 l 763 0 l 663 269 m 268 356 l 631 356 l 450 839 l 449 839 l 268 356 m 526 1358 q 479 1371 499 1358 q 436 1407 460 1383 q 407 1433 418 1425 q 383 1440 396 1440 l 371 1440 q 340 1423 353 1440 q 326 1378 328 1406 l 258 1378 q 291 1467 260 1433 q 371 1501 322 1501 l 383 1501 q 437 1488 415 1501 q 481 1450 458 1474 q 506 1426 497 1433 q 526 1419 515 1419 l 539 1419 q 567 1437 556 1419 q 581 1482 579 1454 l 649 1482 q 617 1392 647 1426 q 539 1358 586 1358 l 526 1358 m 411 1310 l 488 1310 l 661 1085 l 567 1085 l 450 1240 l 333 1085 l 239 1085 l 411 1310 z "},"Ä":{"ha":899,"x_min":31,"x_max":868,"o":"m 663 269 l 236 269 l 136 0 l 31 0 l 404 972 l 451 972 q 518 917 497 972 l 732 356 l 733 356 l 733 353 l 868 0 l 763 0 l 663 269 m 268 356 l 631 356 l 450 839 l 449 839 l 268 356 m 311 1085 q 262 1103 281 1085 q 243 1153 243 1122 q 262 1202 243 1183 q 311 1221 281 1221 q 360 1202 342 1221 q 379 1153 379 1183 q 360 1103 379 1122 q 311 1085 342 1085 m 588 1085 q 538 1103 557 1085 q 519 1153 519 1122 q 538 1202 519 1183 q 588 1221 557 1221 q 637 1202 618 1221 q 656 1153 656 1183 q 637 1103 656 1122 q 588 1085 618 1085 z "},"Ạ":{"ha":899,"x_min":31,"x_max":868,"o":"m 663 269 l 236 269 l 136 0 l 31 0 l 404 972 l 451 972 q 518 917 497 972 l 732 356 l 733 356 l 733 353 l 868 0 l 763 0 l 663 269 m 268 356 l 631 356 l 450 839 l 449 839 l 268 356 m 450 -249 q 396 -228 417 -249 q 375 -174 375 -207 q 396 -119 375 -140 q 450 -99 417 -99 q 504 -119 483 -99 q 525 -174 525 -140 q 504 -228 525 -207 q 450 -249 483 -249 z "},"À":{"ha":899,"x_min":31,"x_max":868,"o":"m 663 269 l 236 269 l 136 0 l 31 0 l 404 972 l 451 972 q 518 917 497 972 l 732 356 l 733 356 l 733 353 l 868 0 l 763 0 l 663 269 m 268 356 l 631 356 l 450 839 l 449 839 l 268 356 m 268 1296 l 382 1296 l 497 1085 l 406 1085 l 268 1296 z "},"Ả":{"ha":899,"x_min":31,"x_max":868,"o":"m 663 269 l 236 269 l 136 0 l 31 0 l 404 972 l 451 972 q 518 917 497 972 l 732 356 l 733 356 l 733 353 l 868 0 l 763 0 l 663 269 m 268 356 l 631 356 l 450 839 l 449 839 l 268 356 m 401 1088 q 419 1136 401 1117 q 468 1176 436 1156 q 503 1204 492 1193 q 515 1231 515 1215 l 515 1246 q 465 1292 515 1292 l 438 1292 q 379 1233 379 1292 l 299 1233 q 438 1364 299 1364 l 465 1364 q 565 1334 531 1364 q 599 1246 599 1304 l 599 1231 q 581 1178 599 1199 q 529 1133 563 1157 q 498 1109 508 1119 q 488 1088 488 1099 l 488 1065 l 401 1065 l 401 1088 z "},"Ā":{"ha":899,"x_min":31,"x_max":868,"o":"m 663 269 l 236 269 l 136 0 l 31 0 l 404 972 l 451 972 q 518 917 497 972 l 732 356 l 733 356 l 733 353 l 868 0 l 763 0 l 663 269 m 268 356 l 631 356 l 450 839 l 449 839 l 268 356 m 274 1171 l 628 1171 l 628 1099 l 274 1099 l 274 1171 z "},"Ą":{"ha":899,"x_min":31,"x_max":933,"o":"m 663 269 l 236 269 l 136 0 l 31 0 l 404 972 l 451 972 q 518 917 497 972 l 732 356 l 733 356 l 733 353 l 868 0 l 763 0 l 663 269 m 268 356 l 631 356 l 450 839 l 449 839 l 268 356 m 835 -290 q 728 -254 768 -290 q 689 -157 689 -218 l 689 -143 q 712 -60 689 -100 q 774 0 735 -21 l 868 0 q 800 -59 825 -22 q 775 -137 775 -96 l 775 -151 q 792 -197 775 -179 q 842 -215 810 -215 l 856 -215 q 895 -208 874 -215 q 933 -187 917 -200 l 933 -265 q 895 -283 919 -276 q 849 -290 871 -290 l 835 -290 z "},"Å":{"ha":899,"x_min":31,"x_max":868,"o":"m 663 269 l 236 269 l 136 0 l 31 0 l 404 972 l 451 972 q 518 917 497 972 l 732 356 l 733 356 l 733 353 l 868 0 l 763 0 l 663 269 m 268 356 l 631 356 l 450 839 l 449 839 l 268 356 m 450 1032 q 344 1072 385 1032 q 303 1175 303 1111 q 344 1278 303 1239 q 450 1318 385 1318 q 556 1278 515 1318 q 597 1175 597 1239 q 556 1072 597 1111 q 450 1032 515 1032 m 450 1099 q 507 1119 486 1099 q 528 1175 528 1140 q 507 1231 528 1210 q 450 1251 486 1251 q 393 1231 414 1251 q 372 1175 372 1210 q 393 1119 372 1140 q 450 1099 414 1099 z "},"Ǻ":{"ha":899,"x_min":31,"x_max":868,"o":"m 663 269 l 236 269 l 136 0 l 31 0 l 404 972 l 451 972 q 518 917 497 972 l 732 356 l 733 356 l 733 353 l 868 0 l 763 0 l 663 269 m 268 356 l 631 356 l 450 839 l 449 839 l 268 356 m 450 1032 q 344 1072 385 1032 q 303 1175 303 1111 q 344 1278 303 1239 q 450 1318 385 1318 q 556 1278 515 1318 q 597 1175 597 1239 q 556 1072 597 1111 q 450 1032 515 1032 m 450 1099 q 507 1119 486 1099 q 528 1175 528 1140 q 507 1231 528 1210 q 450 1251 486 1251 q 393 1231 414 1251 q 372 1175 372 1210 q 393 1119 372 1140 q 450 1099 414 1099 m 522 1586 l 636 1586 l 499 1375 l 407 1375 l 522 1586 z "},"Ã":{"ha":899,"x_min":31,"x_max":868,"o":"m 663 269 l 236 269 l 136 0 l 31 0 l 404 972 l 451 972 q 518 917 497 972 l 732 356 l 733 356 l 733 353 l 868 0 l 763 0 l 663 269 m 268 356 l 631 356 l 450 839 l 449 839 l 268 356 m 533 1074 q 478 1088 501 1074 q 431 1129 456 1103 q 397 1158 408 1150 q 371 1167 386 1167 l 357 1167 q 321 1147 336 1167 q 304 1096 306 1128 l 226 1096 q 265 1197 228 1158 q 357 1236 301 1236 l 371 1236 q 430 1221 406 1236 q 482 1178 454 1206 q 510 1151 499 1160 q 533 1143 521 1143 l 547 1143 q 581 1163 567 1143 q 597 1214 596 1182 l 675 1214 q 638 1113 674 1151 q 547 1074 601 1074 l 533 1074 z "},"Æ":{"ha":1286,"x_min":11,"x_max":1217,"o":"m 543 972 l 1217 972 l 1217 883 l 683 883 l 683 542 l 1161 542 l 1161 453 l 683 453 l 683 89 l 1217 89 l 1217 0 l 671 0 q 604 24 628 0 q 581 92 581 49 l 581 269 l 264 269 l 117 0 l 11 0 l 543 972 m 581 356 l 581 844 l 579 844 l 311 356 l 581 356 z "},"Ǽ":{"ha":1286,"x_min":11,"x_max":1217,"o":"m 543 972 l 1217 972 l 1217 883 l 683 883 l 683 542 l 1161 542 l 1161 453 l 683 453 l 683 89 l 1217 89 l 1217 0 l 671 0 q 604 24 628 0 q 581 92 581 49 l 581 269 l 264 269 l 117 0 l 11 0 l 543 972 m 581 356 l 581 844 l 579 844 l 311 356 l 581 356 m 829 1296 l 943 1296 l 806 1085 l 714 1085 l 829 1296 z "},"B":{"ha":919,"x_min":111,"x_max":858,"o":"m 201 0 q 136 25 161 0 q 111 90 111 50 l 111 972 l 522 972 q 722 913 646 972 q 797 757 797 854 l 797 683 q 774 585 797 632 q 708 511 750 539 l 708 510 q 817 440 776 492 q 858 318 858 388 l 858 251 q 786 69 858 138 q 590 0 714 0 l 201 0 m 550 533 q 655 574 615 533 q 694 683 694 615 l 694 757 q 647 847 694 813 q 522 881 599 881 l 214 881 l 214 533 l 550 533 m 576 92 q 708 135 660 92 q 756 251 756 179 l 756 318 q 714 412 756 376 q 604 447 672 447 l 214 447 l 214 92 l 576 92 z "},"C":{"ha":917,"x_min":83,"x_max":858,"o":"m 399 -11 q 234 33 306 -11 q 123 158 163 78 q 83 342 83 238 l 83 631 q 123 815 83 735 q 235 940 163 896 q 404 983 308 983 l 551 983 q 710 944 642 983 q 817 835 779 906 q 856 672 856 764 l 756 672 q 699 831 756 771 q 551 892 643 892 l 404 892 q 246 820 306 892 q 186 631 186 749 l 186 342 q 244 152 186 224 q 399 81 303 81 l 549 81 q 701 147 643 81 q 758 322 758 214 l 858 322 q 819 148 858 224 q 710 31 781 72 q 549 -11 640 -11 l 399 -11 z "},"Ć":{"ha":917,"x_min":83,"x_max":858,"o":"m 399 -11 q 234 33 306 -11 q 123 158 163 78 q 83 342 83 238 l 83 631 q 123 815 83 735 q 235 940 163 896 q 404 983 308 983 l 551 983 q 710 944 642 983 q 817 835 779 906 q 856 672 856 764 l 756 672 q 699 831 756 771 q 551 892 643 892 l 404 892 q 246 820 306 892 q 186 631 186 749 l 186 342 q 244 152 186 224 q 399 81 303 81 l 549 81 q 701 147 643 81 q 758 322 758 214 l 858 322 q 819 148 858 224 q 710 31 781 72 q 549 -11 640 -11 l 399 -11 m 550 1296 l 664 1296 l 526 1085 l 435 1085 l 550 1296 z "},"Č":{"ha":917,"x_min":83,"x_max":858,"o":"m 399 -11 q 234 33 306 -11 q 123 158 163 78 q 83 342 83 238 l 83 631 q 123 815 83 735 q 235 940 163 896 q 404 983 308 983 l 551 983 q 710 944 642 983 q 817 835 779 906 q 856 672 856 764 l 756 672 q 699 831 756 771 q 551 892 643 892 l 404 892 q 246 820 306 892 q 186 631 186 749 l 186 342 q 244 152 186 224 q 399 81 303 81 l 549 81 q 701 147 643 81 q 758 322 758 214 l 858 322 q 819 148 858 224 q 710 31 781 72 q 549 -11 640 -11 l 399 -11 m 267 1310 l 361 1310 l 478 1154 l 594 1310 l 689 1310 l 515 1085 l 439 1085 l 267 1310 z "},"Ç":{"ha":917,"x_min":83,"x_max":858,"o":"m 508 -11 l 479 -75 l 489 -75 q 576 -104 543 -75 q 608 -181 608 -133 l 608 -196 q 568 -278 608 -247 q 463 -310 528 -310 l 386 -310 l 386 -243 l 460 -243 q 510 -230 490 -243 q 529 -196 529 -217 l 529 -181 q 512 -147 529 -160 q 467 -133 494 -133 l 401 -133 l 401 -72 l 428 -11 l 399 -11 q 234 33 306 -11 q 123 158 163 78 q 83 342 83 238 l 83 631 q 123 815 83 735 q 235 940 163 896 q 404 983 308 983 l 551 983 q 710 944 642 983 q 817 835 779 906 q 856 672 856 764 l 756 672 q 699 831 756 771 q 551 892 643 892 l 404 892 q 246 820 306 892 q 186 631 186 749 l 186 342 q 244 152 186 224 q 399 81 303 81 l 549 81 q 701 147 643 81 q 758 322 758 214 l 858 322 q 819 148 858 224 q 710 31 781 72 q 549 -11 640 -11 l 508 -11 z "},"Ĉ":{"ha":917,"x_min":83,"x_max":858,"o":"m 399 -11 q 234 33 306 -11 q 123 158 163 78 q 83 342 83 238 l 83 631 q 123 815 83 735 q 235 940 163 896 q 404 983 308 983 l 551 983 q 710 944 642 983 q 817 835 779 906 q 856 672 856 764 l 756 672 q 699 831 756 771 q 551 892 643 892 l 404 892 q 246 820 306 892 q 186 631 186 749 l 186 342 q 244 152 186 224 q 399 81 303 81 l 549 81 q 701 147 643 81 q 758 322 758 214 l 858 322 q 819 148 858 224 q 710 31 781 72 q 549 -11 640 -11 l 399 -11 m 439 1310 l 515 1310 l 689 1085 l 594 1085 l 478 1240 l 361 1085 l 267 1085 l 439 1310 z "},"Ċ":{"ha":917,"x_min":83,"x_max":858,"o":"m 399 -11 q 234 33 306 -11 q 123 158 163 78 q 83 342 83 238 l 83 631 q 123 815 83 735 q 235 940 163 896 q 404 983 308 983 l 551 983 q 710 944 642 983 q 817 835 779 906 q 856 672 856 764 l 756 672 q 699 831 756 771 q 551 892 643 892 l 404 892 q 246 820 306 892 q 186 631 186 749 l 186 342 q 244 152 186 224 q 399 81 303 81 l 549 81 q 701 147 643 81 q 758 322 758 214 l 858 322 q 819 148 858 224 q 710 31 781 72 q 549 -11 640 -11 l 399 -11 m 478 1085 q 424 1106 444 1085 q 403 1160 403 1126 q 424 1214 403 1193 q 478 1235 444 1235 q 532 1214 511 1235 q 553 1160 553 1193 q 532 1106 553 1126 q 478 1085 511 1085 z "},"D":{"ha":936,"x_min":111,"x_max":858,"o":"m 201 0 q 135 24 158 0 q 111 90 111 47 l 111 972 l 514 972 q 694 933 617 972 q 815 820 772 893 q 858 653 858 747 l 858 347 q 772 88 858 176 q 519 0 686 0 l 201 0 m 517 92 q 695 156 635 92 q 756 347 756 221 l 756 653 q 688 817 756 754 q 511 881 621 881 l 214 881 l 214 92 l 517 92 z "},"Ð":{"ha":1007,"x_min":36,"x_max":929,"o":"m 585 972 q 765 933 688 972 q 886 820 843 893 q 929 653 929 747 l 929 347 q 843 88 929 176 q 590 0 757 0 l 272 0 q 206 24 229 0 q 182 90 182 47 l 182 432 l 36 432 l 36 524 l 182 524 l 182 972 l 585 972 m 826 653 q 759 817 826 754 q 582 881 692 881 l 285 881 l 285 524 l 564 524 l 564 432 l 285 432 l 285 92 l 588 92 q 766 156 706 92 q 826 347 826 221 l 826 653 z "},"Ď":{"ha":936,"x_min":111,"x_max":858,"o":"m 201 0 q 135 24 158 0 q 111 90 111 47 l 111 972 l 514 972 q 694 933 617 972 q 815 820 772 893 q 858 653 858 747 l 858 347 q 772 88 858 176 q 519 0 686 0 l 201 0 m 517 92 q 695 156 635 92 q 756 347 756 221 l 756 653 q 688 817 756 754 q 511 881 621 881 l 214 881 l 214 92 l 517 92 m 264 1310 l 358 1310 l 475 1154 l 592 1310 l 686 1310 l 513 1085 l 436 1085 l 264 1310 z "},"Đ":{"ha":1007,"x_min":36,"x_max":929,"o":"m 585 972 q 765 933 688 972 q 886 820 843 893 q 929 653 929 747 l 929 347 q 843 88 929 176 q 590 0 757 0 l 272 0 q 206 24 229 0 q 182 90 182 47 l 182 432 l 36 432 l 36 524 l 182 524 l 182 972 l 585 972 m 826 653 q 759 817 826 754 q 582 881 692 881 l 285 881 l 285 524 l 564 524 l 564 432 l 285 432 l 285 92 l 588 92 q 766 156 706 92 q 826 347 826 221 l 826 653 z "},"Ḍ":{"ha":936,"x_min":111,"x_max":858,"o":"m 201 0 q 135 24 158 0 q 111 90 111 47 l 111 972 l 514 972 q 694 933 617 972 q 815 820 772 893 q 858 653 858 747 l 858 347 q 772 88 858 176 q 519 0 686 0 l 201 0 m 517 92 q 695 156 635 92 q 756 347 756 221 l 756 653 q 688 817 756 754 q 511 881 621 881 l 214 881 l 214 92 l 517 92 m 482 -249 q 428 -228 449 -249 q 407 -174 407 -207 q 428 -119 407 -140 q 482 -99 449 -99 q 536 -119 515 -99 q 557 -174 557 -140 q 536 -228 557 -207 q 482 -249 515 -249 z "},"Ḏ":{"ha":936,"x_min":111,"x_max":858,"o":"m 201 0 q 135 24 158 0 q 111 90 111 47 l 111 972 l 514 972 q 694 933 617 972 q 815 820 772 893 q 858 653 858 747 l 858 347 q 772 88 858 176 q 519 0 686 0 l 201 0 m 517 92 q 695 156 635 92 q 756 347 756 221 l 756 653 q 688 817 756 754 q 511 881 621 881 l 214 881 l 214 92 l 517 92 m 306 -103 l 660 -103 l 660 -175 l 306 -175 l 306 -103 z "},"E":{"ha":833,"x_min":111,"x_max":764,"o":"m 201 0 q 135 24 158 0 q 111 92 111 49 l 111 972 l 764 972 l 764 883 l 214 883 l 214 542 l 722 542 l 722 453 l 214 453 l 214 89 l 764 89 l 764 0 l 201 0 z "},"É":{"ha":833,"x_min":111,"x_max":764,"o":"m 201 0 q 135 24 158 0 q 111 92 111 49 l 111 972 l 764 972 l 764 883 l 214 883 l 214 542 l 722 542 l 722 453 l 214 453 l 214 89 l 764 89 l 764 0 l 201 0 m 514 1296 l 628 1296 l 490 1085 l 399 1085 l 514 1296 z "},"Ĕ":{"ha":833,"x_min":111,"x_max":764,"o":"m 201 0 q 135 24 158 0 q 111 92 111 49 l 111 972 l 764 972 l 764 883 l 214 883 l 214 542 l 722 542 l 722 453 l 214 453 l 214 89 l 764 89 l 764 0 l 201 0 m 433 1074 q 294 1124 347 1074 q 240 1256 240 1174 l 240 1267 l 321 1267 l 321 1256 q 351 1174 321 1204 q 433 1143 382 1143 l 450 1143 q 533 1174 501 1143 q 564 1256 564 1204 l 564 1267 l 643 1267 l 643 1256 q 590 1124 643 1174 q 450 1074 536 1074 l 433 1074 z "},"Ě":{"ha":833,"x_min":111,"x_max":764,"o":"m 201 0 q 135 24 158 0 q 111 92 111 49 l 111 972 l 764 972 l 764 883 l 214 883 l 214 542 l 722 542 l 722 453 l 214 453 l 214 89 l 764 89 l 764 0 l 201 0 m 231 1310 l 325 1310 l 442 1154 l 558 1310 l 653 1310 l 479 1085 l 403 1085 l 231 1310 z "},"Ê":{"ha":833,"x_min":111,"x_max":764,"o":"m 201 0 q 135 24 158 0 q 111 92 111 49 l 111 972 l 764 972 l 764 883 l 214 883 l 214 542 l 722 542 l 722 453 l 214 453 l 214 89 l 764 89 l 764 0 l 201 0 m 403 1310 l 479 1310 l 653 1085 l 558 1085 l 442 1240 l 325 1085 l 231 1085 l 403 1310 z "},"Ế":{"ha":833,"x_min":111,"x_max":778,"o":"m 201 0 q 135 24 158 0 q 111 92 111 49 l 111 972 l 764 972 l 764 883 l 214 883 l 214 542 l 722 542 l 722 453 l 214 453 l 214 89 l 764 89 l 764 0 l 201 0 m 681 1457 l 778 1457 l 672 1296 l 592 1296 l 681 1457 m 403 1310 l 479 1310 l 653 1085 l 558 1085 l 442 1240 l 325 1085 l 231 1085 l 403 1310 z "},"Ệ":{"ha":833,"x_min":111,"x_max":764,"o":"m 201 0 q 135 24 158 0 q 111 92 111 49 l 111 972 l 764 972 l 764 883 l 214 883 l 214 542 l 722 542 l 722 453 l 214 453 l 214 89 l 764 89 l 764 0 l 201 0 m 449 -249 q 394 -228 415 -249 q 374 -174 374 -207 q 394 -119 374 -140 q 449 -99 415 -99 q 503 -119 482 -99 q 524 -174 524 -140 q 503 -228 524 -207 q 449 -249 482 -249 m 403 1310 l 479 1310 l 653 1085 l 558 1085 l 442 1240 l 325 1085 l 231 1085 l 403 1310 z "},"Ề":{"ha":833,"x_min":111,"x_max":764,"o":"m 201 0 q 135 24 158 0 q 111 92 111 49 l 111 972 l 764 972 l 764 883 l 214 883 l 214 542 l 722 542 l 722 453 l 214 453 l 214 89 l 764 89 l 764 0 l 201 0 m 522 1457 l 619 1457 l 708 1296 l 628 1296 l 522 1457 m 403 1310 l 479 1310 l 653 1085 l 558 1085 l 442 1240 l 325 1085 l 231 1085 l 403 1310 z "},"Ể":{"ha":833,"x_min":111,"x_max":764,"o":"m 201 0 q 135 24 158 0 q 111 92 111 49 l 111 972 l 764 972 l 764 883 l 214 883 l 214 542 l 722 542 l 722 453 l 214 453 l 214 89 l 764 89 l 764 0 l 201 0 m 596 1293 q 610 1333 596 1317 q 651 1365 625 1349 q 681 1388 671 1379 q 690 1410 690 1397 l 690 1422 q 679 1450 690 1440 q 649 1460 668 1460 l 626 1460 q 578 1413 578 1460 l 511 1413 q 626 1521 511 1521 l 649 1521 q 760 1422 760 1521 l 760 1410 q 744 1365 760 1383 q 701 1331 728 1347 q 676 1311 685 1319 q 668 1293 668 1303 l 668 1282 l 596 1282 l 596 1293 m 403 1310 l 479 1310 l 653 1085 l 558 1085 l 442 1240 l 325 1085 l 231 1085 l 403 1310 z "},"Ễ":{"ha":833,"x_min":111,"x_max":764,"o":"m 201 0 q 135 24 158 0 q 111 92 111 49 l 111 972 l 764 972 l 764 883 l 214 883 l 214 542 l 722 542 l 722 453 l 214 453 l 214 89 l 764 89 l 764 0 l 201 0 m 518 1358 q 471 1371 490 1358 q 428 1407 451 1383 q 399 1433 410 1425 q 375 1440 388 1440 l 363 1440 q 332 1423 344 1440 q 318 1378 319 1406 l 250 1378 q 283 1467 251 1433 q 363 1501 314 1501 l 375 1501 q 428 1488 407 1501 q 472 1450 450 1474 q 498 1426 489 1433 q 518 1419 507 1419 l 531 1419 q 559 1437 547 1419 q 572 1482 571 1454 l 640 1482 q 608 1392 639 1426 q 531 1358 578 1358 l 518 1358 m 403 1310 l 479 1310 l 653 1085 l 558 1085 l 442 1240 l 325 1085 l 231 1085 l 403 1310 z "},"Ë":{"ha":833,"x_min":111,"x_max":764,"o":"m 201 0 q 135 24 158 0 q 111 92 111 49 l 111 972 l 764 972 l 764 883 l 214 883 l 214 542 l 722 542 l 722 453 l 214 453 l 214 89 l 764 89 l 764 0 l 201 0 m 303 1085 q 253 1103 272 1085 q 235 1153 235 1122 q 253 1202 235 1183 q 303 1221 272 1221 q 352 1202 333 1221 q 371 1153 371 1183 q 352 1103 371 1122 q 303 1085 333 1085 m 579 1085 q 530 1103 549 1085 q 511 1153 511 1122 q 530 1202 511 1183 q 579 1221 549 1221 q 628 1202 610 1221 q 647 1153 647 1183 q 628 1103 647 1122 q 579 1085 610 1085 z "},"Ė":{"ha":833,"x_min":111,"x_max":764,"o":"m 201 0 q 135 24 158 0 q 111 92 111 49 l 111 972 l 764 972 l 764 883 l 214 883 l 214 542 l 722 542 l 722 453 l 214 453 l 214 89 l 764 89 l 764 0 l 201 0 m 442 1085 q 388 1106 408 1085 q 367 1160 367 1126 q 388 1214 367 1193 q 442 1235 408 1235 q 496 1214 475 1235 q 517 1160 517 1193 q 496 1106 517 1126 q 442 1085 475 1085 z "},"Ẹ":{"ha":833,"x_min":111,"x_max":764,"o":"m 201 0 q 135 24 158 0 q 111 92 111 49 l 111 972 l 764 972 l 764 883 l 214 883 l 214 542 l 722 542 l 722 453 l 214 453 l 214 89 l 764 89 l 764 0 l 201 0 m 449 -249 q 394 -228 415 -249 q 374 -174 374 -207 q 394 -119 374 -140 q 449 -99 415 -99 q 503 -119 482 -99 q 524 -174 524 -140 q 503 -228 524 -207 q 449 -249 482 -249 z "},"È":{"ha":833,"x_min":111,"x_max":764,"o":"m 201 0 q 135 24 158 0 q 111 92 111 49 l 111 972 l 764 972 l 764 883 l 214 883 l 214 542 l 722 542 l 722 453 l 214 453 l 214 89 l 764 89 l 764 0 l 201 0 m 260 1296 l 374 1296 l 489 1085 l 397 1085 l 260 1296 z "},"Ẻ":{"ha":833,"x_min":111,"x_max":764,"o":"m 201 0 q 135 24 158 0 q 111 92 111 49 l 111 972 l 764 972 l 764 883 l 214 883 l 214 542 l 722 542 l 722 453 l 214 453 l 214 89 l 764 89 l 764 0 l 201 0 m 393 1088 q 410 1136 393 1117 q 460 1176 428 1156 q 495 1204 483 1193 q 507 1231 507 1215 l 507 1246 q 457 1292 507 1292 l 429 1292 q 371 1233 371 1292 l 290 1233 q 429 1364 290 1364 l 457 1364 q 556 1334 522 1364 q 590 1246 590 1304 l 590 1231 q 572 1178 590 1199 q 521 1133 554 1157 q 490 1109 500 1119 q 479 1088 479 1099 l 479 1065 l 393 1065 l 393 1088 z "},"Ē":{"ha":833,"x_min":111,"x_max":764,"o":"m 201 0 q 135 24 158 0 q 111 92 111 49 l 111 972 l 764 972 l 764 883 l 214 883 l 214 542 l 722 542 l 722 453 l 214 453 l 214 89 l 764 89 l 764 0 l 201 0 m 265 1171 l 619 1171 l 619 1099 l 265 1099 l 265 1171 z "},"Ę":{"ha":833,"x_min":111,"x_max":829,"o":"m 201 0 q 135 24 158 0 q 111 92 111 49 l 111 972 l 764 972 l 764 883 l 214 883 l 214 542 l 722 542 l 722 453 l 214 453 l 214 89 l 764 89 l 764 0 l 201 0 m 731 -290 q 624 -254 664 -290 q 585 -157 585 -218 l 585 -143 q 608 -60 585 -100 q 669 0 631 -21 l 764 0 q 696 -59 721 -22 q 671 -137 671 -96 l 671 -151 q 688 -197 671 -179 q 738 -215 706 -215 l 751 -215 q 791 -208 769 -215 q 829 -187 813 -200 l 829 -265 q 791 -283 815 -276 q 744 -290 767 -290 l 731 -290 z "},"Ẽ":{"ha":833,"x_min":111,"x_max":764,"o":"m 201 0 q 135 24 158 0 q 111 92 111 49 l 111 972 l 764 972 l 764 883 l 214 883 l 214 542 l 722 542 l 722 453 l 214 453 l 214 89 l 764 89 l 764 0 l 201 0 m 525 1074 q 470 1088 493 1074 q 422 1129 447 1103 q 389 1158 400 1150 q 363 1167 378 1167 l 349 1167 q 313 1147 328 1167 q 296 1096 297 1128 l 218 1096 q 256 1197 219 1158 q 349 1236 293 1236 l 363 1236 q 422 1221 397 1236 q 474 1178 446 1206 q 501 1151 490 1160 q 525 1143 513 1143 l 539 1143 q 573 1163 558 1143 q 589 1214 588 1182 l 667 1214 q 629 1113 665 1151 q 539 1074 593 1074 l 525 1074 z "},"F":{"ha":800,"x_min":111,"x_max":750,"o":"m 111 972 l 750 972 l 750 881 l 214 881 l 214 525 l 699 525 l 699 433 l 214 433 l 214 0 l 111 0 l 111 972 z "},"G":{"ha":950,"x_min":83,"x_max":872,"o":"m 401 -11 q 234 33 306 -11 q 123 157 163 76 q 83 342 83 238 l 83 631 q 124 815 83 735 q 239 939 165 894 q 408 983 313 983 l 556 983 q 717 944 647 983 q 826 835 788 906 q 865 672 865 764 l 765 672 q 708 831 765 771 q 556 892 650 892 l 408 892 q 247 820 308 892 q 186 631 186 749 l 186 342 q 245 152 186 224 q 401 81 304 81 l 551 81 q 711 149 650 81 q 772 328 772 217 l 772 411 l 503 411 l 503 501 l 872 501 l 872 328 q 833 151 872 228 q 720 31 793 74 q 551 -11 647 -11 l 401 -11 z "},"Ğ":{"ha":950,"x_min":83,"x_max":872,"o":"m 401 -11 q 234 33 306 -11 q 123 157 163 76 q 83 342 83 238 l 83 631 q 124 815 83 735 q 239 939 165 894 q 408 983 313 983 l 556 983 q 717 944 647 983 q 826 835 788 906 q 865 672 865 764 l 765 672 q 708 831 765 771 q 556 892 650 892 l 408 892 q 247 820 308 892 q 186 631 186 749 l 186 342 q 245 152 186 224 q 401 81 304 81 l 551 81 q 711 149 650 81 q 772 328 772 217 l 772 411 l 503 411 l 503 501 l 872 501 l 872 328 q 833 151 872 228 q 720 31 793 74 q 551 -11 647 -11 l 401 -11 m 472 1074 q 333 1124 386 1074 q 279 1256 279 1174 l 279 1267 l 360 1267 l 360 1256 q 390 1174 360 1204 q 472 1143 421 1143 l 489 1143 q 572 1174 540 1143 q 603 1256 603 1204 l 603 1267 l 682 1267 l 682 1256 q 628 1124 682 1174 q 489 1074 575 1074 l 472 1074 z "},"Ǧ":{"ha":950,"x_min":83,"x_max":872,"o":"m 401 -11 q 234 33 306 -11 q 123 157 163 76 q 83 342 83 238 l 83 631 q 124 815 83 735 q 239 939 165 894 q 408 983 313 983 l 556 983 q 717 944 647 983 q 826 835 788 906 q 865 672 865 764 l 765 672 q 708 831 765 771 q 556 892 650 892 l 408 892 q 247 820 308 892 q 186 631 186 749 l 186 342 q 245 152 186 224 q 401 81 304 81 l 551 81 q 711 149 650 81 q 772 328 772 217 l 772 411 l 503 411 l 503 501 l 872 501 l 872 328 q 833 151 872 228 q 720 31 793 74 q 551 -11 647 -11 l 401 -11 m 269 1310 l 364 1310 l 481 1154 l 597 1310 l 692 1310 l 518 1085 l 442 1085 l 269 1310 z "},"Ĝ":{"ha":950,"x_min":83,"x_max":872,"o":"m 401 -11 q 234 33 306 -11 q 123 157 163 76 q 83 342 83 238 l 83 631 q 124 815 83 735 q 239 939 165 894 q 408 983 313 983 l 556 983 q 717 944 647 983 q 826 835 788 906 q 865 672 865 764 l 765 672 q 708 831 765 771 q 556 892 650 892 l 408 892 q 247 820 308 892 q 186 631 186 749 l 186 342 q 245 152 186 224 q 401 81 304 81 l 551 81 q 711 149 650 81 q 772 328 772 217 l 772 411 l 503 411 l 503 501 l 872 501 l 872 328 q 833 151 872 228 q 720 31 793 74 q 551 -11 647 -11 l 401 -11 m 442 1310 l 518 1310 l 692 1085 l 597 1085 l 481 1240 l 364 1085 l 269 1085 l 442 1310 z "},"Ģ":{"ha":950,"x_min":83,"x_max":872,"o":"m 401 -11 q 234 33 306 -11 q 123 157 163 76 q 83 342 83 238 l 83 631 q 124 815 83 735 q 239 939 165 894 q 408 983 313 983 l 556 983 q 717 944 647 983 q 826 835 788 906 q 865 672 865 764 l 765 672 q 708 831 765 771 q 556 892 650 892 l 408 892 q 247 820 308 892 q 186 631 186 749 l 186 342 q 245 152 186 224 q 401 81 304 81 l 551 81 q 711 149 650 81 q 772 328 772 217 l 772 411 l 503 411 l 503 501 l 872 501 l 872 328 q 833 151 872 228 q 720 31 793 74 q 551 -11 647 -11 l 401 -11 m 328 -311 l 349 -297 q 410 -233 390 -269 q 431 -147 431 -196 l 431 -104 l 531 -104 l 531 -147 q 501 -279 531 -225 q 411 -372 472 -333 l 385 -389 l 328 -311 z "},"Ġ":{"ha":950,"x_min":83,"x_max":872,"o":"m 401 -11 q 234 33 306 -11 q 123 157 163 76 q 83 342 83 238 l 83 631 q 124 815 83 735 q 239 939 165 894 q 408 983 313 983 l 556 983 q 717 944 647 983 q 826 835 788 906 q 865 672 865 764 l 765 672 q 708 831 765 771 q 556 892 650 892 l 408 892 q 247 820 308 892 q 186 631 186 749 l 186 342 q 245 152 186 224 q 401 81 304 81 l 551 81 q 711 149 650 81 q 772 328 772 217 l 772 411 l 503 411 l 503 501 l 872 501 l 872 328 q 833 151 872 228 q 720 31 793 74 q 551 -11 647 -11 l 401 -11 m 481 1085 q 426 1106 447 1085 q 406 1160 406 1126 q 426 1214 406 1193 q 481 1235 447 1235 q 535 1214 514 1235 q 556 1160 556 1193 q 535 1106 556 1126 q 481 1085 514 1085 z "},"Ḡ":{"ha":950,"x_min":83,"x_max":872,"o":"m 401 -11 q 234 33 306 -11 q 123 157 163 76 q 83 342 83 238 l 83 631 q 124 815 83 735 q 239 939 165 894 q 408 983 313 983 l 556 983 q 717 944 647 983 q 826 835 788 906 q 865 672 865 764 l 765 672 q 708 831 765 771 q 556 892 650 892 l 408 892 q 247 820 308 892 q 186 631 186 749 l 186 342 q 245 152 186 224 q 401 81 304 81 l 551 81 q 711 149 650 81 q 772 328 772 217 l 772 411 l 503 411 l 503 501 l 872 501 l 872 328 q 833 151 872 228 q 720 31 793 74 q 551 -11 647 -11 l 401 -11 m 304 1171 l 658 1171 l 658 1099 l 304 1099 l 304 1171 z "},"H":{"ha":964,"x_min":111,"x_max":853,"o":"m 111 972 l 214 972 l 214 536 l 750 536 l 750 972 l 853 972 l 853 0 l 750 0 l 750 444 l 214 444 l 214 0 l 111 0 l 111 972 z "},"Ħ":{"ha":1036,"x_min":36,"x_max":1000,"o":"m 1000 708 l 889 708 l 889 0 l 786 0 l 786 444 l 250 444 l 250 0 l 147 0 l 147 708 l 36 708 l 36 792 l 147 792 l 147 972 l 250 972 l 250 792 l 786 792 l 786 972 l 889 972 l 889 792 l 1000 792 l 1000 708 m 786 708 l 250 708 l 250 536 l 786 536 l 786 708 z "},"Ḫ":{"ha":964,"x_min":111,"x_max":853,"o":"m 111 972 l 214 972 l 214 536 l 750 536 l 750 972 l 853 972 l 853 0 l 750 0 l 750 444 l 214 444 l 214 0 l 111 0 l 111 972 m 474 -281 q 334 -231 388 -281 q 281 -99 281 -181 l 281 -87 l 361 -87 l 361 -99 q 392 -181 361 -150 q 474 -211 422 -211 l 490 -211 q 573 -181 542 -211 q 604 -99 604 -150 l 604 -87 l 683 -87 l 683 -99 q 630 -231 683 -181 q 490 -281 576 -281 l 474 -281 z "},"Ĥ":{"ha":964,"x_min":111,"x_max":853,"o":"m 111 972 l 214 972 l 214 536 l 750 536 l 750 972 l 853 972 l 853 0 l 750 0 l 750 444 l 214 444 l 214 0 l 111 0 l 111 972 m 440 1310 l 517 1310 l 690 1085 l 596 1085 l 479 1240 l 363 1085 l 268 1085 l 440 1310 z "},"Ḥ":{"ha":964,"x_min":111,"x_max":853,"o":"m 111 972 l 214 972 l 214 536 l 750 536 l 750 972 l 853 972 l 853 0 l 750 0 l 750 444 l 214 444 l 214 0 l 111 0 l 111 972 m 482 -249 q 428 -228 449 -249 q 407 -174 407 -207 q 428 -119 407 -140 q 482 -99 449 -99 q 536 -119 515 -99 q 557 -174 557 -140 q 536 -228 557 -207 q 482 -249 515 -249 z "},"I":{"ha":353,"x_min":125,"x_max":228,"o":"m 125 972 l 228 972 l 228 0 l 125 0 l 125 972 z "},"Ĳ":{"ha":1114,"x_min":125,"x_max":1014,"o":"m 125 972 l 228 972 l 228 0 l 125 0 l 125 972 m 624 -11 q 485 28 544 -11 q 392 140 425 68 q 358 304 358 211 l 461 304 q 506 142 461 203 q 624 81 550 81 l 744 81 q 867 144 822 81 q 911 322 911 208 l 911 972 l 1014 972 l 1014 322 q 943 77 1014 165 q 744 -11 872 -11 l 624 -11 z "},"Í":{"ha":353,"x_min":125,"x_max":363,"o":"m 125 972 l 228 972 l 228 0 l 125 0 l 125 972 m 249 1296 l 363 1296 l 225 1085 l 133 1085 l 249 1296 z "},"Ĭ":{"ha":353,"x_min":-25,"x_max":378,"o":"m 125 972 l 228 972 l 228 0 l 125 0 l 125 972 m 168 1074 q 28 1124 82 1074 q -25 1256 -25 1174 l -25 1267 l 56 1267 l 56 1256 q 86 1174 56 1204 q 168 1143 117 1143 l 185 1143 q 267 1174 236 1143 q 299 1256 299 1204 l 299 1267 l 378 1267 l 378 1256 q 324 1124 378 1174 q 185 1074 271 1074 l 168 1074 z "},"Ǐ":{"ha":353,"x_min":-35,"x_max":388,"o":"m 125 972 l 228 972 l 228 0 l 125 0 l 125 972 m -35 1310 l 60 1310 l 176 1154 l 293 1310 l 388 1310 l 214 1085 l 138 1085 l -35 1310 z "},"Î":{"ha":353,"x_min":-35,"x_max":388,"o":"m 125 972 l 228 972 l 228 0 l 125 0 l 125 972 m 138 1310 l 214 1310 l 388 1085 l 293 1085 l 176 1240 l 60 1085 l -35 1085 l 138 1310 z "},"Ï":{"ha":353,"x_min":-31,"x_max":382,"o":"m 125 972 l 228 972 l 228 0 l 125 0 l 125 972 m 38 1085 q -12 1103 7 1085 q -31 1153 -31 1122 q -12 1202 -31 1183 q 38 1221 7 1221 q 87 1202 68 1221 q 106 1153 106 1183 q 87 1103 106 1122 q 38 1085 68 1085 m 314 1085 q 265 1103 283 1085 q 246 1153 246 1122 q 265 1202 246 1183 q 314 1221 283 1221 q 363 1202 344 1221 q 382 1153 382 1183 q 363 1103 382 1122 q 314 1085 344 1085 z "},"İ":{"ha":353,"x_min":101,"x_max":251,"o":"m 125 972 l 228 972 l 228 0 l 125 0 l 125 972 m 176 1085 q 122 1106 143 1085 q 101 1160 101 1126 q 122 1214 101 1193 q 176 1235 143 1235 q 231 1214 210 1235 q 251 1160 251 1193 q 231 1106 251 1126 q 176 1085 210 1085 z "},"Ị":{"ha":353,"x_min":101,"x_max":251,"o":"m 125 972 l 228 972 l 228 0 l 125 0 l 125 972 m 176 -249 q 122 -228 143 -249 q 101 -174 101 -207 q 122 -119 101 -140 q 176 -99 143 -99 q 231 -119 210 -99 q 251 -174 251 -140 q 231 -228 251 -207 q 176 -249 210 -249 z "},"Ì":{"ha":353,"x_min":-6,"x_max":228,"o":"m 125 972 l 228 972 l 228 0 l 125 0 l 125 972 m -6 1296 l 108 1296 l 224 1085 l 132 1085 l -6 1296 z "},"Ỉ":{"ha":353,"x_min":25,"x_max":325,"o":"m 125 972 l 228 972 l 228 0 l 125 0 l 125 972 m 128 1088 q 145 1136 128 1117 q 194 1176 163 1156 q 230 1204 218 1193 q 242 1231 242 1215 l 242 1246 q 192 1292 242 1292 l 164 1292 q 106 1233 106 1292 l 25 1233 q 164 1364 25 1364 l 192 1364 q 291 1334 257 1364 q 325 1246 325 1304 l 325 1231 q 307 1178 325 1199 q 256 1133 289 1157 q 224 1109 235 1119 q 214 1088 214 1099 l 214 1065 l 128 1065 l 128 1088 z "},"Ī":{"ha":353,"x_min":0,"x_max":354,"o":"m 125 972 l 228 972 l 228 0 l 125 0 l 125 972 m 0 1171 l 354 1171 l 354 1099 l 0 1099 l 0 1171 z "},"Į":{"ha":353,"x_min":49,"x_max":293,"o":"m 125 972 l 228 972 l 228 0 l 125 0 l 125 972 m 194 -290 q 88 -254 128 -290 q 49 -157 49 -218 l 49 -143 q 72 -60 49 -100 q 133 0 94 -21 l 228 0 q 160 -59 185 -22 q 135 -137 135 -96 l 135 -151 q 152 -197 135 -179 q 201 -215 169 -215 l 215 -215 q 255 -208 233 -215 q 293 -187 276 -200 l 293 -265 q 255 -283 279 -276 q 208 -290 231 -290 l 194 -290 z "},"Ĩ":{"ha":353,"x_min":-47,"x_max":401,"o":"m 125 972 l 228 972 l 228 0 l 125 0 l 125 972 m 260 1074 q 205 1088 228 1074 q 157 1129 182 1103 q 124 1158 135 1150 q 97 1167 113 1167 l 83 1167 q 47 1147 63 1167 q 31 1096 32 1128 l -47 1096 q -9 1197 -46 1158 q 83 1236 28 1236 l 97 1236 q 156 1221 132 1236 q 208 1178 181 1206 q 236 1151 225 1160 q 260 1143 247 1143 l 274 1143 q 308 1163 293 1143 q 324 1214 322 1182 l 401 1214 q 364 1113 400 1151 q 274 1074 328 1074 l 260 1074 z "},"J":{"ha":803,"x_min":47,"x_max":703,"o":"m 313 -11 q 174 28 233 -11 q 81 140 114 68 q 47 304 47 211 l 150 304 q 194 142 150 203 q 313 81 239 81 l 433 81 q 556 144 511 81 q 600 322 600 208 l 600 972 l 703 972 l 703 322 q 632 77 703 165 q 433 -11 561 -11 l 313 -11 z "},"Ĵ":{"ha":803,"x_min":47,"x_max":863,"o":"m 313 -11 q 174 28 233 -11 q 81 140 114 68 q 47 304 47 211 l 150 304 q 194 142 150 203 q 313 81 239 81 l 433 81 q 556 144 511 81 q 600 322 600 208 l 600 972 l 703 972 l 703 322 q 632 77 703 165 q 433 -11 561 -11 l 313 -11 m 613 1310 l 689 1310 l 863 1085 l 768 1085 l 651 1240 l 535 1085 l 440 1085 l 613 1310 z "},"K":{"ha":875,"x_min":111,"x_max":839,"o":"m 711 0 l 336 465 l 214 336 l 214 0 l 111 0 l 111 972 l 214 972 l 214 464 l 686 972 l 814 972 l 407 540 l 839 0 l 711 0 z "},"Ķ":{"ha":875,"x_min":111,"x_max":839,"o":"m 711 0 l 336 465 l 214 336 l 214 0 l 111 0 l 111 972 l 214 972 l 214 464 l 686 972 l 814 972 l 407 540 l 839 0 l 711 0 m 296 -311 l 317 -297 q 378 -233 358 -269 q 399 -147 399 -196 l 399 -104 l 499 -104 l 499 -147 q 469 -279 499 -225 q 379 -372 440 -333 l 353 -389 l 296 -311 z "},"L":{"ha":778,"x_min":111,"x_max":742,"o":"m 201 0 q 135 24 158 0 q 111 90 111 47 l 111 972 l 214 972 l 214 92 l 742 92 l 742 0 l 201 0 z "},"Ĺ":{"ha":778,"x_min":111,"x_max":742,"o":"m 201 0 q 135 24 158 0 q 111 90 111 47 l 111 972 l 214 972 l 214 92 l 742 92 l 742 0 l 201 0 m 235 1296 l 349 1296 l 211 1085 l 119 1085 l 235 1296 z "},"Ľ":{"ha":778,"x_min":111,"x_max":742,"o":"m 201 0 q 135 24 158 0 q 111 90 111 47 l 111 972 l 214 972 l 214 92 l 742 92 l 742 0 l 201 0 m 536 765 l 557 779 q 619 844 599 807 q 639 929 639 881 l 639 972 l 739 972 l 739 929 q 710 797 739 851 q 619 704 681 743 l 593 688 l 536 765 z "},"Ļ":{"ha":778,"x_min":111,"x_max":742,"o":"m 201 0 q 135 24 158 0 q 111 90 111 47 l 111 972 l 214 972 l 214 92 l 742 92 l 742 0 l 201 0 m 278 -311 l 299 -297 q 360 -233 340 -269 q 381 -147 381 -196 l 381 -104 l 481 -104 l 481 -147 q 451 -279 481 -225 q 361 -372 422 -333 l 335 -389 l 278 -311 z "},"Ŀ":{"ha":778,"x_min":111,"x_max":742,"o":"m 201 0 q 135 24 158 0 q 111 90 111 47 l 111 972 l 214 972 l 214 92 l 742 92 l 742 0 l 201 0 z "},"Ḷ":{"ha":778,"x_min":111,"x_max":742,"o":"m 201 0 q 135 24 158 0 q 111 90 111 47 l 111 972 l 214 972 l 214 92 l 742 92 l 742 0 l 201 0 m 431 -249 q 376 -228 397 -249 q 356 -174 356 -207 q 376 -119 356 -140 q 431 -99 397 -99 q 485 -119 464 -99 q 506 -174 506 -140 q 485 -228 506 -207 q 431 -249 464 -249 z "},"Ḹ":{"ha":778,"x_min":-14,"x_max":742,"o":"m 201 0 q 135 24 158 0 q 111 90 111 47 l 111 972 l 214 972 l 214 92 l 742 92 l 742 0 l 201 0 m 431 -249 q 376 -228 397 -249 q 356 -174 356 -207 q 376 -119 356 -140 q 431 -99 397 -99 q 485 -119 464 -99 q 506 -174 506 -140 q 485 -228 506 -207 q 431 -249 464 -249 m -14 1171 l 340 1171 l 340 1099 l -14 1099 l -14 1171 z "},"Ḻ":{"ha":778,"x_min":111,"x_max":742,"o":"m 201 0 q 135 24 158 0 q 111 90 111 47 l 111 972 l 214 972 l 214 92 l 742 92 l 742 0 l 201 0 m 254 -103 l 608 -103 l 608 -175 l 254 -175 l 254 -103 z "},"Ł":{"ha":819,"x_min":36,"x_max":783,"o":"m 783 92 l 783 0 l 243 0 q 176 24 200 0 q 153 90 153 47 l 153 368 l 36 300 l 36 396 l 153 464 l 153 972 l 256 972 l 256 525 l 439 632 l 439 536 l 256 429 l 256 92 l 783 92 z "},"M":{"ha":1104,"x_min":111,"x_max":993,"o":"m 111 972 l 210 972 l 557 326 l 894 972 l 993 972 l 993 0 l 892 0 l 892 781 l 611 247 q 585 209 596 219 q 560 199 574 199 l 529 199 l 213 781 l 213 0 l 111 0 l 111 972 z "},"Ṃ":{"ha":1104,"x_min":111,"x_max":993,"o":"m 111 972 l 210 972 l 557 326 l 894 972 l 993 972 l 993 0 l 892 0 l 892 781 l 611 247 q 585 209 596 219 q 560 199 574 199 l 529 199 l 213 781 l 213 0 l 111 0 l 111 972 m 553 -249 q 499 -228 519 -249 q 478 -174 478 -207 q 499 -119 478 -140 q 553 -99 519 -99 q 607 -119 586 -99 q 628 -174 628 -140 q 607 -228 628 -207 q 553 -249 586 -249 z "},"N":{"ha":958,"x_min":111,"x_max":847,"o":"m 111 972 l 208 972 l 747 163 l 747 972 l 847 972 l 847 0 l 750 0 l 211 804 l 211 0 l 111 0 l 111 972 z "},"Ń":{"ha":958,"x_min":111,"x_max":847,"o":"m 111 972 l 208 972 l 747 163 l 747 972 l 847 972 l 847 0 l 750 0 l 211 804 l 211 0 l 111 0 l 111 972 m 551 1296 l 665 1296 l 528 1085 l 436 1085 l 551 1296 z "},"Ň":{"ha":958,"x_min":111,"x_max":847,"o":"m 111 972 l 208 972 l 747 163 l 747 972 l 847 972 l 847 0 l 750 0 l 211 804 l 211 0 l 111 0 l 111 972 m 268 1310 l 363 1310 l 479 1154 l 596 1310 l 690 1310 l 517 1085 l 440 1085 l 268 1310 z "},"Ņ":{"ha":958,"x_min":111,"x_max":847,"o":"m 111 972 l 208 972 l 747 163 l 747 972 l 847 972 l 847 0 l 750 0 l 211 804 l 211 0 l 111 0 l 111 972 m 328 -311 l 349 -297 q 410 -233 390 -269 q 431 -147 431 -196 l 431 -104 l 531 -104 l 531 -147 q 501 -279 531 -225 q 411 -372 472 -333 l 385 -389 l 328 -311 z "},"Ṅ":{"ha":958,"x_min":111,"x_max":847,"o":"m 111 972 l 208 972 l 747 163 l 747 972 l 847 972 l 847 0 l 750 0 l 211 804 l 211 0 l 111 0 l 111 972 m 479 1085 q 425 1106 446 1085 q 404 1160 404 1126 q 425 1214 404 1193 q 479 1235 446 1235 q 533 1214 513 1235 q 554 1160 554 1193 q 533 1106 554 1126 q 479 1085 513 1085 z "},"Ṇ":{"ha":958,"x_min":111,"x_max":847,"o":"m 111 972 l 208 972 l 747 163 l 747 972 l 847 972 l 847 0 l 750 0 l 211 804 l 211 0 l 111 0 l 111 972 m 481 -249 q 426 -228 447 -249 q 406 -174 406 -207 q 426 -119 406 -140 q 481 -99 447 -99 q 535 -119 514 -99 q 556 -174 556 -140 q 535 -228 556 -207 q 481 -249 514 -249 z "},"Ŋ":{"ha":958,"x_min":111,"x_max":847,"o":"m 564 -187 l 613 -187 q 716 -149 685 -187 q 747 -21 747 -110 l 747 4 l 211 804 l 211 0 l 111 0 l 111 972 l 208 972 l 747 163 l 747 972 l 847 972 l 847 -14 q 793 -215 847 -154 q 613 -276 739 -276 l 564 -276 l 564 -187 z "},"Ṉ":{"ha":958,"x_min":111,"x_max":847,"o":"m 111 972 l 208 972 l 747 163 l 747 972 l 847 972 l 847 0 l 750 0 l 211 804 l 211 0 l 111 0 l 111 972 m 304 -103 l 658 -103 l 658 -175 l 304 -175 l 304 -103 z "},"Ñ":{"ha":958,"x_min":111,"x_max":847,"o":"m 111 972 l 208 972 l 747 163 l 747 972 l 847 972 l 847 0 l 750 0 l 211 804 l 211 0 l 111 0 l 111 972 m 563 1074 q 508 1088 531 1074 q 460 1129 485 1103 q 426 1158 438 1150 q 400 1167 415 1167 l 386 1167 q 350 1147 365 1167 q 333 1096 335 1128 l 256 1096 q 294 1197 257 1158 q 386 1236 331 1236 l 400 1236 q 459 1221 435 1236 q 511 1178 483 1206 q 539 1151 528 1160 q 563 1143 550 1143 l 576 1143 q 610 1163 596 1143 q 626 1214 625 1182 l 704 1214 q 667 1113 703 1151 q 576 1074 631 1074 l 563 1074 z "},"O":{"ha":967,"x_min":83,"x_max":883,"o":"m 408 -11 q 239 32 313 -11 q 124 154 165 75 q 83 338 83 233 l 83 635 q 124 818 83 739 q 239 940 165 897 q 410 983 313 983 l 557 983 q 728 940 654 983 q 842 818 801 897 q 883 635 883 739 l 883 338 q 842 155 883 233 q 727 33 801 76 q 557 -11 653 -11 l 408 -11 m 554 81 q 718 151 656 81 q 781 338 781 222 l 781 635 q 718 821 781 750 q 554 892 656 892 l 413 892 q 249 821 311 892 q 186 635 186 750 l 186 338 q 248 151 186 222 q 411 81 310 81 l 554 81 z "},"Ó":{"ha":967,"x_min":83,"x_max":883,"o":"m 408 -11 q 239 32 313 -11 q 124 154 165 75 q 83 338 83 233 l 83 635 q 124 818 83 739 q 239 940 165 897 q 410 983 313 983 l 557 983 q 728 940 654 983 q 842 818 801 897 q 883 635 883 739 l 883 338 q 842 155 883 233 q 727 33 801 76 q 557 -11 653 -11 l 408 -11 m 554 81 q 718 151 656 81 q 781 338 781 222 l 781 635 q 718 821 781 750 q 554 892 656 892 l 413 892 q 249 821 311 892 q 186 635 186 750 l 186 338 q 248 151 186 222 q 411 81 310 81 l 554 81 m 556 1296 l 669 1296 l 532 1085 l 440 1085 l 556 1296 z "},"Ŏ":{"ha":967,"x_min":83,"x_max":883,"o":"m 408 -11 q 239 32 313 -11 q 124 154 165 75 q 83 338 83 233 l 83 635 q 124 818 83 739 q 239 940 165 897 q 410 983 313 983 l 557 983 q 728 940 654 983 q 842 818 801 897 q 883 635 883 739 l 883 338 q 842 155 883 233 q 727 33 801 76 q 557 -11 653 -11 l 408 -11 m 554 81 q 718 151 656 81 q 781 338 781 222 l 781 635 q 718 821 781 750 q 554 892 656 892 l 413 892 q 249 821 311 892 q 186 635 186 750 l 186 338 q 248 151 186 222 q 411 81 310 81 l 554 81 m 475 1074 q 335 1124 389 1074 q 282 1256 282 1174 l 282 1267 l 363 1267 l 363 1256 q 393 1174 363 1204 q 475 1143 424 1143 l 492 1143 q 574 1174 543 1143 q 606 1256 606 1204 l 606 1267 l 685 1267 l 685 1256 q 631 1124 685 1174 q 492 1074 578 1074 l 475 1074 z "},"Ǒ":{"ha":967,"x_min":83,"x_max":883,"o":"m 408 -11 q 239 32 313 -11 q 124 154 165 75 q 83 338 83 233 l 83 635 q 124 818 83 739 q 239 940 165 897 q 410 983 313 983 l 557 983 q 728 940 654 983 q 842 818 801 897 q 883 635 883 739 l 883 338 q 842 155 883 233 q 727 33 801 76 q 557 -11 653 -11 l 408 -11 m 554 81 q 718 151 656 81 q 781 338 781 222 l 781 635 q 718 821 781 750 q 554 892 656 892 l 413 892 q 249 821 311 892 q 186 635 186 750 l 186 338 q 248 151 186 222 q 411 81 310 81 l 554 81 m 272 1310 l 367 1310 l 483 1154 l 600 1310 l 694 1310 l 521 1085 l 444 1085 l 272 1310 z "},"Ô":{"ha":967,"x_min":83,"x_max":883,"o":"m 408 -11 q 239 32 313 -11 q 124 154 165 75 q 83 338 83 233 l 83 635 q 124 818 83 739 q 239 940 165 897 q 410 983 313 983 l 557 983 q 728 940 654 983 q 842 818 801 897 q 883 635 883 739 l 883 338 q 842 155 883 233 q 727 33 801 76 q 557 -11 653 -11 l 408 -11 m 554 81 q 718 151 656 81 q 781 338 781 222 l 781 635 q 718 821 781 750 q 554 892 656 892 l 413 892 q 249 821 311 892 q 186 635 186 750 l 186 338 q 248 151 186 222 q 411 81 310 81 l 554 81 m 444 1310 l 521 1310 l 694 1085 l 600 1085 l 483 1240 l 367 1085 l 272 1085 l 444 1310 z "},"Ố":{"ha":967,"x_min":83,"x_max":883,"o":"m 408 -11 q 239 32 313 -11 q 124 154 165 75 q 83 338 83 233 l 83 635 q 124 818 83 739 q 239 940 165 897 q 410 983 313 983 l 557 983 q 728 940 654 983 q 842 818 801 897 q 883 635 883 739 l 883 338 q 842 155 883 233 q 727 33 801 76 q 557 -11 653 -11 l 408 -11 m 554 81 q 718 151 656 81 q 781 338 781 222 l 781 635 q 718 821 781 750 q 554 892 656 892 l 413 892 q 249 821 311 892 q 186 635 186 750 l 186 338 q 248 151 186 222 q 411 81 310 81 l 554 81 m 722 1457 l 819 1457 l 714 1296 l 633 1296 l 722 1457 m 444 1310 l 521 1310 l 694 1085 l 600 1085 l 483 1240 l 367 1085 l 272 1085 l 444 1310 z "},"Ộ":{"ha":967,"x_min":83,"x_max":883,"o":"m 408 -11 q 239 32 313 -11 q 124 154 165 75 q 83 338 83 233 l 83 635 q 124 818 83 739 q 239 940 165 897 q 410 983 313 983 l 557 983 q 728 940 654 983 q 842 818 801 897 q 883 635 883 739 l 883 338 q 842 155 883 233 q 727 33 801 76 q 557 -11 653 -11 l 408 -11 m 554 81 q 718 151 656 81 q 781 338 781 222 l 781 635 q 718 821 781 750 q 554 892 656 892 l 413 892 q 249 821 311 892 q 186 635 186 750 l 186 338 q 248 151 186 222 q 411 81 310 81 l 554 81 m 483 -249 q 429 -228 450 -249 q 408 -174 408 -207 q 429 -119 408 -140 q 483 -99 450 -99 q 538 -119 517 -99 q 558 -174 558 -140 q 538 -228 558 -207 q 483 -249 517 -249 m 444 1310 l 521 1310 l 694 1085 l 600 1085 l 483 1240 l 367 1085 l 272 1085 l 444 1310 z "},"Ồ":{"ha":967,"x_min":83,"x_max":883,"o":"m 408 -11 q 239 32 313 -11 q 124 154 165 75 q 83 338 83 233 l 83 635 q 124 818 83 739 q 239 940 165 897 q 410 983 313 983 l 557 983 q 728 940 654 983 q 842 818 801 897 q 883 635 883 739 l 883 338 q 842 155 883 233 q 727 33 801 76 q 557 -11 653 -11 l 408 -11 m 554 81 q 718 151 656 81 q 781 338 781 222 l 781 635 q 718 821 781 750 q 554 892 656 892 l 413 892 q 249 821 311 892 q 186 635 186 750 l 186 338 q 248 151 186 222 q 411 81 310 81 l 554 81 m 564 1457 l 661 1457 l 750 1296 l 669 1296 l 564 1457 m 444 1310 l 521 1310 l 694 1085 l 600 1085 l 483 1240 l 367 1085 l 272 1085 l 444 1310 z "},"Ổ":{"ha":967,"x_min":83,"x_max":883,"o":"m 408 -11 q 239 32 313 -11 q 124 154 165 75 q 83 338 83 233 l 83 635 q 124 818 83 739 q 239 940 165 897 q 410 983 313 983 l 557 983 q 728 940 654 983 q 842 818 801 897 q 883 635 883 739 l 883 338 q 842 155 883 233 q 727 33 801 76 q 557 -11 653 -11 l 408 -11 m 554 81 q 718 151 656 81 q 781 338 781 222 l 781 635 q 718 821 781 750 q 554 892 656 892 l 413 892 q 249 821 311 892 q 186 635 186 750 l 186 338 q 248 151 186 222 q 411 81 310 81 l 554 81 m 638 1293 q 652 1333 638 1317 q 693 1365 667 1349 q 722 1388 713 1379 q 732 1410 732 1397 l 732 1422 q 721 1450 732 1440 q 690 1460 710 1460 l 668 1460 q 619 1413 619 1460 l 553 1413 q 668 1521 553 1521 l 690 1521 q 801 1422 801 1521 l 801 1410 q 785 1365 801 1383 q 743 1331 769 1347 q 718 1311 726 1319 q 710 1293 710 1303 l 710 1282 l 638 1282 l 638 1293 m 444 1310 l 521 1310 l 694 1085 l 600 1085 l 483 1240 l 367 1085 l 272 1085 l 444 1310 z "},"Ỗ":{"ha":967,"x_min":83,"x_max":883,"o":"m 408 -11 q 239 32 313 -11 q 124 154 165 75 q 83 338 83 233 l 83 635 q 124 818 83 739 q 239 940 165 897 q 410 983 313 983 l 557 983 q 728 940 654 983 q 842 818 801 897 q 883 635 883 739 l 883 338 q 842 155 883 233 q 727 33 801 76 q 557 -11 653 -11 l 408 -11 m 554 81 q 718 151 656 81 q 781 338 781 222 l 781 635 q 718 821 781 750 q 554 892 656 892 l 413 892 q 249 821 311 892 q 186 635 186 750 l 186 338 q 248 151 186 222 q 411 81 310 81 l 554 81 m 560 1358 q 513 1371 532 1358 q 469 1407 493 1383 q 440 1433 451 1425 q 417 1440 429 1440 l 404 1440 q 374 1423 386 1440 q 360 1378 361 1406 l 292 1378 q 324 1467 293 1433 q 404 1501 356 1501 l 417 1501 q 470 1488 449 1501 q 514 1450 492 1474 q 540 1426 531 1433 q 560 1419 549 1419 l 572 1419 q 601 1437 589 1419 q 614 1482 613 1454 l 682 1482 q 650 1392 681 1426 q 572 1358 619 1358 l 560 1358 m 444 1310 l 521 1310 l 694 1085 l 600 1085 l 483 1240 l 367 1085 l 272 1085 l 444 1310 z "},"Ö":{"ha":967,"x_min":83,"x_max":883,"o":"m 408 -11 q 239 32 313 -11 q 124 154 165 75 q 83 338 83 233 l 83 635 q 124 818 83 739 q 239 940 165 897 q 410 983 313 983 l 557 983 q 728 940 654 983 q 842 818 801 897 q 883 635 883 739 l 883 338 q 842 155 883 233 q 727 33 801 76 q 557 -11 653 -11 l 408 -11 m 554 81 q 718 151 656 81 q 781 338 781 222 l 781 635 q 718 821 781 750 q 554 892 656 892 l 413 892 q 249 821 311 892 q 186 635 186 750 l 186 338 q 248 151 186 222 q 411 81 310 81 l 554 81 m 344 1085 q 295 1103 314 1085 q 276 1153 276 1122 q 295 1202 276 1183 q 344 1221 314 1221 q 394 1202 375 1221 q 413 1153 413 1183 q 394 1103 413 1122 q 344 1085 375 1085 m 621 1085 q 572 1103 590 1085 q 553 1153 553 1122 q 572 1202 553 1183 q 621 1221 590 1221 q 670 1202 651 1221 q 689 1153 689 1183 q 670 1103 689 1122 q 621 1085 651 1085 z "},"Ọ":{"ha":967,"x_min":83,"x_max":883,"o":"m 408 -11 q 239 32 313 -11 q 124 154 165 75 q 83 338 83 233 l 83 635 q 124 818 83 739 q 239 940 165 897 q 410 983 313 983 l 557 983 q 728 940 654 983 q 842 818 801 897 q 883 635 883 739 l 883 338 q 842 155 883 233 q 727 33 801 76 q 557 -11 653 -11 l 408 -11 m 554 81 q 718 151 656 81 q 781 338 781 222 l 781 635 q 718 821 781 750 q 554 892 656 892 l 413 892 q 249 821 311 892 q 186 635 186 750 l 186 338 q 248 151 186 222 q 411 81 310 81 l 554 81 m 483 -249 q 429 -228 450 -249 q 408 -174 408 -207 q 429 -119 408 -140 q 483 -99 450 -99 q 538 -119 517 -99 q 558 -174 558 -140 q 538 -228 558 -207 q 483 -249 517 -249 z "},"Ò":{"ha":967,"x_min":83,"x_max":883,"o":"m 408 -11 q 239 32 313 -11 q 124 154 165 75 q 83 338 83 233 l 83 635 q 124 818 83 739 q 239 940 165 897 q 410 983 313 983 l 557 983 q 728 940 654 983 q 842 818 801 897 q 883 635 883 739 l 883 338 q 842 155 883 233 q 727 33 801 76 q 557 -11 653 -11 l 408 -11 m 554 81 q 718 151 656 81 q 781 338 781 222 l 781 635 q 718 821 781 750 q 554 892 656 892 l 413 892 q 249 821 311 892 q 186 635 186 750 l 186 338 q 248 151 186 222 q 411 81 310 81 l 554 81 m 301 1296 l 415 1296 l 531 1085 l 439 1085 l 301 1296 z "},"Ỏ":{"ha":967,"x_min":83,"x_max":883,"o":"m 408 -11 q 239 32 313 -11 q 124 154 165 75 q 83 338 83 233 l 83 635 q 124 818 83 739 q 239 940 165 897 q 410 983 313 983 l 557 983 q 728 940 654 983 q 842 818 801 897 q 883 635 883 739 l 883 338 q 842 155 883 233 q 727 33 801 76 q 557 -11 653 -11 l 408 -11 m 554 81 q 718 151 656 81 q 781 338 781 222 l 781 635 q 718 821 781 750 q 554 892 656 892 l 413 892 q 249 821 311 892 q 186 635 186 750 l 186 338 q 248 151 186 222 q 411 81 310 81 l 554 81 m 435 1088 q 452 1136 435 1117 q 501 1176 469 1156 q 537 1204 525 1193 q 549 1231 549 1215 l 549 1246 q 499 1292 549 1292 l 471 1292 q 413 1233 413 1292 l 332 1233 q 471 1364 332 1364 l 499 1364 q 598 1334 564 1364 q 632 1246 632 1304 l 632 1231 q 614 1178 632 1199 q 563 1133 596 1157 q 531 1109 542 1119 q 521 1088 521 1099 l 521 1065 l 435 1065 l 435 1088 z "},"Ơ":{"ha":1064,"x_min":83,"x_max":1085,"o":"m 1085 969 l 1085 953 q 1030 777 1085 840 q 876 713 975 714 q 883 635 883 671 l 883 338 q 842 155 883 233 q 727 33 801 76 q 557 -11 653 -11 l 408 -11 q 239 32 313 -11 q 124 154 165 75 q 83 338 83 233 l 83 635 q 124 818 83 739 q 239 940 165 897 q 410 983 313 983 l 557 983 q 738 934 661 983 q 853 796 815 885 l 878 796 q 962 836 933 796 q 990 953 990 876 l 990 969 l 1085 969 m 781 635 q 718 821 781 750 q 554 892 656 892 l 413 892 q 249 821 311 892 q 186 635 186 750 l 186 338 q 248 151 186 222 q 411 81 310 81 l 554 81 q 718 151 656 81 q 781 338 781 222 l 781 635 z "},"Ớ":{"ha":1064,"x_min":83,"x_max":1085,"o":"m 1085 969 l 1085 953 q 1030 777 1085 840 q 876 713 975 714 q 883 635 883 671 l 883 338 q 842 155 883 233 q 727 33 801 76 q 557 -11 653 -11 l 408 -11 q 239 32 313 -11 q 124 154 165 75 q 83 338 83 233 l 83 635 q 124 818 83 739 q 239 940 165 897 q 410 983 313 983 l 557 983 q 738 934 661 983 q 853 796 815 885 l 878 796 q 962 836 933 796 q 990 953 990 876 l 990 969 l 1085 969 m 781 635 q 718 821 781 750 q 554 892 656 892 l 413 892 q 249 821 311 892 q 186 635 186 750 l 186 338 q 248 151 186 222 q 411 81 310 81 l 554 81 q 718 151 656 81 q 781 338 781 222 l 781 635 m 556 1296 l 669 1296 l 532 1085 l 440 1085 l 556 1296 z "},"Ợ":{"ha":1064,"x_min":83,"x_max":1085,"o":"m 1085 969 l 1085 953 q 1030 777 1085 840 q 876 713 975 714 q 883 635 883 671 l 883 338 q 842 155 883 233 q 727 33 801 76 q 557 -11 653 -11 l 408 -11 q 239 32 313 -11 q 124 154 165 75 q 83 338 83 233 l 83 635 q 124 818 83 739 q 239 940 165 897 q 410 983 313 983 l 557 983 q 738 934 661 983 q 853 796 815 885 l 878 796 q 962 836 933 796 q 990 953 990 876 l 990 969 l 1085 969 m 781 635 q 718 821 781 750 q 554 892 656 892 l 413 892 q 249 821 311 892 q 186 635 186 750 l 186 338 q 248 151 186 222 q 411 81 310 81 l 554 81 q 718 151 656 81 q 781 338 781 222 l 781 635 m 483 -249 q 429 -228 450 -249 q 408 -174 408 -207 q 429 -119 408 -140 q 483 -99 450 -99 q 538 -119 517 -99 q 558 -174 558 -140 q 538 -228 558 -207 q 483 -249 517 -249 z "},"Ờ":{"ha":1064,"x_min":83,"x_max":1085,"o":"m 1085 969 l 1085 953 q 1030 777 1085 840 q 876 713 975 714 q 883 635 883 671 l 883 338 q 842 155 883 233 q 727 33 801 76 q 557 -11 653 -11 l 408 -11 q 239 32 313 -11 q 124 154 165 75 q 83 338 83 233 l 83 635 q 124 818 83 739 q 239 940 165 897 q 410 983 313 983 l 557 983 q 738 934 661 983 q 853 796 815 885 l 878 796 q 962 836 933 796 q 990 953 990 876 l 990 969 l 1085 969 m 781 635 q 718 821 781 750 q 554 892 656 892 l 413 892 q 249 821 311 892 q 186 635 186 750 l 186 338 q 248 151 186 222 q 411 81 310 81 l 554 81 q 718 151 656 81 q 781 338 781 222 l 781 635 m 301 1296 l 415 1296 l 531 1085 l 439 1085 l 301 1296 z "},"Ở":{"ha":1064,"x_min":83,"x_max":1085,"o":"m 1085 969 l 1085 953 q 1030 777 1085 840 q 876 713 975 714 q 883 635 883 671 l 883 338 q 842 155 883 233 q 727 33 801 76 q 557 -11 653 -11 l 408 -11 q 239 32 313 -11 q 124 154 165 75 q 83 338 83 233 l 83 635 q 124 818 83 739 q 239 940 165 897 q 410 983 313 983 l 557 983 q 738 934 661 983 q 853 796 815 885 l 878 796 q 962 836 933 796 q 990 953 990 876 l 990 969 l 1085 969 m 781 635 q 718 821 781 750 q 554 892 656 892 l 413 892 q 249 821 311 892 q 186 635 186 750 l 186 338 q 248 151 186 222 q 411 81 310 81 l 554 81 q 718 151 656 81 q 781 338 781 222 l 781 635 m 435 1088 q 452 1136 435 1117 q 501 1176 469 1156 q 537 1204 525 1193 q 549 1231 549 1215 l 549 1246 q 499 1292 549 1292 l 471 1292 q 413 1233 413 1292 l 332 1233 q 471 1364 332 1364 l 499 1364 q 598 1334 564 1364 q 632 1246 632 1304 l 632 1231 q 614 1178 632 1199 q 563 1133 596 1157 q 531 1109 542 1119 q 521 1088 521 1099 l 521 1065 l 435 1065 l 435 1088 z "},"Ỡ":{"ha":1064,"x_min":83,"x_max":1085,"o":"m 1085 969 l 1085 953 q 1030 777 1085 840 q 876 713 975 714 q 883 635 883 671 l 883 338 q 842 155 883 233 q 727 33 801 76 q 557 -11 653 -11 l 408 -11 q 239 32 313 -11 q 124 154 165 75 q 83 338 83 233 l 83 635 q 124 818 83 739 q 239 940 165 897 q 410 983 313 983 l 557 983 q 738 934 661 983 q 853 796 815 885 l 878 796 q 962 836 933 796 q 990 953 990 876 l 990 969 l 1085 969 m 781 635 q 718 821 781 750 q 554 892 656 892 l 413 892 q 249 821 311 892 q 186 635 186 750 l 186 338 q 248 151 186 222 q 411 81 310 81 l 554 81 q 718 151 656 81 q 781 338 781 222 l 781 635 m 567 1074 q 512 1088 535 1074 q 464 1129 489 1103 q 431 1158 442 1150 q 404 1167 419 1167 l 390 1167 q 354 1147 369 1167 q 338 1096 339 1128 l 260 1096 q 298 1197 261 1158 q 390 1236 335 1236 l 404 1236 q 463 1221 439 1236 q 515 1178 488 1206 q 543 1151 532 1160 q 567 1143 554 1143 l 581 1143 q 615 1163 600 1143 q 631 1214 629 1182 l 708 1214 q 671 1113 707 1151 q 581 1074 635 1074 l 567 1074 z "},"Ő":{"ha":967,"x_min":83,"x_max":883,"o":"m 408 -11 q 239 32 313 -11 q 124 154 165 75 q 83 338 83 233 l 83 635 q 124 818 83 739 q 239 940 165 897 q 410 983 313 983 l 557 983 q 728 940 654 983 q 842 818 801 897 q 883 635 883 739 l 883 338 q 842 155 883 233 q 727 33 801 76 q 557 -11 653 -11 l 408 -11 m 554 81 q 718 151 656 81 q 781 338 781 222 l 781 635 q 718 821 781 750 q 554 892 656 892 l 413 892 q 249 821 311 892 q 186 635 186 750 l 186 338 q 248 151 186 222 q 411 81 310 81 l 554 81 m 447 1296 l 556 1296 l 424 1085 l 338 1085 l 447 1296 m 626 1296 l 735 1296 l 603 1085 l 517 1085 l 626 1296 z "},"Ō":{"ha":967,"x_min":83,"x_max":883,"o":"m 408 -11 q 239 32 313 -11 q 124 154 165 75 q 83 338 83 233 l 83 635 q 124 818 83 739 q 239 940 165 897 q 410 983 313 983 l 557 983 q 728 940 654 983 q 842 818 801 897 q 883 635 883 739 l 883 338 q 842 155 883 233 q 727 33 801 76 q 557 -11 653 -11 l 408 -11 m 554 81 q 718 151 656 81 q 781 338 781 222 l 781 635 q 718 821 781 750 q 554 892 656 892 l 413 892 q 249 821 311 892 q 186 635 186 750 l 186 338 q 248 151 186 222 q 411 81 310 81 l 554 81 m 307 1171 l 661 1171 l 661 1099 l 307 1099 l 307 1171 z "},"Ø":{"ha":967,"x_min":75,"x_max":892,"o":"m 799 883 q 883 635 883 788 l 883 338 q 842 155 883 233 q 727 33 801 76 q 557 -11 653 -11 l 408 -11 q 233 35 310 -11 l 168 -62 l 75 -62 l 174 85 q 83 338 83 182 l 83 635 q 124 818 83 739 q 239 940 165 897 q 410 983 313 983 l 557 983 q 739 933 661 983 l 799 1024 l 892 1024 l 799 883 m 186 338 q 232 172 186 240 l 685 851 q 554 892 629 892 l 413 892 q 249 821 311 892 q 186 635 186 750 l 186 338 m 781 635 q 739 794 781 726 l 288 117 q 411 81 340 81 l 554 81 q 718 151 656 81 q 781 338 781 222 l 781 635 z "},"Ǿ":{"ha":967,"x_min":75,"x_max":892,"o":"m 799 883 q 883 635 883 788 l 883 338 q 842 155 883 233 q 727 33 801 76 q 557 -11 653 -11 l 408 -11 q 233 35 310 -11 l 168 -62 l 75 -62 l 174 85 q 83 338 83 182 l 83 635 q 124 818 83 739 q 239 940 165 897 q 410 983 313 983 l 557 983 q 739 933 661 983 l 799 1024 l 892 1024 l 799 883 m 186 338 q 232 172 186 240 l 685 851 q 554 892 629 892 l 413 892 q 249 821 311 892 q 186 635 186 750 l 186 338 m 781 635 q 739 794 781 726 l 288 117 q 411 81 340 81 l 554 81 q 718 151 656 81 q 781 338 781 222 l 781 635 m 550 1296 l 664 1296 l 526 1085 l 435 1085 l 550 1296 z "},"Õ":{"ha":967,"x_min":83,"x_max":883,"o":"m 408 -11 q 239 32 313 -11 q 124 154 165 75 q 83 338 83 233 l 83 635 q 124 818 83 739 q 239 940 165 897 q 410 983 313 983 l 557 983 q 728 940 654 983 q 842 818 801 897 q 883 635 883 739 l 883 338 q 842 155 883 233 q 727 33 801 76 q 557 -11 653 -11 l 408 -11 m 554 81 q 718 151 656 81 q 781 338 781 222 l 781 635 q 718 821 781 750 q 554 892 656 892 l 413 892 q 249 821 311 892 q 186 635 186 750 l 186 338 q 248 151 186 222 q 411 81 310 81 l 554 81 m 567 1074 q 512 1088 535 1074 q 464 1129 489 1103 q 431 1158 442 1150 q 404 1167 419 1167 l 390 1167 q 354 1147 369 1167 q 338 1096 339 1128 l 260 1096 q 298 1197 261 1158 q 390 1236 335 1236 l 404 1236 q 463 1221 439 1236 q 515 1178 488 1206 q 543 1151 532 1160 q 567 1143 554 1143 l 581 1143 q 615 1163 600 1143 q 631 1214 629 1182 l 708 1214 q 671 1113 707 1151 q 581 1074 635 1074 l 567 1074 z "},"Œ":{"ha":1494,"x_min":83,"x_max":1425,"o":"m 408 -11 q 239 33 313 -11 q 124 156 165 76 q 83 340 83 236 l 83 629 q 124 814 83 733 q 240 939 165 894 q 413 983 315 983 l 563 983 q 690 955 631 983 q 789 876 750 926 l 789 972 l 1425 972 l 1425 883 l 892 883 l 892 542 l 1369 542 l 1369 453 l 892 453 l 892 89 l 1425 89 l 1425 0 l 882 0 q 816 22 842 0 q 790 79 790 44 l 790 114 q 687 24 753 58 q 553 -11 621 -11 l 408 -11 m 550 81 q 723 153 657 81 q 789 346 789 226 l 789 629 q 726 819 789 746 q 560 892 663 892 l 415 892 q 249 819 313 892 q 186 629 186 746 l 186 340 q 248 152 186 224 q 411 81 310 81 l 550 81 z "},"P":{"ha":867,"x_min":111,"x_max":822,"o":"m 111 972 l 582 972 q 756 911 690 972 q 822 750 822 850 l 822 607 q 751 434 822 500 q 565 368 681 368 l 214 368 l 214 0 l 111 0 l 111 972 m 563 460 q 676 501 633 460 q 719 610 719 542 l 719 753 q 681 845 719 810 q 579 881 643 881 l 214 881 l 214 460 l 563 460 z "},"Þ":{"ha":886,"x_min":111,"x_max":822,"o":"m 582 797 q 756 737 690 797 q 822 578 822 676 l 822 435 q 748 260 822 326 q 551 193 674 193 l 214 193 l 214 0 l 111 0 l 111 972 l 214 972 l 214 797 l 582 797 m 719 581 q 681 672 719 638 q 579 706 643 706 l 214 706 l 214 285 l 549 285 q 672 326 625 285 q 719 438 719 368 l 719 581 z "},"Q":{"ha":972,"x_min":83,"x_max":928,"o":"m 864 -44 l 757 61 q 549 -11 667 -11 l 404 -11 q 235 32 308 -11 q 123 154 163 75 q 83 338 83 233 l 83 635 q 124 817 83 739 q 240 940 165 896 q 411 983 315 983 l 558 983 q 728 940 654 983 q 842 818 801 897 q 883 635 883 739 l 883 340 q 819 129 883 219 l 928 22 l 864 -44 m 546 81 q 689 129 629 81 l 547 268 l 611 335 l 747 200 q 781 340 781 263 l 781 635 q 719 821 781 750 q 556 892 657 892 l 414 892 q 249 821 313 892 q 186 635 186 750 l 186 338 q 247 151 186 221 q 407 81 307 81 l 546 81 z "},"R":{"ha":903,"x_min":111,"x_max":850,"o":"m 111 972 l 583 972 q 755 912 690 972 q 819 753 819 851 l 819 651 q 772 522 819 578 q 646 442 725 465 l 646 440 q 722 369 688 418 q 774 260 756 321 l 850 0 l 744 0 l 668 260 q 601 369 649 328 q 496 411 553 411 l 214 411 l 214 0 l 111 0 l 111 972 m 547 503 q 670 544 624 503 q 717 651 717 585 l 717 758 q 679 847 717 814 q 581 881 642 881 l 214 881 l 214 503 l 547 503 z "},"Ŕ":{"ha":903,"x_min":111,"x_max":850,"o":"m 111 972 l 583 972 q 755 912 690 972 q 819 753 819 851 l 819 651 q 772 522 819 578 q 646 442 725 465 l 646 440 q 722 369 688 418 q 774 260 756 321 l 850 0 l 744 0 l 668 260 q 601 369 649 328 q 496 411 553 411 l 214 411 l 214 0 l 111 0 l 111 972 m 547 503 q 670 544 624 503 q 717 651 717 585 l 717 758 q 679 847 717 814 q 581 881 642 881 l 214 881 l 214 503 l 547 503 m 519 1296 l 633 1296 l 496 1085 l 404 1085 l 519 1296 z "},"Ř":{"ha":903,"x_min":111,"x_max":850,"o":"m 111 972 l 583 972 q 755 912 690 972 q 819 753 819 851 l 819 651 q 772 522 819 578 q 646 442 725 465 l 646 440 q 722 369 688 418 q 774 260 756 321 l 850 0 l 744 0 l 668 260 q 601 369 649 328 q 496 411 553 411 l 214 411 l 214 0 l 111 0 l 111 972 m 547 503 q 670 544 624 503 q 717 651 717 585 l 717 758 q 679 847 717 814 q 581 881 642 881 l 214 881 l 214 503 l 547 503 m 236 1310 l 331 1310 l 447 1154 l 564 1310 l 658 1310 l 485 1085 l 408 1085 l 236 1310 z "},"Ŗ":{"ha":903,"x_min":111,"x_max":850,"o":"m 111 972 l 583 972 q 755 912 690 972 q 819 753 819 851 l 819 651 q 772 522 819 578 q 646 442 725 465 l 646 440 q 722 369 688 418 q 774 260 756 321 l 850 0 l 744 0 l 668 260 q 601 369 649 328 q 496 411 553 411 l 214 411 l 214 0 l 111 0 l 111 972 m 547 503 q 670 544 624 503 q 717 651 717 585 l 717 758 q 679 847 717 814 q 581 881 642 881 l 214 881 l 214 503 l 547 503 m 315 -311 l 336 -297 q 398 -233 378 -269 q 418 -147 418 -196 l 418 -104 l 518 -104 l 518 -147 q 489 -279 518 -225 q 399 -372 460 -333 l 372 -389 l 315 -311 z "},"Ṛ":{"ha":903,"x_min":111,"x_max":850,"o":"m 111 972 l 583 972 q 755 912 690 972 q 819 753 819 851 l 819 651 q 772 522 819 578 q 646 442 725 465 l 646 440 q 722 369 688 418 q 774 260 756 321 l 850 0 l 744 0 l 668 260 q 601 369 649 328 q 496 411 553 411 l 214 411 l 214 0 l 111 0 l 111 972 m 547 503 q 670 544 624 503 q 717 651 717 585 l 717 758 q 679 847 717 814 q 581 881 642 881 l 214 881 l 214 503 l 547 503 m 468 -249 q 414 -228 435 -249 q 393 -174 393 -207 q 414 -119 393 -140 q 468 -99 435 -99 q 522 -119 501 -99 q 543 -174 543 -140 q 522 -228 543 -207 q 468 -249 501 -249 z "},"Ṝ":{"ha":903,"x_min":111,"x_max":850,"o":"m 111 972 l 583 972 q 755 912 690 972 q 819 753 819 851 l 819 651 q 772 522 819 578 q 646 442 725 465 l 646 440 q 722 369 688 418 q 774 260 756 321 l 850 0 l 744 0 l 668 260 q 601 369 649 328 q 496 411 553 411 l 214 411 l 214 0 l 111 0 l 111 972 m 547 503 q 670 544 624 503 q 717 651 717 585 l 717 758 q 679 847 717 814 q 581 881 642 881 l 214 881 l 214 503 l 547 503 m 468 -249 q 414 -228 435 -249 q 393 -174 393 -207 q 414 -119 393 -140 q 468 -99 435 -99 q 522 -119 501 -99 q 543 -174 543 -140 q 522 -228 543 -207 q 468 -249 501 -249 m 271 1171 l 625 1171 l 625 1099 l 271 1099 l 271 1171 z "},"Ṟ":{"ha":903,"x_min":111,"x_max":850,"o":"m 111 972 l 583 972 q 755 912 690 972 q 819 753 819 851 l 819 651 q 772 522 819 578 q 646 442 725 465 l 646 440 q 722 369 688 418 q 774 260 756 321 l 850 0 l 744 0 l 668 260 q 601 369 649 328 q 496 411 553 411 l 214 411 l 214 0 l 111 0 l 111 972 m 547 503 q 670 544 624 503 q 717 651 717 585 l 717 758 q 679 847 717 814 q 581 881 642 881 l 214 881 l 214 503 l 547 503 m 292 -103 l 646 -103 l 646 -175 l 292 -175 l 292 -103 z "},"S":{"ha":871,"x_min":78,"x_max":801,"o":"m 360 -11 q 213 24 276 -11 q 113 124 149 60 q 78 274 78 189 l 178 274 q 228 134 178 188 q 363 81 279 81 l 517 81 q 649 117 599 81 q 699 214 699 154 l 699 303 q 662 383 699 350 q 561 426 625 417 l 311 468 q 147 543 206 486 q 89 686 89 600 l 89 761 q 165 923 89 863 q 365 983 240 983 l 522 983 q 713 912 640 983 q 785 724 785 840 l 685 724 q 640 846 685 800 q 522 892 596 892 l 365 892 q 239 856 286 892 q 192 761 192 821 l 192 686 q 227 604 192 638 q 325 560 263 571 l 574 517 q 742 442 682 497 q 801 303 801 388 l 801 214 q 724 51 801 113 q 519 -11 646 -11 l 360 -11 z "},"Ś":{"ha":871,"x_min":78,"x_max":801,"o":"m 360 -11 q 213 24 276 -11 q 113 124 149 60 q 78 274 78 189 l 178 274 q 228 134 178 188 q 363 81 279 81 l 517 81 q 649 117 599 81 q 699 214 699 154 l 699 303 q 662 383 699 350 q 561 426 625 417 l 311 468 q 147 543 206 486 q 89 686 89 600 l 89 761 q 165 923 89 863 q 365 983 240 983 l 522 983 q 713 912 640 983 q 785 724 785 840 l 685 724 q 640 846 685 800 q 522 892 596 892 l 365 892 q 239 856 286 892 q 192 761 192 821 l 192 686 q 227 604 192 638 q 325 560 263 571 l 574 517 q 742 442 682 497 q 801 303 801 388 l 801 214 q 724 51 801 113 q 519 -11 646 -11 l 360 -11 m 514 1296 l 628 1296 l 490 1085 l 399 1085 l 514 1296 z "},"Š":{"ha":871,"x_min":78,"x_max":801,"o":"m 360 -11 q 213 24 276 -11 q 113 124 149 60 q 78 274 78 189 l 178 274 q 228 134 178 188 q 363 81 279 81 l 517 81 q 649 117 599 81 q 699 214 699 154 l 699 303 q 662 383 699 350 q 561 426 625 417 l 311 468 q 147 543 206 486 q 89 686 89 600 l 89 761 q 165 923 89 863 q 365 983 240 983 l 522 983 q 713 912 640 983 q 785 724 785 840 l 685 724 q 640 846 685 800 q 522 892 596 892 l 365 892 q 239 856 286 892 q 192 761 192 821 l 192 686 q 227 604 192 638 q 325 560 263 571 l 574 517 q 742 442 682 497 q 801 303 801 388 l 801 214 q 724 51 801 113 q 519 -11 646 -11 l 360 -11 m 231 1310 l 325 1310 l 442 1154 l 558 1310 l 653 1310 l 479 1085 l 403 1085 l 231 1310 z "},"Ş":{"ha":871,"x_min":78,"x_max":801,"o":"m 574 517 q 742 442 682 497 q 801 303 801 388 l 801 214 q 724 51 801 113 q 519 -11 646 -11 l 486 -11 l 457 -75 l 467 -75 q 553 -104 521 -75 q 586 -181 586 -133 l 586 -196 q 546 -278 586 -247 q 440 -310 506 -310 l 364 -310 l 364 -243 l 438 -243 q 488 -230 468 -243 q 507 -196 507 -217 l 507 -181 q 490 -147 507 -160 q 444 -133 472 -133 l 379 -133 l 379 -72 l 406 -11 l 360 -11 q 213 24 276 -11 q 113 124 149 60 q 78 274 78 189 l 178 274 q 228 134 178 188 q 363 81 279 81 l 517 81 q 649 117 599 81 q 699 214 699 154 l 699 303 q 662 383 699 350 q 561 426 625 417 l 311 468 q 147 543 206 486 q 89 686 89 600 l 89 761 q 165 923 89 863 q 365 983 240 983 l 522 983 q 713 912 640 983 q 785 724 785 840 l 685 724 q 640 846 685 800 q 522 892 596 892 l 365 892 q 239 856 286 892 q 192 761 192 821 l 192 686 q 227 604 192 638 q 325 560 263 571 l 574 517 z "},"Ŝ":{"ha":871,"x_min":78,"x_max":801,"o":"m 360 -11 q 213 24 276 -11 q 113 124 149 60 q 78 274 78 189 l 178 274 q 228 134 178 188 q 363 81 279 81 l 517 81 q 649 117 599 81 q 699 214 699 154 l 699 303 q 662 383 699 350 q 561 426 625 417 l 311 468 q 147 543 206 486 q 89 686 89 600 l 89 761 q 165 923 89 863 q 365 983 240 983 l 522 983 q 713 912 640 983 q 785 724 785 840 l 685 724 q 640 846 685 800 q 522 892 596 892 l 365 892 q 239 856 286 892 q 192 761 192 821 l 192 686 q 227 604 192 638 q 325 560 263 571 l 574 517 q 742 442 682 497 q 801 303 801 388 l 801 214 q 724 51 801 113 q 519 -11 646 -11 l 360 -11 m 403 1310 l 479 1310 l 653 1085 l 558 1085 l 442 1240 l 325 1085 l 231 1085 l 403 1310 z "},"Ș":{"ha":871,"x_min":78,"x_max":801,"o":"m 360 -11 q 213 24 276 -11 q 113 124 149 60 q 78 274 78 189 l 178 274 q 228 134 178 188 q 363 81 279 81 l 517 81 q 649 117 599 81 q 699 214 699 154 l 699 303 q 662 383 699 350 q 561 426 625 417 l 311 468 q 147 543 206 486 q 89 686 89 600 l 89 761 q 165 923 89 863 q 365 983 240 983 l 522 983 q 713 912 640 983 q 785 724 785 840 l 685 724 q 640 846 685 800 q 522 892 596 892 l 365 892 q 239 856 286 892 q 192 761 192 821 l 192 686 q 227 604 192 638 q 325 560 263 571 l 574 517 q 742 442 682 497 q 801 303 801 388 l 801 214 q 724 51 801 113 q 519 -11 646 -11 l 360 -11 m 303 -311 l 324 -297 q 385 -233 365 -269 q 406 -147 406 -196 l 406 -104 l 506 -104 l 506 -147 q 476 -279 506 -225 q 386 -372 447 -333 l 360 -389 l 303 -311 z "},"Ṡ":{"ha":871,"x_min":78,"x_max":801,"o":"m 360 -11 q 213 24 276 -11 q 113 124 149 60 q 78 274 78 189 l 178 274 q 228 134 178 188 q 363 81 279 81 l 517 81 q 649 117 599 81 q 699 214 699 154 l 699 303 q 662 383 699 350 q 561 426 625 417 l 311 468 q 147 543 206 486 q 89 686 89 600 l 89 761 q 165 923 89 863 q 365 983 240 983 l 522 983 q 713 912 640 983 q 785 724 785 840 l 685 724 q 640 846 685 800 q 522 892 596 892 l 365 892 q 239 856 286 892 q 192 761 192 821 l 192 686 q 227 604 192 638 q 325 560 263 571 l 574 517 q 742 442 682 497 q 801 303 801 388 l 801 214 q 724 51 801 113 q 519 -11 646 -11 l 360 -11 m 442 1085 q 388 1106 408 1085 q 367 1160 367 1126 q 388 1214 367 1193 q 442 1235 408 1235 q 496 1214 475 1235 q 517 1160 517 1193 q 496 1106 517 1126 q 442 1085 475 1085 z "},"Ṣ":{"ha":871,"x_min":78,"x_max":801,"o":"m 360 -11 q 213 24 276 -11 q 113 124 149 60 q 78 274 78 189 l 178 274 q 228 134 178 188 q 363 81 279 81 l 517 81 q 649 117 599 81 q 699 214 699 154 l 699 303 q 662 383 699 350 q 561 426 625 417 l 311 468 q 147 543 206 486 q 89 686 89 600 l 89 761 q 165 923 89 863 q 365 983 240 983 l 522 983 q 713 912 640 983 q 785 724 785 840 l 685 724 q 640 846 685 800 q 522 892 596 892 l 365 892 q 239 856 286 892 q 192 761 192 821 l 192 686 q 227 604 192 638 q 325 560 263 571 l 574 517 q 742 442 682 497 q 801 303 801 388 l 801 214 q 724 51 801 113 q 519 -11 646 -11 l 360 -11 m 456 -249 q 401 -228 422 -249 q 381 -174 381 -207 q 401 -119 381 -140 q 456 -99 422 -99 q 510 -119 489 -99 q 531 -174 531 -140 q 510 -228 531 -207 q 456 -249 489 -249 z "},"ẞ":{"ha":907,"x_min":100,"x_max":849,"o":"m 554 -11 q 394 47 456 -11 q 333 197 333 104 l 431 197 q 465 110 431 143 q 554 78 499 78 l 624 78 q 715 119 681 78 q 749 231 749 161 l 749 272 q 724 375 749 338 q 642 432 699 413 l 463 490 l 463 558 l 656 883 l 385 883 q 249 833 297 883 q 200 700 200 783 l 200 0 l 100 0 l 100 700 q 176 898 100 824 q 385 972 251 972 l 767 972 l 767 890 l 564 549 l 697 503 q 849 272 849 450 l 849 231 q 787 55 849 121 q 624 -11 725 -11 l 554 -11 z "},"Ə":{"ha":983,"x_min":83,"x_max":900,"o":"m 561 983 q 738 940 661 983 q 858 819 815 897 q 900 638 900 740 l 900 354 q 858 163 900 246 q 738 35 815 81 q 561 -11 661 -11 l 403 -11 q 235 33 308 -11 q 123 158 163 78 q 83 344 83 239 l 83 500 l 797 500 l 797 638 q 733 822 797 751 q 561 892 668 892 l 414 892 q 251 831 313 892 q 190 668 190 769 l 88 668 q 128 833 88 761 q 243 944 169 904 q 414 983 317 983 l 561 983 m 561 81 q 732 156 667 81 q 797 354 797 231 l 797 411 l 186 411 l 186 344 q 246 153 186 225 q 403 81 306 81 l 561 81 z "},"T":{"ha":803,"x_min":42,"x_max":761,"o":"m 350 883 l 42 883 l 42 972 l 761 972 l 761 883 l 453 883 l 453 0 l 350 0 l 350 883 z "},"Ŧ":{"ha":803,"x_min":42,"x_max":761,"o":"m 453 883 l 453 501 l 669 501 l 669 418 l 453 418 l 453 0 l 350 0 l 350 418 l 122 418 l 122 501 l 350 501 l 350 883 l 42 883 l 42 972 l 761 972 l 761 883 l 453 883 z "},"Ť":{"ha":803,"x_min":42,"x_max":761,"o":"m 350 883 l 42 883 l 42 972 l 761 972 l 761 883 l 453 883 l 453 0 l 350 0 l 350 883 m 190 1310 l 285 1310 l 401 1154 l 518 1310 l 613 1310 l 439 1085 l 363 1085 l 190 1310 z "},"Ţ":{"ha":803,"x_min":42,"x_max":761,"o":"m 438 0 l 403 -75 l 413 -75 q 499 -104 467 -75 q 532 -181 532 -133 l 532 -196 q 492 -278 532 -247 q 386 -310 451 -310 l 310 -310 l 310 -243 l 383 -243 q 433 -230 414 -243 q 453 -196 453 -217 l 453 -181 q 435 -147 453 -160 q 390 -133 418 -133 l 325 -133 l 325 -72 l 356 0 l 350 0 l 350 883 l 42 883 l 42 972 l 761 972 l 761 883 l 453 883 l 453 0 l 438 0 z "},"Ț":{"ha":803,"x_min":42,"x_max":761,"o":"m 350 883 l 42 883 l 42 972 l 761 972 l 761 883 l 453 883 l 453 0 l 350 0 l 350 883 m 249 -311 l 269 -297 q 331 -233 311 -269 q 351 -147 351 -196 l 351 -104 l 451 -104 l 451 -147 q 422 -279 451 -225 q 332 -372 393 -333 l 306 -389 l 249 -311 z "},"Ṭ":{"ha":803,"x_min":42,"x_max":761,"o":"m 350 883 l 42 883 l 42 972 l 761 972 l 761 883 l 453 883 l 453 0 l 350 0 l 350 883 m 401 -249 q 347 -228 368 -249 q 326 -174 326 -207 q 347 -119 326 -140 q 401 -99 368 -99 q 456 -119 435 -99 q 476 -174 476 -140 q 456 -228 476 -207 q 401 -249 435 -249 z "},"Ṯ":{"ha":803,"x_min":42,"x_max":761,"o":"m 350 883 l 42 883 l 42 972 l 761 972 l 761 883 l 453 883 l 453 0 l 350 0 l 350 883 m 225 -103 l 579 -103 l 579 -175 l 225 -175 l 225 -103 z "},"U":{"ha":961,"x_min":106,"x_max":856,"o":"m 406 -11 q 249 28 317 -11 q 143 141 181 68 q 106 308 106 214 l 106 972 l 208 972 l 208 306 q 263 142 208 204 q 406 81 317 81 l 556 81 q 699 142 644 81 q 753 306 753 204 l 753 972 l 856 972 l 856 308 q 818 141 856 214 q 713 28 781 68 q 556 -11 644 -11 l 406 -11 z "},"Ú":{"ha":961,"x_min":106,"x_max":856,"o":"m 406 -11 q 249 28 317 -11 q 143 141 181 68 q 106 308 106 214 l 106 972 l 208 972 l 208 306 q 263 142 208 204 q 406 81 317 81 l 556 81 q 699 142 644 81 q 753 306 753 204 l 753 972 l 856 972 l 856 308 q 818 141 856 214 q 713 28 781 68 q 556 -11 644 -11 l 406 -11 m 553 1296 l 667 1296 l 529 1085 l 438 1085 l 553 1296 z "},"Ŭ":{"ha":961,"x_min":106,"x_max":856,"o":"m 406 -11 q 249 28 317 -11 q 143 141 181 68 q 106 308 106 214 l 106 972 l 208 972 l 208 306 q 263 142 208 204 q 406 81 317 81 l 556 81 q 699 142 644 81 q 753 306 753 204 l 753 972 l 856 972 l 856 308 q 818 141 856 214 q 713 28 781 68 q 556 -11 644 -11 l 406 -11 m 472 1074 q 333 1124 386 1074 q 279 1256 279 1174 l 279 1267 l 360 1267 l 360 1256 q 390 1174 360 1204 q 472 1143 421 1143 l 489 1143 q 572 1174 540 1143 q 603 1256 603 1204 l 603 1267 l 682 1267 l 682 1256 q 628 1124 682 1174 q 489 1074 575 1074 l 472 1074 z "},"Ǔ":{"ha":961,"x_min":106,"x_max":856,"o":"m 406 -11 q 249 28 317 -11 q 143 141 181 68 q 106 308 106 214 l 106 972 l 208 972 l 208 306 q 263 142 208 204 q 406 81 317 81 l 556 81 q 699 142 644 81 q 753 306 753 204 l 753 972 l 856 972 l 856 308 q 818 141 856 214 q 713 28 781 68 q 556 -11 644 -11 l 406 -11 m 269 1310 l 364 1310 l 481 1154 l 597 1310 l 692 1310 l 518 1085 l 442 1085 l 269 1310 z "},"Û":{"ha":961,"x_min":106,"x_max":856,"o":"m 406 -11 q 249 28 317 -11 q 143 141 181 68 q 106 308 106 214 l 106 972 l 208 972 l 208 306 q 263 142 208 204 q 406 81 317 81 l 556 81 q 699 142 644 81 q 753 306 753 204 l 753 972 l 856 972 l 856 308 q 818 141 856 214 q 713 28 781 68 q 556 -11 644 -11 l 406 -11 m 442 1310 l 518 1310 l 692 1085 l 597 1085 l 481 1240 l 364 1085 l 269 1085 l 442 1310 z "},"Ü":{"ha":961,"x_min":106,"x_max":856,"o":"m 406 -11 q 249 28 317 -11 q 143 141 181 68 q 106 308 106 214 l 106 972 l 208 972 l 208 306 q 263 142 208 204 q 406 81 317 81 l 556 81 q 699 142 644 81 q 753 306 753 204 l 753 972 l 856 972 l 856 308 q 818 141 856 214 q 713 28 781 68 q 556 -11 644 -11 l 406 -11 m 342 1085 q 292 1103 311 1085 q 274 1153 274 1122 q 292 1202 274 1183 q 342 1221 311 1221 q 391 1202 372 1221 q 410 1153 410 1183 q 391 1103 410 1122 q 342 1085 372 1085 m 618 1085 q 569 1103 588 1085 q 550 1153 550 1122 q 569 1202 550 1183 q 618 1221 588 1221 q 667 1202 649 1221 q 686 1153 686 1183 q 667 1103 686 1122 q 618 1085 649 1085 z "},"Ǘ":{"ha":961,"x_min":106,"x_max":856,"o":"m 406 -11 q 249 28 317 -11 q 143 141 181 68 q 106 308 106 214 l 106 972 l 208 972 l 208 306 q 263 142 208 204 q 406 81 317 81 l 556 81 q 699 142 644 81 q 753 306 753 204 l 753 972 l 856 972 l 856 308 q 818 141 856 214 q 713 28 781 68 q 556 -11 644 -11 l 406 -11 m 526 1446 l 624 1446 l 518 1285 l 438 1285 l 526 1446 m 342 1085 q 292 1103 311 1085 q 274 1153 274 1122 q 292 1202 274 1183 q 342 1221 311 1221 q 391 1202 372 1221 q 410 1153 410 1183 q 391 1103 410 1122 q 342 1085 372 1085 m 618 1085 q 569 1103 588 1085 q 550 1153 550 1122 q 569 1202 550 1183 q 618 1221 588 1221 q 667 1202 649 1221 q 686 1153 686 1183 q 667 1103 686 1122 q 618 1085 649 1085 z "},"Ǚ":{"ha":961,"x_min":106,"x_max":856,"o":"m 406 -11 q 249 28 317 -11 q 143 141 181 68 q 106 308 106 214 l 106 972 l 208 972 l 208 306 q 263 142 208 204 q 406 81 317 81 l 556 81 q 699 142 644 81 q 753 306 753 204 l 753 972 l 856 972 l 856 308 q 818 141 856 214 q 713 28 781 68 q 556 -11 644 -11 l 406 -11 m 301 1472 l 386 1472 l 481 1346 l 575 1472 l 660 1472 l 515 1285 l 446 1285 l 301 1472 m 342 1085 q 292 1103 311 1085 q 274 1153 274 1122 q 292 1202 274 1183 q 342 1221 311 1221 q 391 1202 372 1221 q 410 1153 410 1183 q 391 1103 410 1122 q 342 1085 372 1085 m 618 1085 q 569 1103 588 1085 q 550 1153 550 1122 q 569 1202 550 1183 q 618 1221 588 1221 q 667 1202 649 1221 q 686 1153 686 1183 q 667 1103 686 1122 q 618 1085 649 1085 z "},"Ǜ":{"ha":961,"x_min":106,"x_max":856,"o":"m 406 -11 q 249 28 317 -11 q 143 141 181 68 q 106 308 106 214 l 106 972 l 208 972 l 208 306 q 263 142 208 204 q 406 81 317 81 l 556 81 q 699 142 644 81 q 753 306 753 204 l 753 972 l 856 972 l 856 308 q 818 141 856 214 q 713 28 781 68 q 556 -11 644 -11 l 406 -11 m 329 1446 l 426 1446 l 515 1285 l 435 1285 l 329 1446 m 342 1085 q 292 1103 311 1085 q 274 1153 274 1122 q 292 1202 274 1183 q 342 1221 311 1221 q 391 1202 372 1221 q 410 1153 410 1183 q 391 1103 410 1122 q 342 1085 372 1085 m 618 1085 q 569 1103 588 1085 q 550 1153 550 1122 q 569 1202 550 1183 q 618 1221 588 1221 q 667 1202 649 1221 q 686 1153 686 1183 q 667 1103 686 1122 q 618 1085 649 1085 z "},"Ǖ":{"ha":961,"x_min":106,"x_max":856,"o":"m 406 -11 q 249 28 317 -11 q 143 141 181 68 q 106 308 106 214 l 106 972 l 208 972 l 208 306 q 263 142 208 204 q 406 81 317 81 l 556 81 q 699 142 644 81 q 753 306 753 204 l 753 972 l 856 972 l 856 308 q 818 141 856 214 q 713 28 781 68 q 556 -11 644 -11 l 406 -11 m 304 1371 l 658 1371 l 658 1299 l 304 1299 l 304 1371 m 342 1085 q 292 1103 311 1085 q 274 1153 274 1122 q 292 1202 274 1183 q 342 1221 311 1221 q 391 1202 372 1221 q 410 1153 410 1183 q 391 1103 410 1122 q 342 1085 372 1085 m 618 1085 q 569 1103 588 1085 q 550 1153 550 1122 q 569 1202 550 1183 q 618 1221 588 1221 q 667 1202 649 1221 q 686 1153 686 1183 q 667 1103 686 1122 q 618 1085 649 1085 z "},"Ụ":{"ha":961,"x_min":106,"x_max":856,"o":"m 406 -11 q 249 28 317 -11 q 143 141 181 68 q 106 308 106 214 l 106 972 l 208 972 l 208 306 q 263 142 208 204 q 406 81 317 81 l 556 81 q 699 142 644 81 q 753 306 753 204 l 753 972 l 856 972 l 856 308 q 818 141 856 214 q 713 28 781 68 q 556 -11 644 -11 l 406 -11 m 481 -249 q 426 -228 447 -249 q 406 -174 406 -207 q 426 -119 406 -140 q 481 -99 447 -99 q 535 -119 514 -99 q 556 -174 556 -140 q 535 -228 556 -207 q 481 -249 514 -249 z "},"Ù":{"ha":961,"x_min":106,"x_max":856,"o":"m 406 -11 q 249 28 317 -11 q 143 141 181 68 q 106 308 106 214 l 106 972 l 208 972 l 208 306 q 263 142 208 204 q 406 81 317 81 l 556 81 q 699 142 644 81 q 753 306 753 204 l 753 972 l 856 972 l 856 308 q 818 141 856 214 q 713 28 781 68 q 556 -11 644 -11 l 406 -11 m 299 1296 l 413 1296 l 528 1085 l 436 1085 l 299 1296 z "},"Ủ":{"ha":961,"x_min":106,"x_max":856,"o":"m 406 -11 q 249 28 317 -11 q 143 141 181 68 q 106 308 106 214 l 106 972 l 208 972 l 208 306 q 263 142 208 204 q 406 81 317 81 l 556 81 q 699 142 644 81 q 753 306 753 204 l 753 972 l 856 972 l 856 308 q 818 141 856 214 q 713 28 781 68 q 556 -11 644 -11 l 406 -11 m 432 1088 q 449 1136 432 1117 q 499 1176 467 1156 q 534 1204 522 1193 q 546 1231 546 1215 l 546 1246 q 496 1292 546 1292 l 468 1292 q 410 1233 410 1292 l 329 1233 q 468 1364 329 1364 l 496 1364 q 595 1334 561 1364 q 629 1246 629 1304 l 629 1231 q 611 1178 629 1199 q 560 1133 593 1157 q 528 1109 539 1119 q 518 1088 518 1099 l 518 1065 l 432 1065 l 432 1088 z "},"Ư":{"ha":1064,"x_min":106,"x_max":1068,"o":"m 1068 972 l 1068 956 q 1013 778 1068 842 q 858 715 957 715 l 856 715 l 856 308 q 818 141 856 214 q 713 28 781 68 q 556 -11 644 -11 l 406 -11 q 249 28 317 -11 q 143 141 181 68 q 106 308 106 214 l 106 972 l 208 972 l 208 306 q 263 142 208 204 q 406 81 317 81 l 556 81 q 699 142 644 81 q 753 306 753 204 l 753 972 l 856 972 l 856 799 l 861 799 q 945 839 917 799 q 974 956 974 879 l 974 972 l 1068 972 z "},"Ứ":{"ha":1064,"x_min":106,"x_max":1068,"o":"m 1068 972 l 1068 956 q 1013 778 1068 842 q 858 715 957 715 l 856 715 l 856 308 q 818 141 856 214 q 713 28 781 68 q 556 -11 644 -11 l 406 -11 q 249 28 317 -11 q 143 141 181 68 q 106 308 106 214 l 106 972 l 208 972 l 208 306 q 263 142 208 204 q 406 81 317 81 l 556 81 q 699 142 644 81 q 753 306 753 204 l 753 972 l 856 972 l 856 799 l 861 799 q 945 839 917 799 q 974 956 974 879 l 974 972 l 1068 972 m 553 1296 l 667 1296 l 529 1085 l 438 1085 l 553 1296 z "},"Ự":{"ha":1064,"x_min":106,"x_max":1068,"o":"m 1068 972 l 1068 956 q 1013 778 1068 842 q 858 715 957 715 l 856 715 l 856 308 q 818 141 856 214 q 713 28 781 68 q 556 -11 644 -11 l 406 -11 q 249 28 317 -11 q 143 141 181 68 q 106 308 106 214 l 106 972 l 208 972 l 208 306 q 263 142 208 204 q 406 81 317 81 l 556 81 q 699 142 644 81 q 753 306 753 204 l 753 972 l 856 972 l 856 799 l 861 799 q 945 839 917 799 q 974 956 974 879 l 974 972 l 1068 972 m 481 -249 q 426 -228 447 -249 q 406 -174 406 -207 q 426 -119 406 -140 q 481 -99 447 -99 q 535 -119 514 -99 q 556 -174 556 -140 q 535 -228 556 -207 q 481 -249 514 -249 z "},"Ừ":{"ha":1064,"x_min":106,"x_max":1068,"o":"m 1068 972 l 1068 956 q 1013 778 1068 842 q 858 715 957 715 l 856 715 l 856 308 q 818 141 856 214 q 713 28 781 68 q 556 -11 644 -11 l 406 -11 q 249 28 317 -11 q 143 141 181 68 q 106 308 106 214 l 106 972 l 208 972 l 208 306 q 263 142 208 204 q 406 81 317 81 l 556 81 q 699 142 644 81 q 753 306 753 204 l 753 972 l 856 972 l 856 799 l 861 799 q 945 839 917 799 q 974 956 974 879 l 974 972 l 1068 972 m 299 1296 l 413 1296 l 528 1085 l 436 1085 l 299 1296 z "},"Ử":{"ha":1064,"x_min":106,"x_max":1068,"o":"m 1068 972 l 1068 956 q 1013 778 1068 842 q 858 715 957 715 l 856 715 l 856 308 q 818 141 856 214 q 713 28 781 68 q 556 -11 644 -11 l 406 -11 q 249 28 317 -11 q 143 141 181 68 q 106 308 106 214 l 106 972 l 208 972 l 208 306 q 263 142 208 204 q 406 81 317 81 l 556 81 q 699 142 644 81 q 753 306 753 204 l 753 972 l 856 972 l 856 799 l 861 799 q 945 839 917 799 q 974 956 974 879 l 974 972 l 1068 972 m 432 1088 q 449 1136 432 1117 q 499 1176 467 1156 q 534 1204 522 1193 q 546 1231 546 1215 l 546 1246 q 496 1292 546 1292 l 468 1292 q 410 1233 410 1292 l 329 1233 q 468 1364 329 1364 l 496 1364 q 595 1334 561 1364 q 629 1246 629 1304 l 629 1231 q 611 1178 629 1199 q 560 1133 593 1157 q 528 1109 539 1119 q 518 1088 518 1099 l 518 1065 l 432 1065 l 432 1088 z "},"Ữ":{"ha":1064,"x_min":106,"x_max":1068,"o":"m 1068 972 l 1068 956 q 1013 778 1068 842 q 858 715 957 715 l 856 715 l 856 308 q 818 141 856 214 q 713 28 781 68 q 556 -11 644 -11 l 406 -11 q 249 28 317 -11 q 143 141 181 68 q 106 308 106 214 l 106 972 l 208 972 l 208 306 q 263 142 208 204 q 406 81 317 81 l 556 81 q 699 142 644 81 q 753 306 753 204 l 753 972 l 856 972 l 856 799 l 861 799 q 945 839 917 799 q 974 956 974 879 l 974 972 l 1068 972 m 564 1074 q 509 1088 532 1074 q 461 1129 486 1103 q 428 1158 439 1150 q 401 1167 417 1167 l 388 1167 q 351 1147 367 1167 q 335 1096 336 1128 l 257 1096 q 295 1197 258 1158 q 388 1236 332 1236 l 401 1236 q 460 1221 436 1236 q 513 1178 485 1206 q 540 1151 529 1160 q 564 1143 551 1143 l 578 1143 q 612 1163 597 1143 q 628 1214 626 1182 l 706 1214 q 668 1113 704 1151 q 578 1074 632 1074 l 564 1074 z "},"Ű":{"ha":961,"x_min":106,"x_max":856,"o":"m 406 -11 q 249 28 317 -11 q 143 141 181 68 q 106 308 106 214 l 106 972 l 208 972 l 208 306 q 263 142 208 204 q 406 81 317 81 l 556 81 q 699 142 644 81 q 753 306 753 204 l 753 972 l 856 972 l 856 308 q 818 141 856 214 q 713 28 781 68 q 556 -11 644 -11 l 406 -11 m 444 1296 l 553 1296 l 421 1085 l 335 1085 l 444 1296 m 624 1296 l 732 1296 l 600 1085 l 514 1085 l 624 1296 z "},"Ū":{"ha":961,"x_min":106,"x_max":856,"o":"m 406 -11 q 249 28 317 -11 q 143 141 181 68 q 106 308 106 214 l 106 972 l 208 972 l 208 306 q 263 142 208 204 q 406 81 317 81 l 556 81 q 699 142 644 81 q 753 306 753 204 l 753 972 l 856 972 l 856 308 q 818 141 856 214 q 713 28 781 68 q 556 -11 644 -11 l 406 -11 m 304 1171 l 658 1171 l 658 1099 l 304 1099 l 304 1171 z "},"Ų":{"ha":961,"x_min":106,"x_max":856,"o":"m 856 972 l 856 308 q 797 106 856 189 q 638 -1 739 24 q 572 -60 596 -24 q 547 -137 547 -96 l 547 -151 q 565 -197 547 -179 q 614 -215 582 -215 l 628 -215 q 667 -208 646 -215 q 706 -187 689 -200 l 706 -265 q 667 -283 692 -276 q 621 -290 643 -290 l 607 -290 q 501 -254 540 -290 q 461 -157 461 -218 l 461 -143 q 479 -70 461 -106 q 528 -11 497 -35 l 406 -11 q 249 28 317 -11 q 143 141 181 68 q 106 308 106 214 l 106 972 l 208 972 l 208 306 q 263 142 208 204 q 406 81 317 81 l 556 81 q 699 142 644 81 q 753 306 753 204 l 753 972 l 856 972 z "},"Ů":{"ha":961,"x_min":106,"x_max":856,"o":"m 406 -11 q 249 28 317 -11 q 143 141 181 68 q 106 308 106 214 l 106 972 l 208 972 l 208 306 q 263 142 208 204 q 406 81 317 81 l 556 81 q 699 142 644 81 q 753 306 753 204 l 753 972 l 856 972 l 856 308 q 818 141 856 214 q 713 28 781 68 q 556 -11 644 -11 l 406 -11 m 481 1032 q 374 1072 415 1032 q 333 1175 333 1111 q 374 1278 333 1239 q 481 1318 415 1318 q 587 1278 546 1318 q 628 1175 628 1239 q 587 1072 628 1111 q 481 1032 546 1032 m 481 1099 q 538 1119 517 1099 q 558 1175 558 1140 q 538 1231 558 1210 q 481 1251 517 1251 q 424 1231 444 1251 q 403 1175 403 1210 q 424 1119 403 1140 q 481 1099 444 1099 z "},"Ũ":{"ha":961,"x_min":106,"x_max":856,"o":"m 406 -11 q 249 28 317 -11 q 143 141 181 68 q 106 308 106 214 l 106 972 l 208 972 l 208 306 q 263 142 208 204 q 406 81 317 81 l 556 81 q 699 142 644 81 q 753 306 753 204 l 753 972 l 856 972 l 856 308 q 818 141 856 214 q 713 28 781 68 q 556 -11 644 -11 l 406 -11 m 564 1074 q 509 1088 532 1074 q 461 1129 486 1103 q 428 1158 439 1150 q 401 1167 417 1167 l 388 1167 q 351 1147 367 1167 q 335 1096 336 1128 l 257 1096 q 295 1197 258 1158 q 388 1236 332 1236 l 401 1236 q 460 1221 436 1236 q 513 1178 485 1206 q 540 1151 529 1160 q 564 1143 551 1143 l 578 1143 q 612 1163 597 1143 q 628 1214 626 1182 l 706 1214 q 668 1113 704 1151 q 578 1074 632 1074 l 564 1074 z "},"V":{"ha":881,"x_min":31,"x_max":850,"o":"m 436 0 q 392 15 410 0 q 363 64 375 31 l 31 972 l 136 972 l 439 124 l 440 124 l 744 972 l 850 972 l 489 0 l 436 0 z "},"W":{"ha":1172,"x_min":47,"x_max":1125,"o":"m 304 0 q 243 22 265 0 q 213 90 221 43 l 47 972 l 149 972 l 300 133 l 301 133 l 546 921 l 589 921 q 629 906 614 921 q 654 861 644 892 l 871 133 l 872 133 l 1024 972 l 1125 972 l 960 90 q 929 22 951 43 q 868 0 907 0 l 826 0 l 590 783 l 589 783 l 346 0 l 304 0 z "},"Ẃ":{"ha":1172,"x_min":47,"x_max":1125,"o":"m 304 0 q 243 22 265 0 q 213 90 221 43 l 47 972 l 149 972 l 300 133 l 301 133 l 546 921 l 589 921 q 629 906 614 921 q 654 861 644 892 l 871 133 l 872 133 l 1024 972 l 1125 972 l 960 90 q 929 22 951 43 q 868 0 907 0 l 826 0 l 590 783 l 589 783 l 346 0 l 304 0 m 658 1296 l 772 1296 l 635 1085 l 543 1085 l 658 1296 z "},"Ŵ":{"ha":1172,"x_min":47,"x_max":1125,"o":"m 304 0 q 243 22 265 0 q 213 90 221 43 l 47 972 l 149 972 l 300 133 l 301 133 l 546 921 l 589 921 q 629 906 614 921 q 654 861 644 892 l 871 133 l 872 133 l 1024 972 l 1125 972 l 960 90 q 929 22 951 43 q 868 0 907 0 l 826 0 l 590 783 l 589 783 l 346 0 l 304 0 m 547 1310 l 624 1310 l 797 1085 l 703 1085 l 586 1240 l 469 1085 l 375 1085 l 547 1310 z "},"Ẅ":{"ha":1172,"x_min":47,"x_max":1125,"o":"m 304 0 q 243 22 265 0 q 213 90 221 43 l 47 972 l 149 972 l 300 133 l 301 133 l 546 921 l 589 921 q 629 906 614 921 q 654 861 644 892 l 871 133 l 872 133 l 1024 972 l 1125 972 l 960 90 q 929 22 951 43 q 868 0 907 0 l 826 0 l 590 783 l 589 783 l 346 0 l 304 0 m 447 1085 q 398 1103 417 1085 q 379 1153 379 1122 q 398 1202 379 1183 q 447 1221 417 1221 q 497 1202 478 1221 q 515 1153 515 1183 q 497 1103 515 1122 q 447 1085 478 1085 m 724 1085 q 674 1103 693 1085 q 656 1153 656 1122 q 674 1202 656 1183 q 724 1221 693 1221 q 773 1202 754 1221 q 792 1153 792 1183 q 773 1103 792 1122 q 724 1085 754 1085 z "},"Ẁ":{"ha":1172,"x_min":47,"x_max":1125,"o":"m 304 0 q 243 22 265 0 q 213 90 221 43 l 47 972 l 149 972 l 300 133 l 301 133 l 546 921 l 589 921 q 629 906 614 921 q 654 861 644 892 l 871 133 l 872 133 l 1024 972 l 1125 972 l 960 90 q 929 22 951 43 q 868 0 907 0 l 826 0 l 590 783 l 589 783 l 346 0 l 304 0 m 404 1296 l 518 1296 l 633 1085 l 542 1085 l 404 1296 z "},"X":{"ha":849,"x_min":22,"x_max":826,"o":"m 367 496 l 36 972 l 151 972 l 425 581 l 699 972 l 813 972 l 482 496 l 826 0 l 711 0 l 425 413 l 138 0 l 22 0 l 367 496 z "},"Y":{"ha":864,"x_min":22,"x_max":842,"o":"m 381 374 l 22 972 l 133 972 l 432 467 l 731 972 l 842 972 l 483 374 l 483 0 l 381 0 l 381 374 z "},"Ý":{"ha":864,"x_min":22,"x_max":842,"o":"m 381 374 l 22 972 l 133 972 l 432 467 l 731 972 l 842 972 l 483 374 l 483 0 l 381 0 l 381 374 m 504 1296 l 618 1296 l 481 1085 l 389 1085 l 504 1296 z "},"Ŷ":{"ha":864,"x_min":22,"x_max":842,"o":"m 381 374 l 22 972 l 133 972 l 432 467 l 731 972 l 842 972 l 483 374 l 483 0 l 381 0 l 381 374 m 393 1310 l 469 1310 l 643 1085 l 549 1085 l 432 1240 l 315 1085 l 221 1085 l 393 1310 z "},"Ÿ":{"ha":864,"x_min":22,"x_max":842,"o":"m 381 374 l 22 972 l 133 972 l 432 467 l 731 972 l 842 972 l 483 374 l 483 0 l 381 0 l 381 374 m 293 1085 q 244 1103 263 1085 q 225 1153 225 1122 q 244 1202 225 1183 q 293 1221 263 1221 q 342 1202 324 1221 q 361 1153 361 1183 q 342 1103 361 1122 q 293 1085 324 1085 m 569 1085 q 520 1103 539 1085 q 501 1153 501 1122 q 520 1202 501 1183 q 569 1221 539 1221 q 619 1202 600 1221 q 638 1153 638 1183 q 619 1103 638 1122 q 569 1085 600 1085 z "},"Ẏ":{"ha":864,"x_min":22,"x_max":842,"o":"m 381 374 l 22 972 l 133 972 l 432 467 l 731 972 l 842 972 l 483 374 l 483 0 l 381 0 l 381 374 m 432 1085 q 378 1106 399 1085 q 357 1160 357 1126 q 378 1214 357 1193 q 432 1235 399 1235 q 486 1214 465 1235 q 507 1160 507 1193 q 486 1106 507 1126 q 432 1085 465 1085 z "},"Ỵ":{"ha":864,"x_min":22,"x_max":842,"o":"m 381 374 l 22 972 l 133 972 l 432 467 l 731 972 l 842 972 l 483 374 l 483 0 l 381 0 l 381 374 m 432 -249 q 378 -228 399 -249 q 357 -174 357 -207 q 378 -119 357 -140 q 432 -99 399 -99 q 486 -119 465 -99 q 507 -174 507 -140 q 486 -228 507 -207 q 432 -249 465 -249 z "},"Ỳ":{"ha":864,"x_min":22,"x_max":842,"o":"m 381 374 l 22 972 l 133 972 l 432 467 l 731 972 l 842 972 l 483 374 l 483 0 l 381 0 l 381 374 m 250 1296 l 364 1296 l 479 1085 l 388 1085 l 250 1296 z "},"Ỷ":{"ha":864,"x_min":22,"x_max":842,"o":"m 381 374 l 22 972 l 133 972 l 432 467 l 731 972 l 842 972 l 483 374 l 483 0 l 381 0 l 381 374 m 383 1088 q 401 1136 383 1117 q 450 1176 418 1156 q 485 1204 474 1193 q 497 1231 497 1215 l 497 1246 q 447 1292 497 1292 l 419 1292 q 361 1233 361 1292 l 281 1233 q 419 1364 281 1364 l 447 1364 q 547 1334 513 1364 q 581 1246 581 1304 l 581 1231 q 563 1178 581 1199 q 511 1133 544 1157 q 480 1109 490 1119 q 469 1088 469 1099 l 469 1065 l 383 1065 l 383 1088 z "},"Ỹ":{"ha":864,"x_min":22,"x_max":842,"o":"m 381 374 l 22 972 l 133 972 l 432 467 l 731 972 l 842 972 l 483 374 l 483 0 l 381 0 l 381 374 m 515 1074 q 460 1088 483 1074 q 413 1129 438 1103 q 379 1158 390 1150 q 353 1167 368 1167 l 339 1167 q 303 1147 318 1167 q 286 1096 288 1128 l 208 1096 q 247 1197 210 1158 q 339 1236 283 1236 l 353 1236 q 412 1221 388 1236 q 464 1178 436 1206 q 492 1151 481 1160 q 515 1143 503 1143 l 529 1143 q 563 1163 549 1143 q 579 1214 578 1182 l 657 1214 q 619 1113 656 1151 q 529 1074 583 1074 l 515 1074 z "},"Z":{"ha":803,"x_min":56,"x_max":747,"o":"m 56 46 l 606 885 l 81 885 l 81 972 l 747 972 l 747 926 l 197 88 l 733 88 l 733 0 l 56 0 l 56 46 z "},"Ź":{"ha":803,"x_min":56,"x_max":747,"o":"m 56 46 l 606 885 l 81 885 l 81 972 l 747 972 l 747 926 l 197 88 l 733 88 l 733 0 l 56 0 l 56 46 m 474 1296 l 588 1296 l 450 1085 l 358 1085 l 474 1296 z "},"Ž":{"ha":803,"x_min":56,"x_max":747,"o":"m 56 46 l 606 885 l 81 885 l 81 972 l 747 972 l 747 926 l 197 88 l 733 88 l 733 0 l 56 0 l 56 46 m 190 1310 l 285 1310 l 401 1154 l 518 1310 l 613 1310 l 439 1085 l 363 1085 l 190 1310 z "},"Ż":{"ha":803,"x_min":56,"x_max":747,"o":"m 56 46 l 606 885 l 81 885 l 81 972 l 747 972 l 747 926 l 197 88 l 733 88 l 733 0 l 56 0 l 56 46 m 401 1085 q 347 1106 368 1085 q 326 1160 326 1126 q 347 1214 326 1193 q 401 1235 368 1235 q 456 1214 435 1235 q 476 1160 476 1193 q 456 1106 476 1126 q 401 1085 435 1085 z "},"Ẓ":{"ha":803,"x_min":56,"x_max":747,"o":"m 56 46 l 606 885 l 81 885 l 81 972 l 747 972 l 747 926 l 197 88 l 733 88 l 733 0 l 56 0 l 56 46 m 401 -249 q 347 -228 368 -249 q 326 -174 326 -207 q 347 -119 326 -140 q 401 -99 368 -99 q 456 -119 435 -99 q 476 -174 476 -140 q 456 -228 476 -207 q 401 -249 435 -249 z "},"a":{"ha":772,"x_min":83,"x_max":675,"o":"m 306 -11 q 144 42 204 -11 q 83 183 83 94 l 83 228 q 146 368 83 315 q 311 421 208 421 l 400 421 q 494 407 446 421 q 578 369 543 393 l 578 485 q 542 580 578 543 q 446 617 506 617 l 335 617 q 239 589 275 617 q 203 515 203 561 l 103 515 q 167 652 103 600 q 335 704 231 704 l 446 704 q 612 644 549 704 q 675 485 675 583 l 675 0 l 581 0 l 581 97 q 497 18 549 47 q 389 -11 444 -11 l 306 -11 m 392 76 q 508 117 457 76 q 578 224 560 157 l 578 275 q 501 317 550 301 q 400 333 451 333 l 311 333 q 219 304 254 333 q 183 228 183 275 l 183 183 q 217 106 183 135 q 306 76 250 76 l 392 76 z "},"á":{"ha":772,"x_min":83,"x_max":675,"o":"m 306 -11 q 144 42 204 -11 q 83 183 83 94 l 83 228 q 146 368 83 315 q 311 421 208 421 l 400 421 q 494 407 446 421 q 578 369 543 393 l 578 485 q 542 580 578 543 q 446 617 506 617 l 335 617 q 239 589 275 617 q 203 515 203 561 l 103 515 q 167 652 103 600 q 335 704 231 704 l 446 704 q 612 644 549 704 q 675 485 675 583 l 675 0 l 581 0 l 581 97 q 497 18 549 47 q 389 -11 444 -11 l 306 -11 m 392 76 q 508 117 457 76 q 578 224 560 157 l 578 275 q 501 317 550 301 q 400 333 451 333 l 311 333 q 219 304 254 333 q 183 228 183 275 l 183 183 q 217 106 183 135 q 306 76 250 76 l 392 76 m 465 1017 l 579 1017 l 442 806 l 350 806 l 465 1017 z "},"ă":{"ha":772,"x_min":83,"x_max":675,"o":"m 306 -11 q 144 42 204 -11 q 83 183 83 94 l 83 228 q 146 368 83 315 q 311 421 208 421 l 400 421 q 494 407 446 421 q 578 369 543 393 l 578 485 q 542 580 578 543 q 446 617 506 617 l 335 617 q 239 589 275 617 q 203 515 203 561 l 103 515 q 167 652 103 600 q 335 704 231 704 l 446 704 q 612 644 549 704 q 675 485 675 583 l 675 0 l 581 0 l 581 97 q 497 18 549 47 q 389 -11 444 -11 l 306 -11 m 392 76 q 508 117 457 76 q 578 224 560 157 l 578 275 q 501 317 550 301 q 400 333 451 333 l 311 333 q 219 304 254 333 q 183 228 183 275 l 183 183 q 217 106 183 135 q 306 76 250 76 l 392 76 m 385 794 q 245 844 299 794 q 192 976 192 894 l 192 988 l 272 988 l 272 976 q 303 894 272 925 q 385 864 333 864 l 401 864 q 484 894 453 864 q 515 976 515 925 l 515 988 l 594 988 l 594 976 q 541 844 594 894 q 401 794 488 794 l 385 794 z "},"ắ":{"ha":772,"x_min":83,"x_max":675,"o":"m 306 -11 q 144 42 204 -11 q 83 183 83 94 l 83 228 q 146 368 83 315 q 311 421 208 421 l 400 421 q 494 407 446 421 q 578 369 543 393 l 578 485 q 542 580 578 543 q 446 617 506 617 l 335 617 q 239 589 275 617 q 203 515 203 561 l 103 515 q 167 652 103 600 q 335 704 231 704 l 446 704 q 612 644 549 704 q 675 485 675 583 l 675 0 l 581 0 l 581 97 q 497 18 549 47 q 389 -11 444 -11 l 306 -11 m 392 76 q 508 117 457 76 q 578 224 560 157 l 578 275 q 501 317 550 301 q 400 333 451 333 l 311 333 q 219 304 254 333 q 183 228 183 275 l 183 183 q 217 106 183 135 q 306 76 250 76 l 392 76 m 439 1218 l 536 1218 l 431 1057 l 350 1057 l 439 1218 m 385 794 q 245 844 299 794 q 192 976 192 894 l 192 988 l 272 988 l 272 976 q 303 894 272 925 q 385 864 333 864 l 401 864 q 484 894 453 864 q 515 976 515 925 l 515 988 l 594 988 l 594 976 q 541 844 594 894 q 401 794 488 794 l 385 794 z "},"ặ":{"ha":772,"x_min":83,"x_max":675,"o":"m 306 -11 q 144 42 204 -11 q 83 183 83 94 l 83 228 q 146 368 83 315 q 311 421 208 421 l 400 421 q 494 407 446 421 q 578 369 543 393 l 578 485 q 542 580 578 543 q 446 617 506 617 l 335 617 q 239 589 275 617 q 203 515 203 561 l 103 515 q 167 652 103 600 q 335 704 231 704 l 446 704 q 612 644 549 704 q 675 485 675 583 l 675 0 l 581 0 l 581 97 q 497 18 549 47 q 389 -11 444 -11 l 306 -11 m 392 76 q 508 117 457 76 q 578 224 560 157 l 578 275 q 501 317 550 301 q 400 333 451 333 l 311 333 q 219 304 254 333 q 183 228 183 275 l 183 183 q 217 106 183 135 q 306 76 250 76 l 392 76 m 399 -260 q 344 -239 365 -260 q 324 -185 324 -218 q 344 -131 324 -151 q 399 -110 365 -110 q 453 -131 432 -110 q 474 -185 474 -151 q 453 -239 474 -218 q 399 -260 432 -260 m 385 794 q 245 844 299 794 q 192 976 192 894 l 192 988 l 272 988 l 272 976 q 303 894 272 925 q 385 864 333 864 l 401 864 q 484 894 453 864 q 515 976 515 925 l 515 988 l 594 988 l 594 976 q 541 844 594 894 q 401 794 488 794 l 385 794 z "},"ằ":{"ha":772,"x_min":83,"x_max":675,"o":"m 306 -11 q 144 42 204 -11 q 83 183 83 94 l 83 228 q 146 368 83 315 q 311 421 208 421 l 400 421 q 494 407 446 421 q 578 369 543 393 l 578 485 q 542 580 578 543 q 446 617 506 617 l 335 617 q 239 589 275 617 q 203 515 203 561 l 103 515 q 167 652 103 600 q 335 704 231 704 l 446 704 q 612 644 549 704 q 675 485 675 583 l 675 0 l 581 0 l 581 97 q 497 18 549 47 q 389 -11 444 -11 l 306 -11 m 392 76 q 508 117 457 76 q 578 224 560 157 l 578 275 q 501 317 550 301 q 400 333 451 333 l 311 333 q 219 304 254 333 q 183 228 183 275 l 183 183 q 217 106 183 135 q 306 76 250 76 l 392 76 m 250 1218 l 347 1218 l 436 1057 l 356 1057 l 250 1218 m 385 794 q 245 844 299 794 q 192 976 192 894 l 192 988 l 272 988 l 272 976 q 303 894 272 925 q 385 864 333 864 l 401 864 q 484 894 453 864 q 515 976 515 925 l 515 988 l 594 988 l 594 976 q 541 844 594 894 q 401 794 488 794 l 385 794 z "},"ẳ":{"ha":772,"x_min":83,"x_max":675,"o":"m 306 -11 q 144 42 204 -11 q 83 183 83 94 l 83 228 q 146 368 83 315 q 311 421 208 421 l 400 421 q 494 407 446 421 q 578 369 543 393 l 578 485 q 542 580 578 543 q 446 617 506 617 l 335 617 q 239 589 275 617 q 203 515 203 561 l 103 515 q 167 652 103 600 q 335 704 231 704 l 446 704 q 612 644 549 704 q 675 485 675 583 l 675 0 l 581 0 l 581 97 q 497 18 549 47 q 389 -11 444 -11 l 306 -11 m 392 76 q 508 117 457 76 q 578 224 560 157 l 578 275 q 501 317 550 301 q 400 333 451 333 l 311 333 q 219 304 254 333 q 183 228 183 275 l 183 183 q 217 106 183 135 q 306 76 250 76 l 392 76 m 356 1040 q 370 1080 356 1064 q 411 1113 385 1096 q 440 1135 431 1126 q 450 1157 450 1144 l 450 1169 q 439 1197 450 1188 q 408 1207 428 1207 l 386 1207 q 338 1160 338 1207 l 271 1160 q 386 1268 271 1268 l 408 1268 q 519 1169 519 1268 l 519 1157 q 503 1113 519 1131 q 461 1078 488 1094 q 436 1058 444 1067 q 428 1040 428 1050 l 428 1029 l 356 1029 l 356 1040 m 385 794 q 245 844 299 794 q 192 976 192 894 l 192 988 l 272 988 l 272 976 q 303 894 272 925 q 385 864 333 864 l 401 864 q 484 894 453 864 q 515 976 515 925 l 515 988 l 594 988 l 594 976 q 541 844 594 894 q 401 794 488 794 l 385 794 z "},"ẵ":{"ha":772,"x_min":83,"x_max":675,"o":"m 306 -11 q 144 42 204 -11 q 83 183 83 94 l 83 228 q 146 368 83 315 q 311 421 208 421 l 400 421 q 494 407 446 421 q 578 369 543 393 l 578 485 q 542 580 578 543 q 446 617 506 617 l 335 617 q 239 589 275 617 q 203 515 203 561 l 103 515 q 167 652 103 600 q 335 704 231 704 l 446 704 q 612 644 549 704 q 675 485 675 583 l 675 0 l 581 0 l 581 97 q 497 18 549 47 q 389 -11 444 -11 l 306 -11 m 392 76 q 508 117 457 76 q 578 224 560 157 l 578 275 q 501 317 550 301 q 400 333 451 333 l 311 333 q 219 304 254 333 q 183 228 183 275 l 183 183 q 217 106 183 135 q 306 76 250 76 l 392 76 m 469 1046 q 422 1058 442 1046 q 379 1094 403 1071 q 350 1119 361 1111 q 326 1128 339 1128 l 314 1128 q 283 1110 296 1128 q 269 1065 271 1093 l 201 1065 q 234 1155 203 1121 q 314 1189 265 1189 l 326 1189 q 380 1175 358 1189 q 424 1138 401 1161 q 449 1114 440 1121 q 469 1107 458 1107 l 482 1107 q 510 1124 499 1107 q 524 1169 522 1142 l 592 1169 q 560 1080 590 1114 q 482 1046 529 1046 l 469 1046 m 385 794 q 245 844 299 794 q 192 976 192 894 l 192 988 l 272 988 l 272 976 q 303 894 272 925 q 385 864 333 864 l 401 864 q 484 894 453 864 q 515 976 515 925 l 515 988 l 594 988 l 594 976 q 541 844 594 894 q 401 794 488 794 l 385 794 z "},"ǎ":{"ha":772,"x_min":83,"x_max":675,"o":"m 306 -11 q 144 42 204 -11 q 83 183 83 94 l 83 228 q 146 368 83 315 q 311 421 208 421 l 400 421 q 494 407 446 421 q 578 369 543 393 l 578 485 q 542 580 578 543 q 446 617 506 617 l 335 617 q 239 589 275 617 q 203 515 203 561 l 103 515 q 167 652 103 600 q 335 704 231 704 l 446 704 q 612 644 549 704 q 675 485 675 583 l 675 0 l 581 0 l 581 97 q 497 18 549 47 q 389 -11 444 -11 l 306 -11 m 392 76 q 508 117 457 76 q 578 224 560 157 l 578 275 q 501 317 550 301 q 400 333 451 333 l 311 333 q 219 304 254 333 q 183 228 183 275 l 183 183 q 217 106 183 135 q 306 76 250 76 l 392 76 m 182 1031 l 276 1031 l 393 875 l 510 1031 l 604 1031 l 431 806 l 354 806 l 182 1031 z "},"â":{"ha":772,"x_min":83,"x_max":675,"o":"m 306 -11 q 144 42 204 -11 q 83 183 83 94 l 83 228 q 146 368 83 315 q 311 421 208 421 l 400 421 q 494 407 446 421 q 578 369 543 393 l 578 485 q 542 580 578 543 q 446 617 506 617 l 335 617 q 239 589 275 617 q 203 515 203 561 l 103 515 q 167 652 103 600 q 335 704 231 704 l 446 704 q 612 644 549 704 q 675 485 675 583 l 675 0 l 581 0 l 581 97 q 497 18 549 47 q 389 -11 444 -11 l 306 -11 m 392 76 q 508 117 457 76 q 578 224 560 157 l 578 275 q 501 317 550 301 q 400 333 451 333 l 311 333 q 219 304 254 333 q 183 228 183 275 l 183 183 q 217 106 183 135 q 306 76 250 76 l 392 76 m 354 1031 l 431 1031 l 604 806 l 510 806 l 393 961 l 276 806 l 182 806 l 354 1031 z "},"ấ":{"ha":772,"x_min":83,"x_max":729,"o":"m 306 -11 q 144 42 204 -11 q 83 183 83 94 l 83 228 q 146 368 83 315 q 311 421 208 421 l 400 421 q 494 407 446 421 q 578 369 543 393 l 578 485 q 542 580 578 543 q 446 617 506 617 l 335 617 q 239 589 275 617 q 203 515 203 561 l 103 515 q 167 652 103 600 q 335 704 231 704 l 446 704 q 612 644 549 704 q 675 485 675 583 l 675 0 l 581 0 l 581 97 q 497 18 549 47 q 389 -11 444 -11 l 306 -11 m 392 76 q 508 117 457 76 q 578 224 560 157 l 578 275 q 501 317 550 301 q 400 333 451 333 l 311 333 q 219 304 254 333 q 183 228 183 275 l 183 183 q 217 106 183 135 q 306 76 250 76 l 392 76 m 632 1178 l 729 1178 l 624 1017 l 543 1017 l 632 1178 m 354 1031 l 431 1031 l 604 806 l 510 806 l 393 961 l 276 806 l 182 806 l 354 1031 z "},"ậ":{"ha":772,"x_min":83,"x_max":675,"o":"m 306 -11 q 144 42 204 -11 q 83 183 83 94 l 83 228 q 146 368 83 315 q 311 421 208 421 l 400 421 q 494 407 446 421 q 578 369 543 393 l 578 485 q 542 580 578 543 q 446 617 506 617 l 335 617 q 239 589 275 617 q 203 515 203 561 l 103 515 q 167 652 103 600 q 335 704 231 704 l 446 704 q 612 644 549 704 q 675 485 675 583 l 675 0 l 581 0 l 581 97 q 497 18 549 47 q 389 -11 444 -11 l 306 -11 m 392 76 q 508 117 457 76 q 578 224 560 157 l 578 275 q 501 317 550 301 q 400 333 451 333 l 311 333 q 219 304 254 333 q 183 228 183 275 l 183 183 q 217 106 183 135 q 306 76 250 76 l 392 76 m 399 -260 q 344 -239 365 -260 q 324 -185 324 -218 q 344 -131 324 -151 q 399 -110 365 -110 q 453 -131 432 -110 q 474 -185 474 -151 q 453 -239 474 -218 q 399 -260 432 -260 m 354 1031 l 431 1031 l 604 806 l 510 806 l 393 961 l 276 806 l 182 806 l 354 1031 z "},"ầ":{"ha":772,"x_min":83,"x_max":675,"o":"m 306 -11 q 144 42 204 -11 q 83 183 83 94 l 83 228 q 146 368 83 315 q 311 421 208 421 l 400 421 q 494 407 446 421 q 578 369 543 393 l 578 485 q 542 580 578 543 q 446 617 506 617 l 335 617 q 239 589 275 617 q 203 515 203 561 l 103 515 q 167 652 103 600 q 335 704 231 704 l 446 704 q 612 644 549 704 q 675 485 675 583 l 675 0 l 581 0 l 581 97 q 497 18 549 47 q 389 -11 444 -11 l 306 -11 m 392 76 q 508 117 457 76 q 578 224 560 157 l 578 275 q 501 317 550 301 q 400 333 451 333 l 311 333 q 219 304 254 333 q 183 228 183 275 l 183 183 q 217 106 183 135 q 306 76 250 76 l 392 76 m 474 1178 l 571 1178 l 660 1017 l 579 1017 l 474 1178 m 354 1031 l 431 1031 l 604 806 l 510 806 l 393 961 l 276 806 l 182 806 l 354 1031 z "},"ẩ":{"ha":772,"x_min":83,"x_max":711,"o":"m 306 -11 q 144 42 204 -11 q 83 183 83 94 l 83 228 q 146 368 83 315 q 311 421 208 421 l 400 421 q 494 407 446 421 q 578 369 543 393 l 578 485 q 542 580 578 543 q 446 617 506 617 l 335 617 q 239 589 275 617 q 203 515 203 561 l 103 515 q 167 652 103 600 q 335 704 231 704 l 446 704 q 612 644 549 704 q 675 485 675 583 l 675 0 l 581 0 l 581 97 q 497 18 549 47 q 389 -11 444 -11 l 306 -11 m 392 76 q 508 117 457 76 q 578 224 560 157 l 578 275 q 501 317 550 301 q 400 333 451 333 l 311 333 q 219 304 254 333 q 183 228 183 275 l 183 183 q 217 106 183 135 q 306 76 250 76 l 392 76 m 547 1014 q 562 1053 547 1038 q 603 1086 576 1069 q 632 1109 622 1100 q 642 1131 642 1118 l 642 1143 q 631 1171 642 1161 q 600 1181 619 1181 l 578 1181 q 529 1133 529 1181 l 463 1133 q 578 1242 463 1242 l 600 1242 q 711 1143 711 1242 l 711 1131 q 695 1086 711 1104 q 653 1051 679 1068 q 628 1032 636 1040 q 619 1014 619 1024 l 619 1003 l 547 1003 l 547 1014 m 354 1031 l 431 1031 l 604 806 l 510 806 l 393 961 l 276 806 l 182 806 l 354 1031 z "},"ẫ":{"ha":772,"x_min":83,"x_max":675,"o":"m 306 -11 q 144 42 204 -11 q 83 183 83 94 l 83 228 q 146 368 83 315 q 311 421 208 421 l 400 421 q 494 407 446 421 q 578 369 543 393 l 578 485 q 542 580 578 543 q 446 617 506 617 l 335 617 q 239 589 275 617 q 203 515 203 561 l 103 515 q 167 652 103 600 q 335 704 231 704 l 446 704 q 612 644 549 704 q 675 485 675 583 l 675 0 l 581 0 l 581 97 q 497 18 549 47 q 389 -11 444 -11 l 306 -11 m 392 76 q 508 117 457 76 q 578 224 560 157 l 578 275 q 501 317 550 301 q 400 333 451 333 l 311 333 q 219 304 254 333 q 183 228 183 275 l 183 183 q 217 106 183 135 q 306 76 250 76 l 392 76 m 469 1079 q 422 1092 442 1079 q 379 1128 403 1104 q 350 1153 361 1146 q 326 1161 339 1161 l 314 1161 q 283 1144 296 1161 q 269 1099 271 1126 l 201 1099 q 234 1188 203 1154 q 314 1222 265 1222 l 326 1222 q 380 1208 358 1222 q 424 1171 401 1194 q 449 1147 440 1154 q 469 1140 458 1140 l 482 1140 q 510 1158 499 1140 q 524 1203 522 1175 l 592 1203 q 560 1113 590 1147 q 482 1079 529 1079 l 469 1079 m 354 1031 l 431 1031 l 604 806 l 510 806 l 393 961 l 276 806 l 182 806 l 354 1031 z "},"ä":{"ha":772,"x_min":83,"x_max":675,"o":"m 306 -11 q 144 42 204 -11 q 83 183 83 94 l 83 228 q 146 368 83 315 q 311 421 208 421 l 400 421 q 494 407 446 421 q 578 369 543 393 l 578 485 q 542 580 578 543 q 446 617 506 617 l 335 617 q 239 589 275 617 q 203 515 203 561 l 103 515 q 167 652 103 600 q 335 704 231 704 l 446 704 q 612 644 549 704 q 675 485 675 583 l 675 0 l 581 0 l 581 97 q 497 18 549 47 q 389 -11 444 -11 l 306 -11 m 392 76 q 508 117 457 76 q 578 224 560 157 l 578 275 q 501 317 550 301 q 400 333 451 333 l 311 333 q 219 304 254 333 q 183 228 183 275 l 183 183 q 217 106 183 135 q 306 76 250 76 l 392 76 m 254 806 q 205 824 224 806 q 186 874 186 843 q 205 923 186 904 q 254 942 224 942 q 303 923 285 942 q 322 874 322 904 q 303 824 322 843 q 254 806 285 806 m 531 806 q 481 824 500 806 q 463 874 463 843 q 481 923 463 904 q 531 942 500 942 q 580 923 561 942 q 599 874 599 904 q 580 824 599 843 q 531 806 561 806 z "},"ạ":{"ha":772,"x_min":83,"x_max":675,"o":"m 306 -11 q 144 42 204 -11 q 83 183 83 94 l 83 228 q 146 368 83 315 q 311 421 208 421 l 400 421 q 494 407 446 421 q 578 369 543 393 l 578 485 q 542 580 578 543 q 446 617 506 617 l 335 617 q 239 589 275 617 q 203 515 203 561 l 103 515 q 167 652 103 600 q 335 704 231 704 l 446 704 q 612 644 549 704 q 675 485 675 583 l 675 0 l 581 0 l 581 97 q 497 18 549 47 q 389 -11 444 -11 l 306 -11 m 392 76 q 508 117 457 76 q 578 224 560 157 l 578 275 q 501 317 550 301 q 400 333 451 333 l 311 333 q 219 304 254 333 q 183 228 183 275 l 183 183 q 217 106 183 135 q 306 76 250 76 l 392 76 m 399 -260 q 344 -239 365 -260 q 324 -185 324 -218 q 344 -131 324 -151 q 399 -110 365 -110 q 453 -131 432 -110 q 474 -185 474 -151 q 453 -239 474 -218 q 399 -260 432 -260 z "},"à":{"ha":772,"x_min":83,"x_max":675,"o":"m 306 -11 q 144 42 204 -11 q 83 183 83 94 l 83 228 q 146 368 83 315 q 311 421 208 421 l 400 421 q 494 407 446 421 q 578 369 543 393 l 578 485 q 542 580 578 543 q 446 617 506 617 l 335 617 q 239 589 275 617 q 203 515 203 561 l 103 515 q 167 652 103 600 q 335 704 231 704 l 446 704 q 612 644 549 704 q 675 485 675 583 l 675 0 l 581 0 l 581 97 q 497 18 549 47 q 389 -11 444 -11 l 306 -11 m 392 76 q 508 117 457 76 q 578 224 560 157 l 578 275 q 501 317 550 301 q 400 333 451 333 l 311 333 q 219 304 254 333 q 183 228 183 275 l 183 183 q 217 106 183 135 q 306 76 250 76 l 392 76 m 211 1017 l 325 1017 l 440 806 l 349 806 l 211 1017 z "},"ả":{"ha":772,"x_min":83,"x_max":675,"o":"m 306 -11 q 144 42 204 -11 q 83 183 83 94 l 83 228 q 146 368 83 315 q 311 421 208 421 l 400 421 q 494 407 446 421 q 578 369 543 393 l 578 485 q 542 580 578 543 q 446 617 506 617 l 335 617 q 239 589 275 617 q 203 515 203 561 l 103 515 q 167 652 103 600 q 335 704 231 704 l 446 704 q 612 644 549 704 q 675 485 675 583 l 675 0 l 581 0 l 581 97 q 497 18 549 47 q 389 -11 444 -11 l 306 -11 m 392 76 q 508 117 457 76 q 578 224 560 157 l 578 275 q 501 317 550 301 q 400 333 451 333 l 311 333 q 219 304 254 333 q 183 228 183 275 l 183 183 q 217 106 183 135 q 306 76 250 76 l 392 76 m 344 808 q 362 857 344 838 q 411 897 379 876 q 447 925 435 914 q 458 951 458 936 l 458 967 q 408 1013 458 1013 l 381 1013 q 322 954 322 1013 l 242 954 q 381 1085 242 1085 l 408 1085 q 508 1055 474 1085 q 542 967 542 1025 l 542 951 q 524 899 542 919 q 472 854 506 878 q 441 830 451 840 q 431 808 431 819 l 431 786 l 344 786 l 344 808 z "},"ɑ":{"ha":806,"x_min":78,"x_max":792,"o":"m 322 -11 q 196 22 251 -11 q 109 115 140 56 q 78 254 78 175 l 78 421 q 110 569 78 504 q 201 669 143 633 q 332 704 258 704 l 432 704 q 526 679 481 704 q 597 613 571 654 l 597 693 l 694 693 l 694 161 q 758 89 694 89 l 792 89 l 792 0 l 744 0 q 653 27 688 0 q 611 106 619 54 l 610 106 q 520 19 572 49 q 410 -11 468 -11 l 322 -11 m 415 78 q 501 106 460 78 q 568 181 542 135 q 597 275 594 226 l 597 450 q 543 570 588 525 q 435 615 499 615 l 335 615 q 222 561 267 615 q 178 421 178 507 l 178 254 q 219 127 178 176 q 325 78 261 78 l 415 78 z "},"ā":{"ha":772,"x_min":83,"x_max":675,"o":"m 306 -11 q 144 42 204 -11 q 83 183 83 94 l 83 228 q 146 368 83 315 q 311 421 208 421 l 400 421 q 494 407 446 421 q 578 369 543 393 l 578 485 q 542 580 578 543 q 446 617 506 617 l 335 617 q 239 589 275 617 q 203 515 203 561 l 103 515 q 167 652 103 600 q 335 704 231 704 l 446 704 q 612 644 549 704 q 675 485 675 583 l 675 0 l 581 0 l 581 97 q 497 18 549 47 q 389 -11 444 -11 l 306 -11 m 392 76 q 508 117 457 76 q 578 224 560 157 l 578 275 q 501 317 550 301 q 400 333 451 333 l 311 333 q 219 304 254 333 q 183 228 183 275 l 183 183 q 217 106 183 135 q 306 76 250 76 l 392 76 m 217 892 l 571 892 l 571 819 l 217 819 l 217 892 z "},"ą":{"ha":772,"x_min":83,"x_max":740,"o":"m 663 -215 q 702 -208 681 -215 q 740 -187 724 -200 l 740 -265 q 702 -283 726 -276 q 656 -290 678 -290 l 642 -290 q 535 -254 575 -290 q 496 -157 496 -218 l 496 -143 q 519 -60 496 -100 q 581 0 542 -21 l 581 97 q 497 18 549 47 q 389 -11 444 -11 l 306 -11 q 144 42 204 -11 q 83 183 83 94 l 83 228 q 146 368 83 315 q 311 421 208 421 l 400 421 q 494 407 446 421 q 578 369 543 393 l 578 485 q 542 580 578 543 q 446 617 506 617 l 335 617 q 239 589 275 617 q 203 515 203 561 l 103 515 q 167 652 103 600 q 335 704 231 704 l 446 704 q 612 644 549 704 q 675 485 675 583 l 675 0 q 607 -59 632 -22 q 582 -137 582 -96 l 582 -151 q 599 -197 582 -179 q 649 -215 617 -215 l 663 -215 m 578 275 q 501 317 550 301 q 400 333 451 333 l 311 333 q 219 304 254 333 q 183 228 183 275 l 183 183 q 217 106 183 135 q 306 76 250 76 l 392 76 q 508 117 457 76 q 578 224 560 157 l 578 275 z "},"å":{"ha":772,"x_min":83,"x_max":675,"o":"m 306 -11 q 144 42 204 -11 q 83 183 83 94 l 83 228 q 146 368 83 315 q 311 421 208 421 l 400 421 q 494 407 446 421 q 578 369 543 393 l 578 485 q 542 580 578 543 q 446 617 506 617 l 335 617 q 239 589 275 617 q 203 515 203 561 l 103 515 q 167 652 103 600 q 335 704 231 704 l 446 704 q 612 644 549 704 q 675 485 675 583 l 675 0 l 581 0 l 581 97 q 497 18 549 47 q 389 -11 444 -11 l 306 -11 m 392 76 q 508 117 457 76 q 578 224 560 157 l 578 275 q 501 317 550 301 q 400 333 451 333 l 311 333 q 219 304 254 333 q 183 228 183 275 l 183 183 q 217 106 183 135 q 306 76 250 76 l 392 76 m 393 753 q 287 792 328 753 q 246 896 246 832 q 287 999 246 960 q 393 1039 328 1039 q 499 999 458 1039 q 540 896 540 960 q 499 792 540 832 q 393 753 458 753 m 393 819 q 450 840 429 819 q 471 896 471 861 q 450 951 471 931 q 393 972 429 972 q 336 951 357 972 q 315 896 315 931 q 336 840 315 861 q 393 819 357 819 z "},"ǻ":{"ha":772,"x_min":83,"x_max":675,"o":"m 306 -11 q 144 42 204 -11 q 83 183 83 94 l 83 228 q 146 368 83 315 q 311 421 208 421 l 400 421 q 494 407 446 421 q 578 369 543 393 l 578 485 q 542 580 578 543 q 446 617 506 617 l 335 617 q 239 589 275 617 q 203 515 203 561 l 103 515 q 167 652 103 600 q 335 704 231 704 l 446 704 q 612 644 549 704 q 675 485 675 583 l 675 0 l 581 0 l 581 97 q 497 18 549 47 q 389 -11 444 -11 l 306 -11 m 392 76 q 508 117 457 76 q 578 224 560 157 l 578 275 q 501 317 550 301 q 400 333 451 333 l 311 333 q 219 304 254 333 q 183 228 183 275 l 183 183 q 217 106 183 135 q 306 76 250 76 l 392 76 m 393 753 q 287 792 328 753 q 246 896 246 832 q 287 999 246 960 q 393 1039 328 1039 q 499 999 458 1039 q 540 896 540 960 q 499 792 540 832 q 393 753 458 753 m 393 819 q 450 840 429 819 q 471 896 471 861 q 450 951 471 931 q 393 972 429 972 q 336 951 357 972 q 315 896 315 931 q 336 840 315 861 q 393 819 357 819 m 465 1307 l 579 1307 l 442 1096 l 350 1096 l 465 1307 z "},"ã":{"ha":772,"x_min":83,"x_max":675,"o":"m 306 -11 q 144 42 204 -11 q 83 183 83 94 l 83 228 q 146 368 83 315 q 311 421 208 421 l 400 421 q 494 407 446 421 q 578 369 543 393 l 578 485 q 542 580 578 543 q 446 617 506 617 l 335 617 q 239 589 275 617 q 203 515 203 561 l 103 515 q 167 652 103 600 q 335 704 231 704 l 446 704 q 612 644 549 704 q 675 485 675 583 l 675 0 l 581 0 l 581 97 q 497 18 549 47 q 389 -11 444 -11 l 306 -11 m 392 76 q 508 117 457 76 q 578 224 560 157 l 578 275 q 501 317 550 301 q 400 333 451 333 l 311 333 q 219 304 254 333 q 183 228 183 275 l 183 183 q 217 106 183 135 q 306 76 250 76 l 392 76 m 476 794 q 422 809 444 794 q 374 850 399 824 q 340 879 351 871 q 314 888 329 888 l 300 888 q 264 868 279 888 q 247 817 249 849 l 169 817 q 208 918 171 879 q 300 957 244 957 l 314 957 q 373 942 349 957 q 425 899 397 926 q 453 872 442 881 q 476 864 464 864 l 490 864 q 524 883 510 864 q 540 935 539 903 l 618 935 q 581 833 617 872 q 490 794 544 794 l 476 794 z "},"æ":{"ha":1261,"x_min":83,"x_max":1192,"o":"m 308 -11 q 145 42 207 -11 q 83 183 83 96 l 83 228 q 146 369 83 317 q 314 422 208 422 l 403 422 q 497 408 447 422 q 581 369 546 393 l 581 485 q 544 579 581 543 q 449 615 508 615 l 338 615 q 240 588 278 615 q 203 515 203 560 l 103 515 q 167 652 103 600 q 338 704 232 704 l 449 704 q 560 677 510 704 q 638 603 610 650 l 639 603 q 723 676 668 649 q 839 704 778 704 l 947 704 q 1124 633 1057 704 q 1192 446 1192 563 l 1192 324 l 681 324 l 681 238 q 724 121 681 164 q 839 78 767 78 l 939 78 q 1050 116 1008 78 q 1092 218 1092 154 l 1189 218 q 1120 52 1189 115 q 939 -11 1051 -11 l 839 -11 q 709 19 765 -11 q 622 107 653 49 l 621 107 q 392 -11 532 -11 l 308 -11 m 1092 410 l 1092 446 q 1053 569 1092 522 q 947 615 1014 615 l 839 615 q 724 567 767 615 q 681 439 681 518 l 681 410 l 1092 410 m 394 78 q 511 117 460 78 q 581 224 563 157 l 581 275 q 503 317 553 301 q 403 333 454 333 l 314 333 q 218 306 253 333 q 183 228 183 278 l 183 183 q 217 107 183 136 q 308 78 251 78 l 394 78 z "},"ǽ":{"ha":1261,"x_min":83,"x_max":1192,"o":"m 308 -11 q 145 42 207 -11 q 83 183 83 96 l 83 228 q 146 369 83 317 q 314 422 208 422 l 403 422 q 497 408 447 422 q 581 369 546 393 l 581 485 q 544 579 581 543 q 449 615 508 615 l 338 615 q 240 588 278 615 q 203 515 203 560 l 103 515 q 167 652 103 600 q 338 704 232 704 l 449 704 q 560 677 510 704 q 638 603 610 650 l 639 603 q 723 676 668 649 q 839 704 778 704 l 947 704 q 1124 633 1057 704 q 1192 446 1192 563 l 1192 324 l 681 324 l 681 238 q 724 121 681 164 q 839 78 767 78 l 939 78 q 1050 116 1008 78 q 1092 218 1092 154 l 1189 218 q 1120 52 1189 115 q 939 -11 1051 -11 l 839 -11 q 709 19 765 -11 q 622 107 653 49 l 621 107 q 392 -11 532 -11 l 308 -11 m 1092 410 l 1092 446 q 1053 569 1092 522 q 947 615 1014 615 l 839 615 q 724 567 767 615 q 681 439 681 518 l 681 410 l 1092 410 m 394 78 q 511 117 460 78 q 581 224 563 157 l 581 275 q 503 317 553 301 q 403 333 454 333 l 314 333 q 218 306 253 333 q 183 228 183 278 l 183 183 q 217 107 183 136 q 308 78 251 78 l 394 78 m 711 1017 l 825 1017 l 688 806 l 596 806 l 711 1017 z "},"b":{"ha":803,"x_min":106,"x_max":725,"o":"m 379 -11 q 282 17 333 -11 q 203 89 231 46 l 203 0 l 106 0 l 106 972 l 206 972 l 206 611 q 284 679 236 654 q 383 704 332 704 l 482 704 q 608 672 553 704 q 694 580 663 639 q 725 444 725 521 l 725 265 q 694 121 725 183 q 606 24 663 58 q 476 -11 550 -11 l 379 -11 m 474 78 q 583 130 540 78 q 625 265 625 182 l 625 444 q 584 568 625 521 q 479 615 543 615 l 386 615 q 263 563 314 615 q 206 424 211 510 l 206 254 q 233 165 208 206 q 297 101 258 125 q 379 78 336 78 l 474 78 z "},"c":{"ha":744,"x_min":78,"x_max":686,"o":"m 331 -11 q 147 58 217 -11 q 78 240 78 126 l 78 439 q 147 631 78 558 q 329 704 217 704 l 443 704 q 615 644 550 704 q 681 488 681 585 l 583 488 q 545 580 583 544 q 443 615 507 615 l 329 615 q 219 567 261 615 q 178 439 178 518 l 178 240 q 220 122 178 167 q 331 78 263 78 l 444 78 q 549 124 510 78 q 589 246 589 169 l 686 246 q 619 60 686 131 q 444 -11 553 -11 l 331 -11 z "},"ć":{"ha":744,"x_min":78,"x_max":686,"o":"m 331 -11 q 147 58 217 -11 q 78 240 78 126 l 78 439 q 147 631 78 558 q 329 704 217 704 l 443 704 q 615 644 550 704 q 681 488 681 585 l 583 488 q 545 580 583 544 q 443 615 507 615 l 329 615 q 219 567 261 615 q 178 439 178 518 l 178 240 q 220 122 178 167 q 331 78 263 78 l 444 78 q 549 124 510 78 q 589 246 589 169 l 686 246 q 619 60 686 131 q 444 -11 553 -11 l 331 -11 m 458 1017 l 572 1017 l 435 806 l 343 806 l 458 1017 z "},"č":{"ha":744,"x_min":78,"x_max":686,"o":"m 331 -11 q 147 58 217 -11 q 78 240 78 126 l 78 439 q 147 631 78 558 q 329 704 217 704 l 443 704 q 615 644 550 704 q 681 488 681 585 l 583 488 q 545 580 583 544 q 443 615 507 615 l 329 615 q 219 567 261 615 q 178 439 178 518 l 178 240 q 220 122 178 167 q 331 78 263 78 l 444 78 q 549 124 510 78 q 589 246 589 169 l 686 246 q 619 60 686 131 q 444 -11 553 -11 l 331 -11 m 175 1031 l 269 1031 l 386 875 l 503 1031 l 597 1031 l 424 806 l 347 806 l 175 1031 z "},"ç":{"ha":744,"x_min":78,"x_max":686,"o":"m 417 -11 l 388 -75 l 397 -75 q 484 -104 451 -75 q 517 -181 517 -133 l 517 -196 q 476 -278 517 -247 q 371 -310 436 -310 l 294 -310 l 294 -243 l 368 -243 q 418 -230 399 -243 q 438 -196 438 -217 l 438 -181 q 420 -147 438 -160 q 375 -133 403 -133 l 310 -133 l 310 -72 l 336 -11 l 331 -11 q 147 58 217 -11 q 78 240 78 126 l 78 439 q 147 631 78 558 q 329 704 217 704 l 443 704 q 615 644 550 704 q 681 488 681 585 l 583 488 q 545 580 583 544 q 443 615 507 615 l 329 615 q 219 567 261 615 q 178 439 178 518 l 178 240 q 220 122 178 167 q 331 78 263 78 l 444 78 q 549 124 510 78 q 589 246 589 169 l 686 246 q 619 60 686 131 q 444 -11 553 -11 l 417 -11 z "},"ĉ":{"ha":744,"x_min":78,"x_max":686,"o":"m 331 -11 q 147 58 217 -11 q 78 240 78 126 l 78 439 q 147 631 78 558 q 329 704 217 704 l 443 704 q 615 644 550 704 q 681 488 681 585 l 583 488 q 545 580 583 544 q 443 615 507 615 l 329 615 q 219 567 261 615 q 178 439 178 518 l 178 240 q 220 122 178 167 q 331 78 263 78 l 444 78 q 549 124 510 78 q 589 246 589 169 l 686 246 q 619 60 686 131 q 444 -11 553 -11 l 331 -11 m 347 1031 l 424 1031 l 597 806 l 503 806 l 386 961 l 269 806 l 175 806 l 347 1031 z "},"ċ":{"ha":744,"x_min":78,"x_max":686,"o":"m 331 -11 q 147 58 217 -11 q 78 240 78 126 l 78 439 q 147 631 78 558 q 329 704 217 704 l 443 704 q 615 644 550 704 q 681 488 681 585 l 583 488 q 545 580 583 544 q 443 615 507 615 l 329 615 q 219 567 261 615 q 178 439 178 518 l 178 240 q 220 122 178 167 q 331 78 263 78 l 444 78 q 549 124 510 78 q 589 246 589 169 l 686 246 q 619 60 686 131 q 444 -11 553 -11 l 331 -11 m 386 806 q 332 826 353 806 q 311 881 311 847 q 332 935 311 914 q 386 956 353 956 q 440 935 419 956 q 461 881 461 914 q 440 826 461 847 q 386 806 419 806 z "},"d":{"ha":803,"x_min":78,"x_max":697,"o":"m 321 -11 q 194 22 250 -11 q 108 115 139 56 q 78 254 78 175 l 78 421 q 110 569 78 504 q 200 669 142 633 q 333 704 258 704 l 436 704 q 527 682 483 704 q 597 621 571 660 l 597 972 l 697 972 l 697 0 l 600 0 l 600 103 q 517 20 568 51 q 417 -11 465 -11 l 321 -11 m 414 78 q 500 106 458 78 q 568 181 542 135 q 597 275 594 226 l 597 450 q 542 569 588 524 q 433 615 497 615 l 336 615 q 222 562 265 615 q 178 421 178 508 l 178 254 q 219 127 178 176 q 324 78 260 78 l 414 78 z "},"ð":{"ha":815,"x_min":69,"x_max":746,"o":"m 549 1000 q 697 810 649 936 q 746 490 746 683 l 746 307 q 709 140 746 213 q 606 28 672 68 q 451 -11 539 -11 l 351 -11 q 204 25 268 -11 q 105 126 140 61 q 69 276 69 192 l 69 414 q 104 572 69 503 q 202 678 139 640 q 347 715 265 715 l 447 715 q 559 685 504 715 q 646 603 614 654 l 647 603 q 600 806 638 726 q 493 929 563 886 l 411 824 l 311 824 l 418 961 q 264 981 349 981 l 233 981 l 233 1069 l 264 1069 q 476 1036 386 1069 l 533 1108 l 633 1108 l 549 1000 m 646 393 q 620 510 646 457 q 548 595 594 564 q 442 626 501 626 l 350 626 q 219 568 269 626 q 169 415 169 510 l 169 274 q 220 131 169 185 q 354 78 271 78 l 449 78 q 592 139 538 78 q 646 301 646 200 l 646 393 z "},"ď":{"ha":1022,"x_min":78,"x_max":1000,"o":"m 321 -11 q 194 22 250 -11 q 108 115 139 56 q 78 254 78 175 l 78 421 q 110 569 78 504 q 200 669 142 633 q 333 704 258 704 l 436 704 q 527 682 483 704 q 597 621 571 660 l 597 972 l 697 972 l 697 0 l 600 0 l 600 103 q 517 20 568 51 q 417 -11 465 -11 l 321 -11 m 414 78 q 500 106 458 78 q 568 181 542 135 q 597 275 594 226 l 597 450 q 542 569 588 524 q 433 615 497 615 l 336 615 q 222 562 265 615 q 178 421 178 508 l 178 254 q 219 127 178 176 q 324 78 260 78 l 414 78 m 797 765 l 818 779 q 880 844 860 807 q 900 929 900 881 l 900 972 l 1000 972 l 1000 929 q 971 797 1000 851 q 881 704 942 743 l 854 688 l 797 765 z "},"đ":{"ha":826,"x_min":78,"x_max":801,"o":"m 801 788 l 697 788 l 697 0 l 600 0 l 600 103 q 517 20 568 51 q 417 -11 465 -11 l 321 -11 q 194 22 250 -11 q 108 115 139 56 q 78 254 78 175 l 78 421 q 110 569 78 504 q 200 669 142 633 q 333 704 258 704 l 436 704 q 527 682 483 704 q 597 621 571 660 l 597 788 l 372 788 l 372 871 l 597 871 l 597 972 l 697 972 l 697 871 l 801 871 l 801 788 m 597 450 q 542 569 588 524 q 433 615 497 615 l 336 615 q 222 562 265 615 q 178 421 178 508 l 178 254 q 219 127 178 176 q 324 78 260 78 l 414 78 q 500 106 458 78 q 568 181 542 135 q 597 275 594 226 l 597 450 z "},"ḍ":{"ha":803,"x_min":78,"x_max":697,"o":"m 321 -11 q 194 22 250 -11 q 108 115 139 56 q 78 254 78 175 l 78 421 q 110 569 78 504 q 200 669 142 633 q 333 704 258 704 l 436 704 q 527 682 483 704 q 597 621 571 660 l 597 972 l 697 972 l 697 0 l 600 0 l 600 103 q 517 20 568 51 q 417 -11 465 -11 l 321 -11 m 414 78 q 500 106 458 78 q 568 181 542 135 q 597 275 594 226 l 597 450 q 542 569 588 524 q 433 615 497 615 l 336 615 q 222 562 265 615 q 178 421 178 508 l 178 254 q 219 127 178 176 q 324 78 260 78 l 414 78 m 394 -249 q 340 -228 361 -249 q 319 -174 319 -207 q 340 -119 319 -140 q 394 -99 361 -99 q 449 -119 428 -99 q 469 -174 469 -140 q 449 -228 469 -207 q 394 -249 428 -249 z "},"ḏ":{"ha":803,"x_min":78,"x_max":697,"o":"m 321 -11 q 194 22 250 -11 q 108 115 139 56 q 78 254 78 175 l 78 421 q 110 569 78 504 q 200 669 142 633 q 333 704 258 704 l 436 704 q 527 682 483 704 q 597 621 571 660 l 597 972 l 697 972 l 697 0 l 600 0 l 600 103 q 517 20 568 51 q 417 -11 465 -11 l 321 -11 m 414 78 q 500 106 458 78 q 568 181 542 135 q 597 275 594 226 l 597 450 q 542 569 588 524 q 433 615 497 615 l 336 615 q 222 562 265 615 q 178 421 178 508 l 178 254 q 219 127 178 176 q 324 78 260 78 l 414 78 m 218 -103 l 572 -103 l 572 -175 l 218 -175 l 218 -103 z "},"e":{"ha":767,"x_min":78,"x_max":697,"o":"m 336 -11 q 149 58 219 -11 q 78 240 78 126 l 78 439 q 149 631 78 558 q 336 704 219 704 l 450 704 q 629 633 561 704 q 697 446 697 563 l 697 324 l 178 324 l 178 240 q 222 123 178 168 q 336 78 265 78 l 442 78 q 554 116 511 78 q 597 218 597 154 l 694 218 q 625 52 694 115 q 442 -11 556 -11 l 336 -11 m 597 410 l 597 446 q 557 569 597 522 q 450 615 517 615 l 336 615 q 222 567 265 615 q 178 439 178 518 l 178 410 l 597 410 z "},"é":{"ha":767,"x_min":78,"x_max":697,"o":"m 336 -11 q 149 58 219 -11 q 78 240 78 126 l 78 439 q 149 631 78 558 q 336 704 219 704 l 450 704 q 629 633 561 704 q 697 446 697 563 l 697 324 l 178 324 l 178 240 q 222 123 178 168 q 336 78 265 78 l 442 78 q 554 116 511 78 q 597 218 597 154 l 694 218 q 625 52 694 115 q 442 -11 556 -11 l 336 -11 m 597 410 l 597 446 q 557 569 597 522 q 450 615 517 615 l 336 615 q 222 567 265 615 q 178 439 178 518 l 178 410 l 597 410 m 463 1017 l 576 1017 l 439 806 l 347 806 l 463 1017 z "},"ĕ":{"ha":767,"x_min":78,"x_max":697,"o":"m 336 -11 q 149 58 219 -11 q 78 240 78 126 l 78 439 q 149 631 78 558 q 336 704 219 704 l 450 704 q 629 633 561 704 q 697 446 697 563 l 697 324 l 178 324 l 178 240 q 222 123 178 168 q 336 78 265 78 l 442 78 q 554 116 511 78 q 597 218 597 154 l 694 218 q 625 52 694 115 q 442 -11 556 -11 l 336 -11 m 597 410 l 597 446 q 557 569 597 522 q 450 615 517 615 l 336 615 q 222 567 265 615 q 178 439 178 518 l 178 410 l 597 410 m 382 794 q 242 844 296 794 q 189 976 189 894 l 189 988 l 269 988 l 269 976 q 300 894 269 925 q 382 864 331 864 l 399 864 q 481 894 450 864 q 513 976 513 925 l 513 988 l 592 988 l 592 976 q 538 844 592 894 q 399 794 485 794 l 382 794 z "},"ě":{"ha":767,"x_min":78,"x_max":697,"o":"m 336 -11 q 149 58 219 -11 q 78 240 78 126 l 78 439 q 149 631 78 558 q 336 704 219 704 l 450 704 q 629 633 561 704 q 697 446 697 563 l 697 324 l 178 324 l 178 240 q 222 123 178 168 q 336 78 265 78 l 442 78 q 554 116 511 78 q 597 218 597 154 l 694 218 q 625 52 694 115 q 442 -11 556 -11 l 336 -11 m 597 410 l 597 446 q 557 569 597 522 q 450 615 517 615 l 336 615 q 222 567 265 615 q 178 439 178 518 l 178 410 l 597 410 m 179 1031 l 274 1031 l 390 875 l 507 1031 l 601 1031 l 428 806 l 351 806 l 179 1031 z "},"ê":{"ha":767,"x_min":78,"x_max":697,"o":"m 336 -11 q 149 58 219 -11 q 78 240 78 126 l 78 439 q 149 631 78 558 q 336 704 219 704 l 450 704 q 629 633 561 704 q 697 446 697 563 l 697 324 l 178 324 l 178 240 q 222 123 178 168 q 336 78 265 78 l 442 78 q 554 116 511 78 q 597 218 597 154 l 694 218 q 625 52 694 115 q 442 -11 556 -11 l 336 -11 m 597 410 l 597 446 q 557 569 597 522 q 450 615 517 615 l 336 615 q 222 567 265 615 q 178 439 178 518 l 178 410 l 597 410 m 351 1031 l 428 1031 l 601 806 l 507 806 l 390 961 l 274 806 l 179 806 l 351 1031 z "},"ế":{"ha":767,"x_min":78,"x_max":726,"o":"m 336 -11 q 149 58 219 -11 q 78 240 78 126 l 78 439 q 149 631 78 558 q 336 704 219 704 l 450 704 q 629 633 561 704 q 697 446 697 563 l 697 324 l 178 324 l 178 240 q 222 123 178 168 q 336 78 265 78 l 442 78 q 554 116 511 78 q 597 218 597 154 l 694 218 q 625 52 694 115 q 442 -11 556 -11 l 336 -11 m 597 410 l 597 446 q 557 569 597 522 q 450 615 517 615 l 336 615 q 222 567 265 615 q 178 439 178 518 l 178 410 l 597 410 m 629 1178 l 726 1178 l 621 1017 l 540 1017 l 629 1178 m 351 1031 l 428 1031 l 601 806 l 507 806 l 390 961 l 274 806 l 179 806 l 351 1031 z "},"ệ":{"ha":767,"x_min":78,"x_max":697,"o":"m 336 -11 q 149 58 219 -11 q 78 240 78 126 l 78 439 q 149 631 78 558 q 336 704 219 704 l 450 704 q 629 633 561 704 q 697 446 697 563 l 697 324 l 178 324 l 178 240 q 222 123 178 168 q 336 78 265 78 l 442 78 q 554 116 511 78 q 597 218 597 154 l 694 218 q 625 52 694 115 q 442 -11 556 -11 l 336 -11 m 597 410 l 597 446 q 557 569 597 522 q 450 615 517 615 l 336 615 q 222 567 265 615 q 178 439 178 518 l 178 410 l 597 410 m 396 -249 q 342 -228 363 -249 q 321 -174 321 -207 q 342 -119 321 -140 q 396 -99 363 -99 q 450 -119 429 -99 q 471 -174 471 -140 q 450 -228 471 -207 q 396 -249 429 -249 m 351 1031 l 428 1031 l 601 806 l 507 806 l 390 961 l 274 806 l 179 806 l 351 1031 z "},"ề":{"ha":767,"x_min":78,"x_max":697,"o":"m 336 -11 q 149 58 219 -11 q 78 240 78 126 l 78 439 q 149 631 78 558 q 336 704 219 704 l 450 704 q 629 633 561 704 q 697 446 697 563 l 697 324 l 178 324 l 178 240 q 222 123 178 168 q 336 78 265 78 l 442 78 q 554 116 511 78 q 597 218 597 154 l 694 218 q 625 52 694 115 q 442 -11 556 -11 l 336 -11 m 597 410 l 597 446 q 557 569 597 522 q 450 615 517 615 l 336 615 q 222 567 265 615 q 178 439 178 518 l 178 410 l 597 410 m 471 1178 l 568 1178 l 657 1017 l 576 1017 l 471 1178 m 351 1031 l 428 1031 l 601 806 l 507 806 l 390 961 l 274 806 l 179 806 l 351 1031 z "},"ể":{"ha":767,"x_min":78,"x_max":708,"o":"m 336 -11 q 149 58 219 -11 q 78 240 78 126 l 78 439 q 149 631 78 558 q 336 704 219 704 l 450 704 q 629 633 561 704 q 697 446 697 563 l 697 324 l 178 324 l 178 240 q 222 123 178 168 q 336 78 265 78 l 442 78 q 554 116 511 78 q 597 218 597 154 l 694 218 q 625 52 694 115 q 442 -11 556 -11 l 336 -11 m 597 410 l 597 446 q 557 569 597 522 q 450 615 517 615 l 336 615 q 222 567 265 615 q 178 439 178 518 l 178 410 l 597 410 m 544 1014 q 559 1053 544 1038 q 600 1086 574 1069 q 629 1109 619 1100 q 639 1131 639 1118 l 639 1143 q 628 1171 639 1161 q 597 1181 617 1181 l 575 1181 q 526 1133 526 1181 l 460 1133 q 575 1242 460 1242 l 597 1242 q 708 1143 708 1242 l 708 1131 q 692 1086 708 1104 q 650 1051 676 1068 q 625 1032 633 1040 q 617 1014 617 1024 l 617 1003 l 544 1003 l 544 1014 m 351 1031 l 428 1031 l 601 806 l 507 806 l 390 961 l 274 806 l 179 806 l 351 1031 z "},"ễ":{"ha":767,"x_min":78,"x_max":697,"o":"m 336 -11 q 149 58 219 -11 q 78 240 78 126 l 78 439 q 149 631 78 558 q 336 704 219 704 l 450 704 q 629 633 561 704 q 697 446 697 563 l 697 324 l 178 324 l 178 240 q 222 123 178 168 q 336 78 265 78 l 442 78 q 554 116 511 78 q 597 218 597 154 l 694 218 q 625 52 694 115 q 442 -11 556 -11 l 336 -11 m 597 410 l 597 446 q 557 569 597 522 q 450 615 517 615 l 336 615 q 222 567 265 615 q 178 439 178 518 l 178 410 l 597 410 m 467 1079 q 419 1092 439 1079 q 376 1128 400 1104 q 347 1153 358 1146 q 324 1161 336 1161 l 311 1161 q 281 1144 293 1161 q 267 1099 268 1126 l 199 1099 q 231 1188 200 1154 q 311 1222 263 1222 l 324 1222 q 377 1208 356 1222 q 421 1171 399 1194 q 447 1147 438 1154 q 467 1140 456 1140 l 479 1140 q 508 1158 496 1140 q 521 1203 519 1175 l 589 1203 q 557 1113 588 1147 q 479 1079 526 1079 l 467 1079 m 351 1031 l 428 1031 l 601 806 l 507 806 l 390 961 l 274 806 l 179 806 l 351 1031 z "},"ë":{"ha":767,"x_min":78,"x_max":697,"o":"m 336 -11 q 149 58 219 -11 q 78 240 78 126 l 78 439 q 149 631 78 558 q 336 704 219 704 l 450 704 q 629 633 561 704 q 697 446 697 563 l 697 324 l 178 324 l 178 240 q 222 123 178 168 q 336 78 265 78 l 442 78 q 554 116 511 78 q 597 218 597 154 l 694 218 q 625 52 694 115 q 442 -11 556 -11 l 336 -11 m 597 410 l 597 446 q 557 569 597 522 q 450 615 517 615 l 336 615 q 222 567 265 615 q 178 439 178 518 l 178 410 l 597 410 m 251 806 q 202 824 221 806 q 183 874 183 843 q 202 923 183 904 q 251 942 221 942 q 301 923 282 942 q 319 874 319 904 q 301 824 319 843 q 251 806 282 806 m 528 806 q 478 824 497 806 q 460 874 460 843 q 478 923 460 904 q 528 942 497 942 q 577 923 558 942 q 596 874 596 904 q 577 824 596 843 q 528 806 558 806 z "},"ė":{"ha":767,"x_min":78,"x_max":697,"o":"m 336 -11 q 149 58 219 -11 q 78 240 78 126 l 78 439 q 149 631 78 558 q 336 704 219 704 l 450 704 q 629 633 561 704 q 697 446 697 563 l 697 324 l 178 324 l 178 240 q 222 123 178 168 q 336 78 265 78 l 442 78 q 554 116 511 78 q 597 218 597 154 l 694 218 q 625 52 694 115 q 442 -11 556 -11 l 336 -11 m 597 410 l 597 446 q 557 569 597 522 q 450 615 517 615 l 336 615 q 222 567 265 615 q 178 439 178 518 l 178 410 l 597 410 m 390 806 q 336 826 357 806 q 315 881 315 847 q 336 935 315 914 q 390 956 357 956 q 444 935 424 956 q 465 881 465 914 q 444 826 465 847 q 390 806 424 806 z "},"ẹ":{"ha":767,"x_min":78,"x_max":697,"o":"m 336 -11 q 149 58 219 -11 q 78 240 78 126 l 78 439 q 149 631 78 558 q 336 704 219 704 l 450 704 q 629 633 561 704 q 697 446 697 563 l 697 324 l 178 324 l 178 240 q 222 123 178 168 q 336 78 265 78 l 442 78 q 554 116 511 78 q 597 218 597 154 l 694 218 q 625 52 694 115 q 442 -11 556 -11 l 336 -11 m 597 410 l 597 446 q 557 569 597 522 q 450 615 517 615 l 336 615 q 222 567 265 615 q 178 439 178 518 l 178 410 l 597 410 m 396 -249 q 342 -228 363 -249 q 321 -174 321 -207 q 342 -119 321 -140 q 396 -99 363 -99 q 450 -119 429 -99 q 471 -174 471 -140 q 450 -228 471 -207 q 396 -249 429 -249 z "},"è":{"ha":767,"x_min":78,"x_max":697,"o":"m 336 -11 q 149 58 219 -11 q 78 240 78 126 l 78 439 q 149 631 78 558 q 336 704 219 704 l 450 704 q 629 633 561 704 q 697 446 697 563 l 697 324 l 178 324 l 178 240 q 222 123 178 168 q 336 78 265 78 l 442 78 q 554 116 511 78 q 597 218 597 154 l 694 218 q 625 52 694 115 q 442 -11 556 -11 l 336 -11 m 597 410 l 597 446 q 557 569 597 522 q 450 615 517 615 l 336 615 q 222 567 265 615 q 178 439 178 518 l 178 410 l 597 410 m 208 1017 l 322 1017 l 438 806 l 346 806 l 208 1017 z "},"ẻ":{"ha":767,"x_min":78,"x_max":697,"o":"m 336 -11 q 149 58 219 -11 q 78 240 78 126 l 78 439 q 149 631 78 558 q 336 704 219 704 l 450 704 q 629 633 561 704 q 697 446 697 563 l 697 324 l 178 324 l 178 240 q 222 123 178 168 q 336 78 265 78 l 442 78 q 554 116 511 78 q 597 218 597 154 l 694 218 q 625 52 694 115 q 442 -11 556 -11 l 336 -11 m 597 410 l 597 446 q 557 569 597 522 q 450 615 517 615 l 336 615 q 222 567 265 615 q 178 439 178 518 l 178 410 l 597 410 m 342 808 q 359 857 342 838 q 408 897 376 876 q 444 925 432 914 q 456 951 456 936 l 456 967 q 406 1013 456 1013 l 378 1013 q 319 954 319 1013 l 239 954 q 378 1085 239 1085 l 406 1085 q 505 1055 471 1085 q 539 967 539 1025 l 539 951 q 521 899 539 919 q 469 854 503 878 q 438 830 449 840 q 428 808 428 819 l 428 786 l 342 786 l 342 808 z "},"ē":{"ha":767,"x_min":78,"x_max":697,"o":"m 336 -11 q 149 58 219 -11 q 78 240 78 126 l 78 439 q 149 631 78 558 q 336 704 219 704 l 450 704 q 629 633 561 704 q 697 446 697 563 l 697 324 l 178 324 l 178 240 q 222 123 178 168 q 336 78 265 78 l 442 78 q 554 116 511 78 q 597 218 597 154 l 694 218 q 625 52 694 115 q 442 -11 556 -11 l 336 -11 m 597 410 l 597 446 q 557 569 597 522 q 450 615 517 615 l 336 615 q 222 567 265 615 q 178 439 178 518 l 178 410 l 597 410 m 214 892 l 568 892 l 568 819 l 214 819 l 214 892 z "},"ę":{"ha":767,"x_min":78,"x_max":697,"o":"m 178 324 l 178 240 q 222 123 178 168 q 336 78 265 78 l 442 78 q 554 116 511 78 q 597 218 597 154 l 694 218 q 650 78 694 136 q 528 0 606 21 l 536 0 q 468 -59 493 -22 q 443 -137 443 -96 l 443 -151 q 460 -197 443 -179 q 510 -215 478 -215 l 524 -215 q 563 -208 542 -215 q 601 -187 585 -200 l 601 -265 q 563 -283 588 -276 q 517 -290 539 -290 l 503 -290 q 397 -254 436 -290 q 357 -157 357 -218 l 357 -143 q 375 -70 357 -106 q 424 -11 393 -35 l 336 -11 q 149 58 219 -11 q 78 240 78 126 l 78 439 q 149 631 78 558 q 336 704 219 704 l 450 704 q 629 633 561 704 q 697 446 697 563 l 697 324 l 178 324 m 178 410 l 597 410 l 597 446 q 557 569 597 522 q 450 615 517 615 l 336 615 q 222 567 265 615 q 178 439 178 518 l 178 410 z "},"ẽ":{"ha":767,"x_min":78,"x_max":697,"o":"m 336 -11 q 149 58 219 -11 q 78 240 78 126 l 78 439 q 149 631 78 558 q 336 704 219 704 l 450 704 q 629 633 561 704 q 697 446 697 563 l 697 324 l 178 324 l 178 240 q 222 123 178 168 q 336 78 265 78 l 442 78 q 554 116 511 78 q 597 218 597 154 l 694 218 q 625 52 694 115 q 442 -11 556 -11 l 336 -11 m 597 410 l 597 446 q 557 569 597 522 q 450 615 517 615 l 336 615 q 222 567 265 615 q 178 439 178 518 l 178 410 l 597 410 m 474 794 q 419 809 442 794 q 371 850 396 824 q 338 879 349 871 q 311 888 326 888 l 297 888 q 261 868 276 888 q 244 817 246 849 l 167 817 q 205 918 168 879 q 297 957 242 957 l 311 957 q 370 942 346 957 q 422 899 394 926 q 450 872 439 881 q 474 864 461 864 l 488 864 q 522 883 507 864 q 538 935 536 903 l 615 935 q 578 833 614 872 q 488 794 542 794 l 474 794 z "},"ə":{"ha":761,"x_min":69,"x_max":683,"o":"m 314 -11 q 137 60 204 -11 q 69 247 69 131 l 69 369 l 583 369 l 583 453 q 540 571 583 526 q 425 615 497 615 l 322 615 q 211 577 253 615 q 169 475 169 539 l 72 475 q 141 641 72 578 q 322 704 210 704 l 425 704 q 613 635 542 704 q 683 453 683 567 l 683 254 q 613 62 683 135 q 425 -11 542 -11 l 314 -11 m 425 78 q 540 126 497 78 q 583 254 583 175 l 583 283 l 169 283 l 169 247 q 208 124 169 171 q 314 78 247 78 l 425 78 z "},"f":{"ha":499,"x_min":56,"x_max":457,"o":"m 175 604 l 56 604 l 56 693 l 175 693 l 175 747 q 233 919 175 861 q 404 978 292 978 l 457 978 l 457 892 l 404 892 q 306 856 338 892 q 275 747 275 821 l 275 693 l 442 693 l 442 604 l 275 604 l 275 0 l 175 0 l 175 604 z "},"g":{"ha":803,"x_min":78,"x_max":697,"o":"m 331 -282 q 179 -233 239 -282 q 113 -103 119 -183 l 213 -103 q 251 -170 218 -144 q 331 -196 283 -196 l 446 -196 q 558 -148 518 -196 q 597 -14 597 -100 l 597 93 q 517 26 567 51 q 422 0 468 0 l 321 0 q 194 33 250 0 q 108 126 139 67 q 78 265 78 186 l 78 428 q 149 628 78 551 q 338 704 221 704 l 435 704 q 526 679 479 704 q 600 615 574 654 l 600 693 l 697 693 l 697 -14 q 631 -211 697 -140 q 446 -282 564 -282 l 331 -282 m 422 89 q 541 144 492 89 q 597 283 590 199 l 597 454 q 545 570 592 525 q 435 615 499 615 l 340 615 q 222 564 267 615 q 178 428 178 513 l 178 265 q 219 138 178 188 q 324 89 260 89 l 422 89 z "},"ğ":{"ha":803,"x_min":78,"x_max":697,"o":"m 331 -282 q 179 -233 239 -282 q 113 -103 119 -183 l 213 -103 q 251 -170 218 -144 q 331 -196 283 -196 l 446 -196 q 558 -148 518 -196 q 597 -14 597 -100 l 597 93 q 517 26 567 51 q 422 0 468 0 l 321 0 q 194 33 250 0 q 108 126 139 67 q 78 265 78 186 l 78 428 q 149 628 78 551 q 338 704 221 704 l 435 704 q 526 679 479 704 q 600 615 574 654 l 600 693 l 697 693 l 697 -14 q 631 -211 697 -140 q 446 -282 564 -282 l 331 -282 m 422 89 q 541 144 492 89 q 597 283 590 199 l 597 454 q 545 570 592 525 q 435 615 499 615 l 340 615 q 222 564 267 615 q 178 428 178 513 l 178 265 q 219 138 178 188 q 324 89 260 89 l 422 89 m 378 794 q 238 844 292 794 q 185 976 185 894 l 185 988 l 265 988 l 265 976 q 296 894 265 925 q 378 864 326 864 l 394 864 q 477 894 446 864 q 508 976 508 925 l 508 988 l 588 988 l 588 976 q 534 844 588 894 q 394 794 481 794 l 378 794 z "},"ǧ":{"ha":803,"x_min":78,"x_max":697,"o":"m 331 -282 q 179 -233 239 -282 q 113 -103 119 -183 l 213 -103 q 251 -170 218 -144 q 331 -196 283 -196 l 446 -196 q 558 -148 518 -196 q 597 -14 597 -100 l 597 93 q 517 26 567 51 q 422 0 468 0 l 321 0 q 194 33 250 0 q 108 126 139 67 q 78 265 78 186 l 78 428 q 149 628 78 551 q 338 704 221 704 l 435 704 q 526 679 479 704 q 600 615 574 654 l 600 693 l 697 693 l 697 -14 q 631 -211 697 -140 q 446 -282 564 -282 l 331 -282 m 422 89 q 541 144 492 89 q 597 283 590 199 l 597 454 q 545 570 592 525 q 435 615 499 615 l 340 615 q 222 564 267 615 q 178 428 178 513 l 178 265 q 219 138 178 188 q 324 89 260 89 l 422 89 m 175 1031 l 269 1031 l 386 875 l 503 1031 l 597 1031 l 424 806 l 347 806 l 175 1031 z "},"ĝ":{"ha":803,"x_min":78,"x_max":697,"o":"m 331 -282 q 179 -233 239 -282 q 113 -103 119 -183 l 213 -103 q 251 -170 218 -144 q 331 -196 283 -196 l 446 -196 q 558 -148 518 -196 q 597 -14 597 -100 l 597 93 q 517 26 567 51 q 422 0 468 0 l 321 0 q 194 33 250 0 q 108 126 139 67 q 78 265 78 186 l 78 428 q 149 628 78 551 q 338 704 221 704 l 435 704 q 526 679 479 704 q 600 615 574 654 l 600 693 l 697 693 l 697 -14 q 631 -211 697 -140 q 446 -282 564 -282 l 331 -282 m 422 89 q 541 144 492 89 q 597 283 590 199 l 597 454 q 545 570 592 525 q 435 615 499 615 l 340 615 q 222 564 267 615 q 178 428 178 513 l 178 265 q 219 138 178 188 q 324 89 260 89 l 422 89 m 347 1031 l 424 1031 l 597 806 l 503 806 l 386 961 l 269 806 l 175 806 l 347 1031 z "},"ģ":{"ha":803,"x_min":78,"x_max":697,"o":"m 331 -282 q 179 -233 239 -282 q 113 -103 119 -183 l 213 -103 q 251 -170 218 -144 q 331 -196 283 -196 l 446 -196 q 558 -148 518 -196 q 597 -14 597 -100 l 597 93 q 517 26 567 51 q 422 0 468 0 l 321 0 q 194 33 250 0 q 108 126 139 67 q 78 265 78 186 l 78 428 q 149 628 78 551 q 338 704 221 704 l 435 704 q 526 679 479 704 q 600 615 574 654 l 600 693 l 697 693 l 697 -14 q 631 -211 697 -140 q 446 -282 564 -282 l 331 -282 m 422 89 q 541 144 492 89 q 597 283 590 199 l 597 454 q 545 570 592 525 q 435 615 499 615 l 340 615 q 222 564 267 615 q 178 428 178 513 l 178 265 q 219 138 178 188 q 324 89 260 89 l 422 89 m 328 825 q 357 957 328 903 q 447 1050 386 1011 l 474 1067 l 531 989 l 510 975 q 448 910 468 947 q 428 825 428 874 l 428 782 l 328 782 l 328 825 z "},"ġ":{"ha":803,"x_min":78,"x_max":697,"o":"m 331 -282 q 179 -233 239 -282 q 113 -103 119 -183 l 213 -103 q 251 -170 218 -144 q 331 -196 283 -196 l 446 -196 q 558 -148 518 -196 q 597 -14 597 -100 l 597 93 q 517 26 567 51 q 422 0 468 0 l 321 0 q 194 33 250 0 q 108 126 139 67 q 78 265 78 186 l 78 428 q 149 628 78 551 q 338 704 221 704 l 435 704 q 526 679 479 704 q 600 615 574 654 l 600 693 l 697 693 l 697 -14 q 631 -211 697 -140 q 446 -282 564 -282 l 331 -282 m 422 89 q 541 144 492 89 q 597 283 590 199 l 597 454 q 545 570 592 525 q 435 615 499 615 l 340 615 q 222 564 267 615 q 178 428 178 513 l 178 265 q 219 138 178 188 q 324 89 260 89 l 422 89 m 386 806 q 332 826 353 806 q 311 881 311 847 q 332 935 311 914 q 386 956 353 956 q 440 935 419 956 q 461 881 461 914 q 440 826 461 847 q 386 806 419 806 z "},"ḡ":{"ha":803,"x_min":78,"x_max":697,"o":"m 331 -282 q 179 -233 239 -282 q 113 -103 119 -183 l 213 -103 q 251 -170 218 -144 q 331 -196 283 -196 l 446 -196 q 558 -148 518 -196 q 597 -14 597 -100 l 597 93 q 517 26 567 51 q 422 0 468 0 l 321 0 q 194 33 250 0 q 108 126 139 67 q 78 265 78 186 l 78 428 q 149 628 78 551 q 338 704 221 704 l 435 704 q 526 679 479 704 q 600 615 574 654 l 600 693 l 697 693 l 697 -14 q 631 -211 697 -140 q 446 -282 564 -282 l 331 -282 m 422 89 q 541 144 492 89 q 597 283 590 199 l 597 454 q 545 570 592 525 q 435 615 499 615 l 340 615 q 222 564 267 615 q 178 428 178 513 l 178 265 q 219 138 178 188 q 324 89 260 89 l 422 89 m 210 892 l 564 892 l 564 819 l 210 819 l 210 892 z "},"h":{"ha":797,"x_min":106,"x_max":700,"o":"m 106 972 l 206 972 l 206 597 q 288 675 238 646 q 389 704 338 704 l 486 704 q 641 639 582 704 q 700 468 700 574 l 700 0 l 600 0 l 600 471 q 568 575 600 535 q 483 615 536 615 l 392 615 q 273 565 326 615 q 206 435 219 514 l 206 0 l 106 0 l 106 972 z "},"ħ":{"ha":853,"x_min":36,"x_max":756,"o":"m 542 704 q 697 639 638 704 q 756 468 756 574 l 756 0 l 656 0 l 656 471 q 624 575 656 535 q 539 615 592 615 l 447 615 q 328 565 382 615 q 261 435 275 514 l 261 0 l 161 0 l 161 789 l 36 789 l 36 869 l 161 869 l 161 972 l 261 972 l 261 869 l 439 869 l 439 789 l 261 789 l 261 597 q 343 675 293 646 q 444 704 393 704 l 542 704 z "},"ḫ":{"ha":797,"x_min":106,"x_max":700,"o":"m 106 972 l 206 972 l 206 597 q 288 675 238 646 q 389 704 338 704 l 486 704 q 641 639 582 704 q 700 468 700 574 l 700 0 l 600 0 l 600 471 q 568 575 600 535 q 483 615 536 615 l 392 615 q 273 565 326 615 q 206 435 219 514 l 206 0 l 106 0 l 106 972 m 399 -281 q 259 -231 313 -281 q 206 -99 206 -181 l 206 -87 l 286 -87 l 286 -99 q 317 -181 286 -150 q 399 -211 347 -211 l 415 -211 q 498 -181 467 -211 q 529 -99 529 -150 l 529 -87 l 608 -87 l 608 -99 q 555 -231 608 -181 q 415 -281 501 -281 l 399 -281 z "},"ĥ":{"ha":797,"x_min":106,"x_max":700,"o":"m 106 972 l 206 972 l 206 597 q 288 675 238 646 q 389 704 338 704 l 486 704 q 641 639 582 704 q 700 468 700 574 l 700 0 l 600 0 l 600 471 q 568 575 600 535 q 483 615 536 615 l 392 615 q 273 565 326 615 q 206 435 219 514 l 206 0 l 106 0 l 106 972 m 363 1310 l 439 1310 l 613 1085 l 518 1085 l 401 1240 l 285 1085 l 190 1085 l 363 1310 z "},"ḥ":{"ha":797,"x_min":106,"x_max":700,"o":"m 106 972 l 206 972 l 206 597 q 288 675 238 646 q 389 704 338 704 l 486 704 q 641 639 582 704 q 700 468 700 574 l 700 0 l 600 0 l 600 471 q 568 575 600 535 q 483 615 536 615 l 392 615 q 273 565 326 615 q 206 435 219 514 l 206 0 l 106 0 l 106 972 m 407 -249 q 353 -228 374 -249 q 332 -174 332 -207 q 353 -119 332 -140 q 407 -99 374 -99 q 461 -119 440 -99 q 482 -174 482 -140 q 461 -228 482 -207 q 407 -249 440 -249 z "},"i":{"ha":361,"x_min":106,"x_max":256,"o":"m 181 797 q 126 818 147 797 q 106 872 106 839 q 126 926 106 906 q 181 947 147 947 q 235 926 214 947 q 256 872 256 906 q 235 818 256 839 q 181 797 214 797 m 131 693 l 231 693 l 231 0 l 131 0 l 131 693 z "},"ı":{"ha":328,"x_min":114,"x_max":214,"o":"m 114 693 l 214 693 l 214 0 l 114 0 l 114 693 z "},"í":{"ha":328,"x_min":113,"x_max":342,"o":"m 114 693 l 214 693 l 214 0 l 114 0 l 114 693 m 228 1057 l 342 1057 l 204 846 l 113 846 l 228 1057 z "},"ĭ":{"ha":328,"x_min":-37,"x_max":365,"o":"m 114 693 l 214 693 l 214 0 l 114 0 l 114 693 m 156 794 q 16 844 69 794 q -37 976 -37 894 l -37 988 l 43 988 l 43 976 q 74 894 43 925 q 156 864 104 864 l 172 864 q 255 894 224 864 q 286 976 286 925 l 286 988 l 365 988 l 365 976 q 312 844 365 894 q 172 794 258 794 l 156 794 z "},"ǐ":{"ha":328,"x_min":-47,"x_max":375,"o":"m 114 693 l 214 693 l 214 0 l 114 0 l 114 693 m -47 1031 l 47 1031 l 164 875 l 281 1031 l 375 1031 l 201 806 l 125 806 l -47 1031 z "},"î":{"ha":328,"x_min":-47,"x_max":375,"o":"m 114 693 l 214 693 l 214 0 l 114 0 l 114 693 m 125 1031 l 201 1031 l 375 806 l 281 806 l 164 961 l 47 806 l -47 806 l 125 1031 z "},"ï":{"ha":328,"x_min":-43,"x_max":369,"o":"m 114 693 l 214 693 l 214 0 l 114 0 l 114 693 m 25 806 q -24 824 -6 806 q -43 874 -43 843 q -24 923 -43 904 q 25 942 -6 942 q 74 923 56 942 q 93 874 93 904 q 74 824 93 843 q 25 806 56 806 m 301 806 q 252 824 271 806 q 233 874 233 843 q 252 923 233 904 q 301 942 271 942 q 351 923 332 942 q 369 874 369 904 q 351 824 369 843 q 301 806 332 806 z "},"ị":{"ha":361,"x_min":106,"x_max":256,"o":"m 181 797 q 126 818 147 797 q 106 872 106 839 q 126 926 106 906 q 181 947 147 947 q 235 926 214 947 q 256 872 256 906 q 235 818 256 839 q 181 797 214 797 m 131 693 l 231 693 l 231 0 l 131 0 l 131 693 m 181 -249 q 126 -228 147 -249 q 106 -174 106 -207 q 126 -119 106 -140 q 181 -99 147 -99 q 235 -119 214 -99 q 256 -174 256 -140 q 235 -228 256 -207 q 181 -249 214 -249 z "},"ì":{"ha":328,"x_min":-7,"x_max":222,"o":"m 114 693 l 214 693 l 214 0 l 114 0 l 114 693 m -7 1057 l 107 1057 l 222 846 l 131 846 l -7 1057 z "},"ỉ":{"ha":328,"x_min":18,"x_max":318,"o":"m 114 693 l 214 693 l 214 0 l 114 0 l 114 693 m 121 808 q 138 857 121 838 q 188 897 156 876 q 223 925 211 914 q 235 951 235 936 l 235 967 q 185 1013 235 1013 l 157 1013 q 99 954 99 1013 l 18 954 q 157 1085 18 1085 l 185 1085 q 284 1055 250 1085 q 318 967 318 1025 l 318 951 q 300 899 318 919 q 249 854 282 878 q 217 830 228 840 q 207 808 207 819 l 207 786 l 121 786 l 121 808 z "},"ĳ":{"ha":697,"x_min":106,"x_max":592,"o":"m 181 797 q 126 818 147 797 q 106 872 106 839 q 126 926 106 906 q 181 947 147 947 q 235 926 214 947 q 256 872 256 906 q 235 818 256 839 q 181 797 214 797 m 131 693 l 231 693 l 231 0 l 131 0 l 131 693 m 517 797 q 463 818 483 797 q 442 872 442 839 q 463 926 442 906 q 517 947 483 947 q 571 926 550 947 q 592 872 592 906 q 571 818 592 839 q 517 797 550 797 m 283 -187 l 332 -187 q 435 -149 404 -187 q 467 -21 467 -110 l 467 693 l 567 693 l 567 -14 q 513 -215 567 -154 q 332 -276 458 -276 l 283 -276 l 283 -187 z "},"ī":{"ha":328,"x_min":-12,"x_max":342,"o":"m 114 693 l 214 693 l 214 0 l 114 0 l 114 693 m -12 892 l 342 892 l 342 819 l -12 819 l -12 892 z "},"į":{"ha":361,"x_min":51,"x_max":296,"o":"m 181 797 q 126 818 147 797 q 106 872 106 839 q 126 926 106 906 q 181 947 147 947 q 235 926 214 947 q 256 872 256 906 q 235 818 256 839 q 181 797 214 797 m 131 693 l 231 693 l 231 0 l 131 0 l 131 693 m 197 -290 q 91 -254 131 -290 q 51 -157 51 -218 l 51 -143 q 74 -60 51 -100 q 136 0 97 -21 l 231 0 q 163 -59 188 -22 q 138 -137 138 -96 l 138 -151 q 155 -197 138 -179 q 204 -215 172 -215 l 218 -215 q 258 -208 236 -215 q 296 -187 279 -200 l 296 -265 q 258 -283 282 -276 q 211 -290 233 -290 l 197 -290 z "},"ĩ":{"ha":328,"x_min":-60,"x_max":389,"o":"m 114 693 l 214 693 l 214 0 l 114 0 l 114 693 m 247 794 q 192 809 215 794 q 144 850 169 824 q 111 879 122 871 q 85 888 100 888 l 71 888 q 35 868 50 888 q 18 817 19 849 l -60 817 q -22 918 -58 879 q 71 957 15 957 l 85 957 q 144 942 119 957 q 196 899 168 926 q 224 872 213 881 q 247 864 235 864 l 261 864 q 295 883 281 864 q 311 935 310 903 l 389 935 q 351 833 388 872 q 261 794 315 794 l 247 794 z "},"j":{"ha":369,"x_min":-44,"x_max":264,"o":"m 189 797 q 135 818 156 797 q 114 872 114 839 q 135 926 114 906 q 189 947 156 947 q 243 926 222 947 q 264 872 264 906 q 243 818 264 839 q 189 797 222 797 m -44 -187 l 4 -187 q 108 -149 76 -187 q 139 -21 139 -110 l 139 693 l 239 693 l 239 -14 q 185 -215 239 -154 q 4 -276 131 -276 l -44 -276 l -44 -187 z "},"ȷ":{"ha":353,"x_min":-44,"x_max":239,"o":"m -44 -187 l 4 -187 q 108 -149 76 -187 q 139 -21 139 -110 l 139 693 l 239 693 l 239 -14 q 185 -215 239 -154 q 4 -276 131 -276 l -44 -276 l -44 -187 z "},"ĵ":{"ha":353,"x_min":-44,"x_max":400,"o":"m -44 -187 l 4 -187 q 108 -149 76 -187 q 139 -21 139 -110 l 139 693 l 239 693 l 239 -14 q 185 -215 239 -154 q 4 -276 131 -276 l -44 -276 l -44 -187 m 150 1031 l 226 1031 l 400 806 l 306 806 l 189 961 l 72 806 l -22 806 l 150 1031 z "},"k":{"ha":710,"x_min":106,"x_max":693,"o":"m 574 0 l 301 328 l 206 232 l 206 0 l 106 0 l 106 972 l 206 972 l 206 354 l 549 693 l 671 693 l 371 396 l 693 0 l 574 0 z "},"ķ":{"ha":710,"x_min":106,"x_max":693,"o":"m 574 0 l 301 328 l 206 232 l 206 0 l 106 0 l 106 972 l 206 972 l 206 354 l 549 693 l 671 693 l 371 396 l 693 0 l 574 0 m 228 -311 l 249 -297 q 310 -233 290 -269 q 331 -147 331 -196 l 331 -104 l 431 -104 l 431 -147 q 401 -279 431 -225 q 311 -372 372 -333 l 285 -389 l 228 -311 z "},"ĸ":{"ha":726,"x_min":106,"x_max":710,"o":"m 590 0 l 314 318 l 206 210 l 206 0 l 106 0 l 106 693 l 206 693 l 206 332 l 563 693 l 685 693 l 379 385 l 710 0 l 590 0 z "},"l":{"ha":372,"x_min":106,"x_max":344,"o":"m 297 0 q 150 44 194 0 q 106 189 106 88 l 106 972 l 206 972 l 206 189 q 227 113 206 136 q 297 89 249 89 l 344 89 l 344 0 l 297 0 z "},"ĺ":{"ha":372,"x_min":106,"x_max":344,"o":"m 297 0 q 150 44 194 0 q 106 189 106 88 l 106 972 l 206 972 l 206 189 q 227 113 206 136 q 297 89 249 89 l 344 89 l 344 0 l 297 0 m 228 1296 l 342 1296 l 204 1085 l 113 1085 l 228 1296 z "},"ľ":{"ha":553,"x_min":106,"x_max":531,"o":"m 297 0 q 150 44 194 0 q 106 189 106 88 l 106 972 l 206 972 l 206 189 q 227 113 206 136 q 297 89 249 89 l 344 89 l 344 0 l 297 0 m 328 765 l 349 779 q 410 844 390 807 q 431 929 431 881 l 431 972 l 531 972 l 531 929 q 501 797 531 851 q 411 704 472 743 l 385 688 l 328 765 z "},"ļ":{"ha":372,"x_min":72,"x_max":344,"o":"m 297 0 q 150 44 194 0 q 106 189 106 88 l 106 972 l 206 972 l 206 189 q 227 113 206 136 q 297 89 249 89 l 344 89 l 344 0 l 297 0 m 72 -311 l 93 -297 q 155 -233 135 -269 q 175 -147 175 -196 l 175 -104 l 275 -104 l 275 -147 q 246 -279 275 -225 q 156 -372 217 -333 l 129 -389 l 72 -311 z "},"ŀ":{"ha":533,"x_min":106,"x_max":517,"o":"m 297 0 q 150 44 194 0 q 106 189 106 88 l 106 972 l 206 972 l 206 189 q 227 113 206 136 q 297 89 249 89 l 344 89 l 344 0 l 297 0 z "},"ḷ":{"ha":372,"x_min":106,"x_max":344,"o":"m 297 0 q 150 44 194 0 q 106 189 106 88 l 106 972 l 206 972 l 206 189 q 227 113 206 136 q 297 89 249 89 l 344 89 l 344 0 l 297 0 m 225 -249 q 171 -228 192 -249 q 150 -174 150 -207 q 171 -119 150 -140 q 225 -99 192 -99 q 279 -119 258 -99 q 300 -174 300 -140 q 279 -228 300 -207 q 225 -249 258 -249 z "},"ḹ":{"ha":372,"x_min":-21,"x_max":344,"o":"m 297 0 q 150 44 194 0 q 106 189 106 88 l 106 972 l 206 972 l 206 189 q 227 113 206 136 q 297 89 249 89 l 344 89 l 344 0 l 297 0 m 225 -249 q 171 -228 192 -249 q 150 -174 150 -207 q 171 -119 150 -140 q 225 -99 192 -99 q 279 -119 258 -99 q 300 -174 300 -140 q 279 -228 300 -207 q 225 -249 258 -249 m -21 1171 l 333 1171 l 333 1099 l -21 1099 l -21 1171 z "},"ḻ":{"ha":372,"x_min":49,"x_max":403,"o":"m 297 0 q 150 44 194 0 q 106 189 106 88 l 106 972 l 206 972 l 206 189 q 227 113 206 136 q 297 89 249 89 l 344 89 l 344 0 l 297 0 m 49 -103 l 403 -103 l 403 -175 l 49 -175 l 49 -103 z "},"ł":{"ha":418,"x_min":31,"x_max":390,"o":"m 390 89 l 390 0 l 343 0 q 196 44 240 0 q 151 189 151 88 l 151 388 l 31 317 l 31 413 l 151 483 l 151 972 l 251 972 l 251 542 l 369 610 l 369 514 l 251 446 l 251 189 q 273 113 251 136 q 343 89 294 89 l 390 89 z "},"m":{"ha":1161,"x_min":106,"x_max":1064,"o":"m 865 704 q 1010 645 957 704 q 1064 482 1064 586 l 1064 0 l 964 0 l 964 485 q 936 581 964 546 q 863 615 908 615 l 783 615 q 685 575 724 615 q 635 461 646 535 l 635 0 l 535 0 l 535 476 q 509 578 535 542 q 439 615 483 615 l 360 615 q 260 565 303 615 q 206 435 217 515 l 206 0 l 106 0 l 106 693 l 203 693 l 203 593 q 272 675 231 646 q 360 704 314 704 l 442 704 q 542 676 500 704 q 607 593 585 647 q 683 676 639 649 q 781 704 728 704 l 865 704 z "},"ṃ":{"ha":1161,"x_min":106,"x_max":1064,"o":"m 865 704 q 1010 645 957 704 q 1064 482 1064 586 l 1064 0 l 964 0 l 964 485 q 936 581 964 546 q 863 615 908 615 l 783 615 q 685 575 724 615 q 635 461 646 535 l 635 0 l 535 0 l 535 476 q 509 578 535 542 q 439 615 483 615 l 360 615 q 260 565 303 615 q 206 435 217 515 l 206 0 l 106 0 l 106 693 l 203 693 l 203 593 q 272 675 231 646 q 360 704 314 704 l 442 704 q 542 676 500 704 q 607 593 585 647 q 683 676 639 649 q 781 704 728 704 l 865 704 m 585 -249 q 531 -228 551 -249 q 510 -174 510 -207 q 531 -119 510 -140 q 585 -99 551 -99 q 639 -119 618 -99 q 660 -174 660 -140 q 639 -228 660 -207 q 585 -249 618 -249 z "},"n":{"ha":794,"x_min":106,"x_max":697,"o":"m 106 693 l 203 693 l 203 590 q 286 672 235 640 q 389 704 338 704 l 483 704 q 638 639 579 704 q 697 468 697 574 l 697 0 l 597 0 l 597 471 q 565 575 597 535 q 481 615 533 615 l 392 615 q 273 564 326 615 q 206 432 219 513 l 206 0 l 106 0 l 106 693 z "},"ń":{"ha":794,"x_min":106,"x_max":697,"o":"m 106 693 l 203 693 l 203 590 q 286 672 235 640 q 389 704 338 704 l 483 704 q 638 639 579 704 q 697 468 697 574 l 697 0 l 597 0 l 597 471 q 565 575 597 535 q 481 615 533 615 l 392 615 q 273 564 326 615 q 206 432 219 513 l 206 0 l 106 0 l 106 693 m 481 1017 l 594 1017 l 457 806 l 365 806 l 481 1017 z "},"ŉ":{"ha":960,"x_min":22,"x_max":863,"o":"m 271 693 l 368 693 l 368 590 q 451 672 400 640 q 554 704 503 704 l 649 704 q 803 639 744 704 q 863 468 863 574 l 863 0 l 763 0 l 763 471 q 731 575 763 535 q 646 615 699 615 l 557 615 q 438 564 492 615 q 371 432 385 513 l 371 0 l 271 0 l 271 693 m 22 765 l 43 779 q 105 844 85 807 q 125 929 125 881 l 125 972 l 225 972 l 225 929 q 196 797 225 851 q 106 704 167 743 l 79 688 l 22 765 z "},"ň":{"ha":794,"x_min":106,"x_max":697,"o":"m 106 693 l 203 693 l 203 590 q 286 672 235 640 q 389 704 338 704 l 483 704 q 638 639 579 704 q 697 468 697 574 l 697 0 l 597 0 l 597 471 q 565 575 597 535 q 481 615 533 615 l 392 615 q 273 564 326 615 q 206 432 219 513 l 206 0 l 106 0 l 106 693 m 197 1031 l 292 1031 l 408 875 l 525 1031 l 619 1031 l 446 806 l 369 806 l 197 1031 z "},"ņ":{"ha":794,"x_min":106,"x_max":697,"o":"m 106 693 l 203 693 l 203 590 q 286 672 235 640 q 389 704 338 704 l 483 704 q 638 639 579 704 q 697 468 697 574 l 697 0 l 597 0 l 597 471 q 565 575 597 535 q 481 615 533 615 l 392 615 q 273 564 326 615 q 206 432 219 513 l 206 0 l 106 0 l 106 693 m 244 -311 l 265 -297 q 327 -233 307 -269 q 347 -147 347 -196 l 347 -104 l 447 -104 l 447 -147 q 418 -279 447 -225 q 328 -372 389 -333 l 301 -389 l 244 -311 z "},"ṅ":{"ha":794,"x_min":106,"x_max":697,"o":"m 106 693 l 203 693 l 203 590 q 286 672 235 640 q 389 704 338 704 l 483 704 q 638 639 579 704 q 697 468 697 574 l 697 0 l 597 0 l 597 471 q 565 575 597 535 q 481 615 533 615 l 392 615 q 273 564 326 615 q 206 432 219 513 l 206 0 l 106 0 l 106 693 m 408 806 q 354 826 375 806 q 333 881 333 847 q 354 935 333 914 q 408 956 375 956 q 463 935 442 956 q 483 881 483 914 q 463 826 483 847 q 408 806 442 806 z "},"ṇ":{"ha":794,"x_min":106,"x_max":697,"o":"m 106 693 l 203 693 l 203 590 q 286 672 235 640 q 389 704 338 704 l 483 704 q 638 639 579 704 q 697 468 697 574 l 697 0 l 597 0 l 597 471 q 565 575 597 535 q 481 615 533 615 l 392 615 q 273 564 326 615 q 206 432 219 513 l 206 0 l 106 0 l 106 693 m 397 -249 q 343 -228 364 -249 q 322 -174 322 -207 q 343 -119 322 -140 q 397 -99 364 -99 q 451 -119 431 -99 q 472 -174 472 -140 q 451 -228 472 -207 q 397 -249 431 -249 z "},"ŋ":{"ha":794,"x_min":106,"x_max":697,"o":"m 414 -187 l 463 -187 q 566 -149 535 -187 q 597 -21 597 -110 l 597 471 q 565 575 597 535 q 481 615 533 615 l 392 615 q 273 564 326 615 q 206 432 219 513 l 206 0 l 106 0 l 106 693 l 203 693 l 203 590 q 286 672 235 640 q 389 704 338 704 l 483 704 q 638 639 579 704 q 697 468 697 574 l 697 -14 q 643 -215 697 -154 q 463 -276 589 -276 l 414 -276 l 414 -187 z "},"ṉ":{"ha":794,"x_min":106,"x_max":697,"o":"m 106 693 l 203 693 l 203 590 q 286 672 235 640 q 389 704 338 704 l 483 704 q 638 639 579 704 q 697 468 697 574 l 697 0 l 597 0 l 597 471 q 565 575 597 535 q 481 615 533 615 l 392 615 q 273 564 326 615 q 206 432 219 513 l 206 0 l 106 0 l 106 693 m 221 -103 l 575 -103 l 575 -175 l 221 -175 l 221 -103 z "},"ñ":{"ha":794,"x_min":106,"x_max":697,"o":"m 106 693 l 203 693 l 203 590 q 286 672 235 640 q 389 704 338 704 l 483 704 q 638 639 579 704 q 697 468 697 574 l 697 0 l 597 0 l 597 471 q 565 575 597 535 q 481 615 533 615 l 392 615 q 273 564 326 615 q 206 432 219 513 l 206 0 l 106 0 l 106 693 m 492 794 q 437 809 460 794 q 389 850 414 824 q 356 879 367 871 q 329 888 344 888 l 315 888 q 279 868 294 888 q 263 817 264 849 l 185 817 q 223 918 186 879 q 315 957 260 957 l 329 957 q 388 942 364 957 q 440 899 413 926 q 468 872 457 881 q 492 864 479 864 l 506 864 q 540 883 525 864 q 556 935 554 903 l 633 935 q 596 833 632 872 q 506 794 560 794 l 492 794 z "},"o":{"ha":792,"x_min":78,"x_max":714,"o":"m 336 -11 q 149 61 219 -11 q 78 251 78 133 l 78 442 q 149 632 78 560 q 339 704 221 704 l 453 704 q 642 632 571 704 q 714 442 714 560 l 714 251 q 642 61 714 133 q 450 -11 569 -11 l 336 -11 m 450 78 q 569 126 525 78 q 614 251 614 174 l 614 442 q 569 567 614 519 q 453 615 525 615 l 339 615 q 222 567 267 615 q 178 442 178 519 l 178 251 q 221 125 178 172 q 336 78 264 78 l 450 78 z "},"ó":{"ha":792,"x_min":78,"x_max":714,"o":"m 336 -11 q 149 61 219 -11 q 78 251 78 133 l 78 442 q 149 632 78 560 q 339 704 221 704 l 453 704 q 642 632 571 704 q 714 442 714 560 l 714 251 q 642 61 714 133 q 450 -11 569 -11 l 336 -11 m 450 78 q 569 126 525 78 q 614 251 614 174 l 614 442 q 569 567 614 519 q 453 615 525 615 l 339 615 q 222 567 267 615 q 178 442 178 519 l 178 251 q 221 125 178 172 q 336 78 264 78 l 450 78 m 468 1017 l 582 1017 l 444 806 l 353 806 l 468 1017 z "},"ŏ":{"ha":792,"x_min":78,"x_max":714,"o":"m 336 -11 q 149 61 219 -11 q 78 251 78 133 l 78 442 q 149 632 78 560 q 339 704 221 704 l 453 704 q 642 632 571 704 q 714 442 714 560 l 714 251 q 642 61 714 133 q 450 -11 569 -11 l 336 -11 m 450 78 q 569 126 525 78 q 614 251 614 174 l 614 442 q 569 567 614 519 q 453 615 525 615 l 339 615 q 222 567 267 615 q 178 442 178 519 l 178 251 q 221 125 178 172 q 336 78 264 78 l 450 78 m 388 794 q 248 844 301 794 q 194 976 194 894 l 194 988 l 275 988 l 275 976 q 306 894 275 925 q 388 864 336 864 l 404 864 q 487 894 456 864 q 518 976 518 925 l 518 988 l 597 988 l 597 976 q 544 844 597 894 q 404 794 490 794 l 388 794 z "},"ǒ":{"ha":792,"x_min":78,"x_max":714,"o":"m 336 -11 q 149 61 219 -11 q 78 251 78 133 l 78 442 q 149 632 78 560 q 339 704 221 704 l 453 704 q 642 632 571 704 q 714 442 714 560 l 714 251 q 642 61 714 133 q 450 -11 569 -11 l 336 -11 m 450 78 q 569 126 525 78 q 614 251 614 174 l 614 442 q 569 567 614 519 q 453 615 525 615 l 339 615 q 222 567 267 615 q 178 442 178 519 l 178 251 q 221 125 178 172 q 336 78 264 78 l 450 78 m 185 1031 l 279 1031 l 396 875 l 513 1031 l 607 1031 l 433 806 l 357 806 l 185 1031 z "},"ô":{"ha":792,"x_min":78,"x_max":714,"o":"m 336 -11 q 149 61 219 -11 q 78 251 78 133 l 78 442 q 149 632 78 560 q 339 704 221 704 l 453 704 q 642 632 571 704 q 714 442 714 560 l 714 251 q 642 61 714 133 q 450 -11 569 -11 l 336 -11 m 450 78 q 569 126 525 78 q 614 251 614 174 l 614 442 q 569 567 614 519 q 453 615 525 615 l 339 615 q 222 567 267 615 q 178 442 178 519 l 178 251 q 221 125 178 172 q 336 78 264 78 l 450 78 m 357 1031 l 433 1031 l 607 806 l 513 806 l 396 961 l 279 806 l 185 806 l 357 1031 z "},"ố":{"ha":792,"x_min":78,"x_max":732,"o":"m 336 -11 q 149 61 219 -11 q 78 251 78 133 l 78 442 q 149 632 78 560 q 339 704 221 704 l 453 704 q 642 632 571 704 q 714 442 714 560 l 714 251 q 642 61 714 133 q 450 -11 569 -11 l 336 -11 m 450 78 q 569 126 525 78 q 614 251 614 174 l 614 442 q 569 567 614 519 q 453 615 525 615 l 339 615 q 222 567 267 615 q 178 442 178 519 l 178 251 q 221 125 178 172 q 336 78 264 78 l 450 78 m 635 1178 l 732 1178 l 626 1017 l 546 1017 l 635 1178 m 357 1031 l 433 1031 l 607 806 l 513 806 l 396 961 l 279 806 l 185 806 l 357 1031 z "},"ộ":{"ha":792,"x_min":78,"x_max":714,"o":"m 336 -11 q 149 61 219 -11 q 78 251 78 133 l 78 442 q 149 632 78 560 q 339 704 221 704 l 453 704 q 642 632 571 704 q 714 442 714 560 l 714 251 q 642 61 714 133 q 450 -11 569 -11 l 336 -11 m 450 78 q 569 126 525 78 q 614 251 614 174 l 614 442 q 569 567 614 519 q 453 615 525 615 l 339 615 q 222 567 267 615 q 178 442 178 519 l 178 251 q 221 125 178 172 q 336 78 264 78 l 450 78 m 396 -249 q 342 -228 363 -249 q 321 -174 321 -207 q 342 -119 321 -140 q 396 -99 363 -99 q 450 -119 429 -99 q 471 -174 471 -140 q 450 -228 471 -207 q 396 -249 429 -249 m 357 1031 l 433 1031 l 607 806 l 513 806 l 396 961 l 279 806 l 185 806 l 357 1031 z "},"ồ":{"ha":792,"x_min":78,"x_max":714,"o":"m 336 -11 q 149 61 219 -11 q 78 251 78 133 l 78 442 q 149 632 78 560 q 339 704 221 704 l 453 704 q 642 632 571 704 q 714 442 714 560 l 714 251 q 642 61 714 133 q 450 -11 569 -11 l 336 -11 m 450 78 q 569 126 525 78 q 614 251 614 174 l 614 442 q 569 567 614 519 q 453 615 525 615 l 339 615 q 222 567 267 615 q 178 442 178 519 l 178 251 q 221 125 178 172 q 336 78 264 78 l 450 78 m 476 1178 l 574 1178 l 663 1017 l 582 1017 l 476 1178 m 357 1031 l 433 1031 l 607 806 l 513 806 l 396 961 l 279 806 l 185 806 l 357 1031 z "},"ổ":{"ha":792,"x_min":78,"x_max":714,"o":"m 336 -11 q 149 61 219 -11 q 78 251 78 133 l 78 442 q 149 632 78 560 q 339 704 221 704 l 453 704 q 642 632 571 704 q 714 442 714 560 l 714 251 q 642 61 714 133 q 450 -11 569 -11 l 336 -11 m 450 78 q 569 126 525 78 q 614 251 614 174 l 614 442 q 569 567 614 519 q 453 615 525 615 l 339 615 q 222 567 267 615 q 178 442 178 519 l 178 251 q 221 125 178 172 q 336 78 264 78 l 450 78 m 550 1014 q 565 1053 550 1038 q 606 1086 579 1069 q 635 1109 625 1100 q 644 1131 644 1118 l 644 1143 q 633 1171 644 1161 q 603 1181 622 1181 l 581 1181 q 532 1133 532 1181 l 465 1133 q 581 1242 465 1242 l 603 1242 q 714 1143 714 1242 l 714 1131 q 698 1086 714 1104 q 656 1051 682 1068 q 631 1032 639 1040 q 622 1014 622 1024 l 622 1003 l 550 1003 l 550 1014 m 357 1031 l 433 1031 l 607 806 l 513 806 l 396 961 l 279 806 l 185 806 l 357 1031 z "},"ỗ":{"ha":792,"x_min":78,"x_max":714,"o":"m 336 -11 q 149 61 219 -11 q 78 251 78 133 l 78 442 q 149 632 78 560 q 339 704 221 704 l 453 704 q 642 632 571 704 q 714 442 714 560 l 714 251 q 642 61 714 133 q 450 -11 569 -11 l 336 -11 m 450 78 q 569 126 525 78 q 614 251 614 174 l 614 442 q 569 567 614 519 q 453 615 525 615 l 339 615 q 222 567 267 615 q 178 442 178 519 l 178 251 q 221 125 178 172 q 336 78 264 78 l 450 78 m 472 1079 q 425 1092 444 1079 q 382 1128 406 1104 q 353 1153 364 1146 q 329 1161 342 1161 l 317 1161 q 286 1144 299 1161 q 272 1099 274 1126 l 204 1099 q 237 1188 206 1154 q 317 1222 268 1222 l 329 1222 q 383 1208 361 1222 q 426 1171 404 1194 q 452 1147 443 1154 q 472 1140 461 1140 l 485 1140 q 513 1158 501 1140 q 526 1203 525 1175 l 594 1203 q 563 1113 593 1147 q 485 1079 532 1079 l 472 1079 m 357 1031 l 433 1031 l 607 806 l 513 806 l 396 961 l 279 806 l 185 806 l 357 1031 z "},"ö":{"ha":792,"x_min":78,"x_max":714,"o":"m 336 -11 q 149 61 219 -11 q 78 251 78 133 l 78 442 q 149 632 78 560 q 339 704 221 704 l 453 704 q 642 632 571 704 q 714 442 714 560 l 714 251 q 642 61 714 133 q 450 -11 569 -11 l 336 -11 m 450 78 q 569 126 525 78 q 614 251 614 174 l 614 442 q 569 567 614 519 q 453 615 525 615 l 339 615 q 222 567 267 615 q 178 442 178 519 l 178 251 q 221 125 178 172 q 336 78 264 78 l 450 78 m 257 806 q 208 824 226 806 q 189 874 189 843 q 208 923 189 904 q 257 942 226 942 q 306 923 288 942 q 325 874 325 904 q 306 824 325 843 q 257 806 288 806 m 533 806 q 484 824 503 806 q 465 874 465 843 q 484 923 465 904 q 533 942 503 942 q 583 923 564 942 q 601 874 601 904 q 583 824 601 843 q 533 806 564 806 z "},"ọ":{"ha":792,"x_min":78,"x_max":714,"o":"m 336 -11 q 149 61 219 -11 q 78 251 78 133 l 78 442 q 149 632 78 560 q 339 704 221 704 l 453 704 q 642 632 571 704 q 714 442 714 560 l 714 251 q 642 61 714 133 q 450 -11 569 -11 l 336 -11 m 450 78 q 569 126 525 78 q 614 251 614 174 l 614 442 q 569 567 614 519 q 453 615 525 615 l 339 615 q 222 567 267 615 q 178 442 178 519 l 178 251 q 221 125 178 172 q 336 78 264 78 l 450 78 m 396 -249 q 342 -228 363 -249 q 321 -174 321 -207 q 342 -119 321 -140 q 396 -99 363 -99 q 450 -119 429 -99 q 471 -174 471 -140 q 450 -228 471 -207 q 396 -249 429 -249 z "},"ò":{"ha":792,"x_min":78,"x_max":714,"o":"m 336 -11 q 149 61 219 -11 q 78 251 78 133 l 78 442 q 149 632 78 560 q 339 704 221 704 l 453 704 q 642 632 571 704 q 714 442 714 560 l 714 251 q 642 61 714 133 q 450 -11 569 -11 l 336 -11 m 450 78 q 569 126 525 78 q 614 251 614 174 l 614 442 q 569 567 614 519 q 453 615 525 615 l 339 615 q 222 567 267 615 q 178 442 178 519 l 178 251 q 221 125 178 172 q 336 78 264 78 l 450 78 m 214 1017 l 328 1017 l 443 806 l 351 806 l 214 1017 z "},"ỏ":{"ha":792,"x_min":78,"x_max":714,"o":"m 336 -11 q 149 61 219 -11 q 78 251 78 133 l 78 442 q 149 632 78 560 q 339 704 221 704 l 453 704 q 642 632 571 704 q 714 442 714 560 l 714 251 q 642 61 714 133 q 450 -11 569 -11 l 336 -11 m 450 78 q 569 126 525 78 q 614 251 614 174 l 614 442 q 569 567 614 519 q 453 615 525 615 l 339 615 q 222 567 267 615 q 178 442 178 519 l 178 251 q 221 125 178 172 q 336 78 264 78 l 450 78 m 347 808 q 365 857 347 838 q 414 897 382 876 q 449 925 438 914 q 461 951 461 936 l 461 967 q 411 1013 461 1013 l 383 1013 q 325 954 325 1013 l 244 954 q 383 1085 244 1085 l 411 1085 q 510 1055 476 1085 q 544 967 544 1025 l 544 951 q 526 899 544 919 q 475 854 508 878 q 444 830 454 840 q 433 808 433 819 l 433 786 l 347 786 l 347 808 z "},"ơ":{"ha":881,"x_min":78,"x_max":896,"o":"m 896 690 l 896 674 q 848 506 896 568 q 714 435 800 443 l 714 251 q 642 61 714 133 q 450 -11 569 -11 l 336 -11 q 149 61 219 -11 q 78 251 78 133 l 78 442 q 149 632 78 560 q 339 704 221 704 l 453 704 q 617 654 550 704 q 706 518 683 604 q 777 563 753 524 q 801 674 801 603 l 801 690 l 896 690 m 614 442 q 569 567 614 519 q 453 615 525 615 l 339 615 q 222 567 267 615 q 178 442 178 519 l 178 251 q 221 125 178 172 q 336 78 264 78 l 450 78 q 569 126 525 78 q 614 251 614 174 l 614 442 z "},"ớ":{"ha":881,"x_min":78,"x_max":896,"o":"m 896 690 l 896 674 q 848 506 896 568 q 714 435 800 443 l 714 251 q 642 61 714 133 q 450 -11 569 -11 l 336 -11 q 149 61 219 -11 q 78 251 78 133 l 78 442 q 149 632 78 560 q 339 704 221 704 l 453 704 q 617 654 550 704 q 706 518 683 604 q 777 563 753 524 q 801 674 801 603 l 801 690 l 896 690 m 614 442 q 569 567 614 519 q 453 615 525 615 l 339 615 q 222 567 267 615 q 178 442 178 519 l 178 251 q 221 125 178 172 q 336 78 264 78 l 450 78 q 569 126 525 78 q 614 251 614 174 l 614 442 m 468 1017 l 582 1017 l 444 806 l 353 806 l 468 1017 z "},"ợ":{"ha":881,"x_min":78,"x_max":896,"o":"m 896 690 l 896 674 q 848 506 896 568 q 714 435 800 443 l 714 251 q 642 61 714 133 q 450 -11 569 -11 l 336 -11 q 149 61 219 -11 q 78 251 78 133 l 78 442 q 149 632 78 560 q 339 704 221 704 l 453 704 q 617 654 550 704 q 706 518 683 604 q 777 563 753 524 q 801 674 801 603 l 801 690 l 896 690 m 614 442 q 569 567 614 519 q 453 615 525 615 l 339 615 q 222 567 267 615 q 178 442 178 519 l 178 251 q 221 125 178 172 q 336 78 264 78 l 450 78 q 569 126 525 78 q 614 251 614 174 l 614 442 m 396 -249 q 342 -228 363 -249 q 321 -174 321 -207 q 342 -119 321 -140 q 396 -99 363 -99 q 450 -119 429 -99 q 471 -174 471 -140 q 450 -228 471 -207 q 396 -249 429 -249 z "},"ờ":{"ha":881,"x_min":78,"x_max":896,"o":"m 896 690 l 896 674 q 848 506 896 568 q 714 435 800 443 l 714 251 q 642 61 714 133 q 450 -11 569 -11 l 336 -11 q 149 61 219 -11 q 78 251 78 133 l 78 442 q 149 632 78 560 q 339 704 221 704 l 453 704 q 617 654 550 704 q 706 518 683 604 q 777 563 753 524 q 801 674 801 603 l 801 690 l 896 690 m 614 442 q 569 567 614 519 q 453 615 525 615 l 339 615 q 222 567 267 615 q 178 442 178 519 l 178 251 q 221 125 178 172 q 336 78 264 78 l 450 78 q 569 126 525 78 q 614 251 614 174 l 614 442 m 214 1017 l 328 1017 l 443 806 l 351 806 l 214 1017 z "},"ở":{"ha":881,"x_min":78,"x_max":896,"o":"m 896 690 l 896 674 q 848 506 896 568 q 714 435 800 443 l 714 251 q 642 61 714 133 q 450 -11 569 -11 l 336 -11 q 149 61 219 -11 q 78 251 78 133 l 78 442 q 149 632 78 560 q 339 704 221 704 l 453 704 q 617 654 550 704 q 706 518 683 604 q 777 563 753 524 q 801 674 801 603 l 801 690 l 896 690 m 614 442 q 569 567 614 519 q 453 615 525 615 l 339 615 q 222 567 267 615 q 178 442 178 519 l 178 251 q 221 125 178 172 q 336 78 264 78 l 450 78 q 569 126 525 78 q 614 251 614 174 l 614 442 m 347 808 q 365 857 347 838 q 414 897 382 876 q 449 925 438 914 q 461 951 461 936 l 461 967 q 411 1013 461 1013 l 383 1013 q 325 954 325 1013 l 244 954 q 383 1085 244 1085 l 411 1085 q 510 1055 476 1085 q 544 967 544 1025 l 544 951 q 526 899 544 919 q 475 854 508 878 q 444 830 454 840 q 433 808 433 819 l 433 786 l 347 786 l 347 808 z "},"ỡ":{"ha":881,"x_min":78,"x_max":896,"o":"m 896 690 l 896 674 q 848 506 896 568 q 714 435 800 443 l 714 251 q 642 61 714 133 q 450 -11 569 -11 l 336 -11 q 149 61 219 -11 q 78 251 78 133 l 78 442 q 149 632 78 560 q 339 704 221 704 l 453 704 q 617 654 550 704 q 706 518 683 604 q 777 563 753 524 q 801 674 801 603 l 801 690 l 896 690 m 614 442 q 569 567 614 519 q 453 615 525 615 l 339 615 q 222 567 267 615 q 178 442 178 519 l 178 251 q 221 125 178 172 q 336 78 264 78 l 450 78 q 569 126 525 78 q 614 251 614 174 l 614 442 m 479 794 q 424 809 447 794 q 376 850 401 824 q 343 879 354 871 q 317 888 332 888 l 303 888 q 267 868 282 888 q 250 817 251 849 l 172 817 q 210 918 174 879 q 303 957 247 957 l 317 957 q 376 942 351 957 q 428 899 400 926 q 456 872 444 881 q 479 864 467 864 l 493 864 q 527 883 513 864 q 543 935 542 903 l 621 935 q 583 833 619 872 q 493 794 547 794 l 479 794 z "},"ő":{"ha":792,"x_min":78,"x_max":714,"o":"m 336 -11 q 149 61 219 -11 q 78 251 78 133 l 78 442 q 149 632 78 560 q 339 704 221 704 l 453 704 q 642 632 571 704 q 714 442 714 560 l 714 251 q 642 61 714 133 q 450 -11 569 -11 l 336 -11 m 450 78 q 569 126 525 78 q 614 251 614 174 l 614 442 q 569 567 614 519 q 453 615 525 615 l 339 615 q 222 567 267 615 q 178 442 178 519 l 178 251 q 221 125 178 172 q 336 78 264 78 l 450 78 m 360 1017 l 468 1017 l 336 806 l 250 806 l 360 1017 m 539 1017 l 647 1017 l 515 806 l 429 806 l 539 1017 z "},"ō":{"ha":792,"x_min":78,"x_max":714,"o":"m 336 -11 q 149 61 219 -11 q 78 251 78 133 l 78 442 q 149 632 78 560 q 339 704 221 704 l 453 704 q 642 632 571 704 q 714 442 714 560 l 714 251 q 642 61 714 133 q 450 -11 569 -11 l 336 -11 m 450 78 q 569 126 525 78 q 614 251 614 174 l 614 442 q 569 567 614 519 q 453 615 525 615 l 339 615 q 222 567 267 615 q 178 442 178 519 l 178 251 q 221 125 178 172 q 336 78 264 78 l 450 78 m 219 892 l 574 892 l 574 819 l 219 819 l 219 892 z "},"ø":{"ha":792,"x_min":71,"x_max":721,"o":"m 643 631 q 695 547 676 596 q 714 442 714 499 l 714 251 q 642 61 714 133 q 450 -11 569 -11 l 336 -11 q 213 15 269 -11 l 168 -49 l 71 -49 l 147 61 q 96 144 114 96 q 78 251 78 193 l 78 442 q 149 632 78 560 q 339 704 221 704 l 453 704 q 578 678 521 704 l 624 743 l 721 743 l 643 631 m 178 251 q 206 144 178 189 l 524 600 q 453 615 490 615 l 339 615 q 222 567 267 615 q 178 442 178 519 l 178 251 m 614 442 q 585 549 614 506 l 267 92 q 336 78 299 78 l 450 78 q 569 126 525 78 q 614 251 614 174 l 614 442 z "},"ǿ":{"ha":792,"x_min":71,"x_max":721,"o":"m 643 631 q 695 547 676 596 q 714 442 714 499 l 714 251 q 642 61 714 133 q 450 -11 569 -11 l 336 -11 q 213 15 269 -11 l 168 -49 l 71 -49 l 147 61 q 96 144 114 96 q 78 251 78 193 l 78 442 q 149 632 78 560 q 339 704 221 704 l 453 704 q 578 678 521 704 l 624 743 l 721 743 l 643 631 m 178 251 q 206 144 178 189 l 524 600 q 453 615 490 615 l 339 615 q 222 567 267 615 q 178 442 178 519 l 178 251 m 614 442 q 585 549 614 506 l 267 92 q 336 78 299 78 l 450 78 q 569 126 525 78 q 614 251 614 174 l 614 442 m 463 1017 l 576 1017 l 439 806 l 347 806 l 463 1017 z "},"õ":{"ha":792,"x_min":78,"x_max":714,"o":"m 336 -11 q 149 61 219 -11 q 78 251 78 133 l 78 442 q 149 632 78 560 q 339 704 221 704 l 453 704 q 642 632 571 704 q 714 442 714 560 l 714 251 q 642 61 714 133 q 450 -11 569 -11 l 336 -11 m 450 78 q 569 126 525 78 q 614 251 614 174 l 614 442 q 569 567 614 519 q 453 615 525 615 l 339 615 q 222 567 267 615 q 178 442 178 519 l 178 251 q 221 125 178 172 q 336 78 264 78 l 450 78 m 479 794 q 424 809 447 794 q 376 850 401 824 q 343 879 354 871 q 317 888 332 888 l 303 888 q 267 868 282 888 q 250 817 251 849 l 172 817 q 210 918 174 879 q 303 957 247 957 l 317 957 q 376 942 351 957 q 428 899 400 926 q 456 872 444 881 q 479 864 467 864 l 493 864 q 527 883 513 864 q 543 935 542 903 l 621 935 q 583 833 619 872 q 493 794 547 794 l 479 794 z "},"œ":{"ha":1292,"x_min":78,"x_max":1222,"o":"m 708 324 l 708 240 q 751 122 708 167 q 867 78 794 78 l 969 78 q 1081 116 1039 78 q 1122 218 1122 154 l 1219 218 q 1151 52 1219 115 q 969 -11 1082 -11 l 867 -11 q 741 16 796 -11 q 654 94 686 43 q 444 -11 588 -11 l 336 -11 q 149 61 219 -11 q 78 251 78 133 l 78 442 q 149 632 78 560 q 336 704 219 704 l 450 704 q 572 676 519 704 q 657 597 624 649 q 744 676 690 649 q 867 704 797 704 l 978 704 q 1155 633 1088 704 q 1222 446 1222 563 l 1222 324 l 708 324 m 608 442 q 565 567 608 519 q 450 615 521 615 l 336 615 q 222 567 265 615 q 178 442 178 519 l 178 251 q 222 126 178 174 q 336 78 265 78 l 444 78 q 563 126 518 78 q 608 251 608 174 l 608 442 m 708 410 l 1122 410 l 1122 446 q 1083 569 1122 522 q 978 615 1044 615 l 867 615 q 751 567 794 615 q 708 439 708 518 l 708 410 z "},"p":{"ha":803,"x_min":106,"x_max":725,"o":"m 106 693 l 203 693 l 203 599 q 280 675 232 646 q 376 704 328 704 l 476 704 q 656 633 588 704 q 725 446 725 563 l 725 275 q 655 67 725 146 q 469 -11 585 -11 l 369 -11 q 279 13 326 -11 q 206 76 232 38 l 206 -276 l 106 -276 l 106 693 m 467 78 q 582 132 539 78 q 625 275 625 186 l 625 446 q 583 569 625 522 q 474 615 542 615 l 376 615 q 271 570 318 615 q 206 454 224 525 l 206 246 q 263 125 215 172 q 375 78 310 78 l 467 78 z "},"þ":{"ha":803,"x_min":106,"x_max":725,"o":"m 106 972 l 206 972 l 206 603 q 281 676 235 649 q 376 704 328 704 l 476 704 q 656 633 588 704 q 725 446 725 563 l 725 272 q 655 65 725 143 q 469 -14 585 -14 l 369 -14 q 279 10 326 -14 q 206 74 232 35 l 206 -282 l 106 -282 l 106 972 m 467 75 q 582 129 539 75 q 625 272 625 183 l 625 446 q 583 569 625 522 q 474 615 542 615 l 376 615 q 271 570 318 615 q 206 454 224 525 l 206 243 q 263 122 215 169 q 375 75 310 75 l 467 75 z "},"q":{"ha":803,"x_min":78,"x_max":697,"o":"m 597 82 q 519 15 568 40 q 422 -11 469 -11 l 321 -11 q 144 62 211 -11 q 78 253 78 135 l 78 426 q 149 628 78 551 q 335 704 219 704 l 435 704 q 527 680 481 704 q 600 615 574 656 l 600 693 l 697 693 l 697 -282 l 597 -282 l 597 82 m 422 78 q 542 132 492 78 q 597 269 592 186 l 597 454 q 545 570 592 525 q 435 615 499 615 l 335 615 q 221 563 264 615 q 178 426 178 511 l 178 253 q 218 126 178 174 q 324 78 258 78 l 422 78 z "},"r":{"ha":493,"x_min":106,"x_max":465,"o":"m 106 693 l 203 693 l 203 586 q 287 665 231 635 q 404 696 343 696 l 465 696 l 465 606 l 404 606 q 260 549 315 606 q 206 400 206 493 l 206 0 l 106 0 l 106 693 z "},"ŕ":{"ha":493,"x_min":106,"x_max":465,"o":"m 106 693 l 203 693 l 203 586 q 287 665 231 635 q 404 696 343 696 l 465 696 l 465 606 l 404 606 q 260 549 315 606 q 206 400 206 493 l 206 0 l 106 0 l 106 693 m 350 1017 l 464 1017 l 326 806 l 235 806 l 350 1017 z "},"ř":{"ha":493,"x_min":67,"x_max":489,"o":"m 106 693 l 203 693 l 203 586 q 287 665 231 635 q 404 696 343 696 l 465 696 l 465 606 l 404 606 q 260 549 315 606 q 206 400 206 493 l 206 0 l 106 0 l 106 693 m 67 1031 l 161 1031 l 278 875 l 394 1031 l 489 1031 l 315 806 l 239 806 l 67 1031 z "},"ŗ":{"ha":493,"x_min":3,"x_max":465,"o":"m 106 693 l 203 693 l 203 586 q 287 665 231 635 q 404 696 343 696 l 465 696 l 465 606 l 404 606 q 260 549 315 606 q 206 400 206 493 l 206 0 l 106 0 l 106 693 m 3 -311 l 24 -297 q 85 -233 65 -269 q 106 -147 106 -196 l 106 -104 l 206 -104 l 206 -147 q 176 -279 206 -225 q 86 -372 147 -333 l 60 -389 l 3 -311 z "},"ṛ":{"ha":493,"x_min":81,"x_max":465,"o":"m 106 693 l 203 693 l 203 586 q 287 665 231 635 q 404 696 343 696 l 465 696 l 465 606 l 404 606 q 260 549 315 606 q 206 400 206 493 l 206 0 l 106 0 l 106 693 m 156 -249 q 101 -228 122 -249 q 81 -174 81 -207 q 101 -119 81 -140 q 156 -99 122 -99 q 210 -119 189 -99 q 231 -174 231 -140 q 210 -228 231 -207 q 156 -249 189 -249 z "},"ṝ":{"ha":493,"x_min":81,"x_max":465,"o":"m 106 693 l 203 693 l 203 586 q 287 665 231 635 q 404 696 343 696 l 465 696 l 465 606 l 404 606 q 260 549 315 606 q 206 400 206 493 l 206 0 l 106 0 l 106 693 m 156 -249 q 101 -228 122 -249 q 81 -174 81 -207 q 101 -119 81 -140 q 156 -99 122 -99 q 210 -119 189 -99 q 231 -174 231 -140 q 210 -228 231 -207 q 156 -249 189 -249 m 101 892 l 456 892 l 456 819 l 101 819 l 101 892 z "},"ṟ":{"ha":493,"x_min":-21,"x_max":465,"o":"m 106 693 l 203 693 l 203 586 q 287 665 231 635 q 404 696 343 696 l 465 696 l 465 606 l 404 606 q 260 549 315 606 q 206 400 206 493 l 206 0 l 106 0 l 106 693 m -21 -103 l 333 -103 l 333 -175 l -21 -175 l -21 -103 z "},"s":{"ha":722,"x_min":69,"x_max":658,"o":"m 303 -11 q 133 49 197 -11 q 69 206 69 108 l 167 206 q 204 111 167 147 q 303 75 242 75 l 424 75 q 521 99 483 75 q 558 163 558 124 l 558 210 q 538 256 558 236 q 483 283 517 276 l 243 325 q 127 380 171 338 q 83 479 83 422 l 83 525 q 144 655 83 606 q 306 704 206 704 l 425 704 q 582 649 522 704 q 642 504 642 594 l 544 504 q 510 587 543 556 q 425 618 478 618 l 306 618 q 217 592 250 618 q 183 525 183 567 l 183 485 q 206 438 183 458 q 265 411 229 417 l 504 369 q 616 315 574 357 q 658 215 658 274 l 658 160 q 594 36 658 83 q 424 -11 529 -11 l 303 -11 z "},"ś":{"ha":722,"x_min":69,"x_max":658,"o":"m 303 -11 q 133 49 197 -11 q 69 206 69 108 l 167 206 q 204 111 167 147 q 303 75 242 75 l 424 75 q 521 99 483 75 q 558 163 558 124 l 558 210 q 538 256 558 236 q 483 283 517 276 l 243 325 q 127 380 171 338 q 83 479 83 422 l 83 525 q 144 655 83 606 q 306 704 206 704 l 425 704 q 582 649 522 704 q 642 504 642 594 l 544 504 q 510 587 543 556 q 425 618 478 618 l 306 618 q 217 592 250 618 q 183 525 183 567 l 183 485 q 206 438 183 458 q 265 411 229 417 l 504 369 q 616 315 574 357 q 658 215 658 274 l 658 160 q 594 36 658 83 q 424 -11 529 -11 l 303 -11 m 435 1017 l 549 1017 l 411 806 l 319 806 l 435 1017 z "},"š":{"ha":722,"x_min":69,"x_max":658,"o":"m 303 -11 q 133 49 197 -11 q 69 206 69 108 l 167 206 q 204 111 167 147 q 303 75 242 75 l 424 75 q 521 99 483 75 q 558 163 558 124 l 558 210 q 538 256 558 236 q 483 283 517 276 l 243 325 q 127 380 171 338 q 83 479 83 422 l 83 525 q 144 655 83 606 q 306 704 206 704 l 425 704 q 582 649 522 704 q 642 504 642 594 l 544 504 q 510 587 543 556 q 425 618 478 618 l 306 618 q 217 592 250 618 q 183 525 183 567 l 183 485 q 206 438 183 458 q 265 411 229 417 l 504 369 q 616 315 574 357 q 658 215 658 274 l 658 160 q 594 36 658 83 q 424 -11 529 -11 l 303 -11 m 151 1031 l 246 1031 l 363 875 l 479 1031 l 574 1031 l 400 806 l 324 806 l 151 1031 z "},"ş":{"ha":722,"x_min":69,"x_max":658,"o":"m 504 369 q 616 315 574 357 q 658 215 658 274 l 658 160 q 594 36 658 83 q 424 -11 529 -11 l 407 -11 l 378 -75 l 388 -75 q 474 -104 442 -75 q 507 -181 507 -133 l 507 -196 q 467 -278 507 -247 q 361 -310 426 -310 l 285 -310 l 285 -243 l 358 -243 q 408 -230 389 -243 q 428 -196 428 -217 l 428 -181 q 410 -147 428 -160 q 365 -133 393 -133 l 300 -133 l 300 -72 l 326 -11 l 303 -11 q 133 49 197 -11 q 69 206 69 108 l 167 206 q 204 111 167 147 q 303 75 242 75 l 424 75 q 521 99 483 75 q 558 163 558 124 l 558 210 q 538 256 558 236 q 483 283 517 276 l 243 325 q 127 380 171 338 q 83 479 83 422 l 83 525 q 144 655 83 606 q 306 704 206 704 l 425 704 q 582 649 522 704 q 642 504 642 594 l 544 504 q 510 587 543 556 q 425 618 478 618 l 306 618 q 217 592 250 618 q 183 525 183 567 l 183 485 q 206 438 183 458 q 265 411 229 417 l 504 369 z "},"ŝ":{"ha":722,"x_min":69,"x_max":658,"o":"m 303 -11 q 133 49 197 -11 q 69 206 69 108 l 167 206 q 204 111 167 147 q 303 75 242 75 l 424 75 q 521 99 483 75 q 558 163 558 124 l 558 210 q 538 256 558 236 q 483 283 517 276 l 243 325 q 127 380 171 338 q 83 479 83 422 l 83 525 q 144 655 83 606 q 306 704 206 704 l 425 704 q 582 649 522 704 q 642 504 642 594 l 544 504 q 510 587 543 556 q 425 618 478 618 l 306 618 q 217 592 250 618 q 183 525 183 567 l 183 485 q 206 438 183 458 q 265 411 229 417 l 504 369 q 616 315 574 357 q 658 215 658 274 l 658 160 q 594 36 658 83 q 424 -11 529 -11 l 303 -11 m 324 1031 l 400 1031 l 574 806 l 479 806 l 363 961 l 246 806 l 151 806 l 324 1031 z "},"ș":{"ha":722,"x_min":69,"x_max":658,"o":"m 303 -11 q 133 49 197 -11 q 69 206 69 108 l 167 206 q 204 111 167 147 q 303 75 242 75 l 424 75 q 521 99 483 75 q 558 163 558 124 l 558 210 q 538 256 558 236 q 483 283 517 276 l 243 325 q 127 380 171 338 q 83 479 83 422 l 83 525 q 144 655 83 606 q 306 704 206 704 l 425 704 q 582 649 522 704 q 642 504 642 594 l 544 504 q 510 587 543 556 q 425 618 478 618 l 306 618 q 217 592 250 618 q 183 525 183 567 l 183 485 q 206 438 183 458 q 265 411 229 417 l 504 369 q 616 315 574 357 q 658 215 658 274 l 658 160 q 594 36 658 83 q 424 -11 529 -11 l 303 -11 m 224 -311 l 244 -297 q 306 -233 286 -269 q 326 -147 326 -196 l 326 -104 l 426 -104 l 426 -147 q 397 -279 426 -225 q 307 -372 368 -333 l 281 -389 l 224 -311 z "},"ṡ":{"ha":722,"x_min":69,"x_max":658,"o":"m 303 -11 q 133 49 197 -11 q 69 206 69 108 l 167 206 q 204 111 167 147 q 303 75 242 75 l 424 75 q 521 99 483 75 q 558 163 558 124 l 558 210 q 538 256 558 236 q 483 283 517 276 l 243 325 q 127 380 171 338 q 83 479 83 422 l 83 525 q 144 655 83 606 q 306 704 206 704 l 425 704 q 582 649 522 704 q 642 504 642 594 l 544 504 q 510 587 543 556 q 425 618 478 618 l 306 618 q 217 592 250 618 q 183 525 183 567 l 183 485 q 206 438 183 458 q 265 411 229 417 l 504 369 q 616 315 574 357 q 658 215 658 274 l 658 160 q 594 36 658 83 q 424 -11 529 -11 l 303 -11 m 363 806 q 308 826 329 806 q 288 881 288 847 q 308 935 288 914 q 363 956 329 956 q 417 935 396 956 q 438 881 438 914 q 417 826 438 847 q 363 806 396 806 z "},"ṣ":{"ha":722,"x_min":69,"x_max":658,"o":"m 303 -11 q 133 49 197 -11 q 69 206 69 108 l 167 206 q 204 111 167 147 q 303 75 242 75 l 424 75 q 521 99 483 75 q 558 163 558 124 l 558 210 q 538 256 558 236 q 483 283 517 276 l 243 325 q 127 380 171 338 q 83 479 83 422 l 83 525 q 144 655 83 606 q 306 704 206 704 l 425 704 q 582 649 522 704 q 642 504 642 594 l 544 504 q 510 587 543 556 q 425 618 478 618 l 306 618 q 217 592 250 618 q 183 525 183 567 l 183 485 q 206 438 183 458 q 265 411 229 417 l 504 369 q 616 315 574 357 q 658 215 658 274 l 658 160 q 594 36 658 83 q 424 -11 529 -11 l 303 -11 m 376 -249 q 322 -228 343 -249 q 301 -174 301 -207 q 322 -119 301 -140 q 376 -99 343 -99 q 431 -119 410 -99 q 451 -174 451 -140 q 431 -228 451 -207 q 376 -249 410 -249 z "},"ß":{"ha":935,"x_min":17,"x_max":885,"o":"m 590 -11 q 431 46 492 -11 q 371 196 371 103 l 468 196 q 501 110 468 143 q 590 78 535 78 l 661 78 q 751 106 717 78 q 785 181 785 135 l 785 222 q 757 290 785 261 q 672 358 729 319 q 600 414 626 392 q 555 468 574 436 q 536 539 536 500 l 536 567 q 581 678 536 636 q 706 726 625 721 q 660 846 706 803 q 533 889 615 889 l 422 889 q 288 838 339 889 q 236 706 236 788 l 236 0 l 136 0 l 136 564 l 17 564 l 17 653 l 136 653 l 136 706 q 215 903 136 828 q 422 978 293 978 l 533 978 q 728 908 654 978 q 803 724 803 838 l 803 649 l 753 649 q 636 567 636 649 l 636 539 q 660 485 636 508 q 738 421 683 461 q 847 328 808 371 q 885 222 885 285 l 885 181 q 824 42 885 94 q 661 -11 763 -11 l 590 -11 z "},"t":{"ha":531,"x_min":50,"x_max":453,"o":"m 378 0 q 220 47 268 0 q 172 203 172 94 l 172 604 l 50 604 l 50 693 l 172 693 l 172 903 l 272 903 l 272 693 l 453 693 l 453 604 l 272 604 l 272 203 q 297 115 272 142 q 378 89 321 89 l 453 89 l 453 0 l 378 0 z "},"ŧ":{"ha":517,"x_min":50,"x_max":458,"o":"m 278 604 l 278 415 l 453 415 l 453 329 l 278 329 l 278 203 q 302 115 278 142 q 383 89 326 89 l 458 89 l 458 0 l 383 0 q 226 47 274 0 q 178 203 178 94 l 178 329 l 50 329 l 50 415 l 178 415 l 178 604 l 56 604 l 56 693 l 178 693 l 178 903 l 278 903 l 278 693 l 458 693 l 458 604 l 278 604 z "},"ť":{"ha":739,"x_min":50,"x_max":717,"o":"m 378 0 q 220 47 268 0 q 172 203 172 94 l 172 604 l 50 604 l 50 693 l 172 693 l 172 903 l 272 903 l 272 693 l 453 693 l 453 604 l 272 604 l 272 203 q 297 115 272 142 q 378 89 321 89 l 453 89 l 453 0 l 378 0 m 514 765 l 535 779 q 597 844 576 807 q 617 929 617 881 l 617 972 l 717 972 l 717 929 q 688 797 717 851 q 597 704 658 743 l 571 688 l 514 765 z "},"ţ":{"ha":531,"x_min":50,"x_max":458,"o":"m 339 -75 q 426 -104 393 -75 q 458 -181 458 -133 l 458 -196 q 418 -278 458 -247 q 313 -310 378 -310 l 236 -310 l 236 -243 l 310 -243 q 360 -230 340 -243 q 379 -196 379 -217 l 379 -181 q 362 -147 379 -160 q 317 -133 344 -133 l 251 -133 l 251 -72 l 286 11 q 199 74 226 28 q 172 203 172 119 l 172 604 l 50 604 l 50 693 l 172 693 l 172 903 l 272 903 l 272 693 l 453 693 l 453 604 l 272 604 l 272 203 q 297 115 272 142 q 378 89 321 89 l 453 89 l 453 0 l 378 0 l 364 0 l 329 -75 l 339 -75 z "},"ț":{"ha":531,"x_min":50,"x_max":453,"o":"m 378 0 q 220 47 268 0 q 172 203 172 94 l 172 604 l 50 604 l 50 693 l 172 693 l 172 903 l 272 903 l 272 693 l 453 693 l 453 604 l 272 604 l 272 203 q 297 115 272 142 q 378 89 321 89 l 453 89 l 453 0 l 378 0 m 175 -311 l 196 -297 q 258 -233 238 -269 q 278 -147 278 -196 l 278 -104 l 378 -104 l 378 -147 q 349 -279 378 -225 q 258 -372 319 -333 l 232 -389 l 175 -311 z "},"ẗ":{"ha":531,"x_min":31,"x_max":453,"o":"m 378 0 q 220 47 268 0 q 172 203 172 94 l 172 604 l 50 604 l 50 693 l 172 693 l 172 903 l 272 903 l 272 693 l 453 693 l 453 604 l 272 604 l 272 203 q 297 115 272 142 q 378 89 321 89 l 453 89 l 453 0 l 378 0 m 99 1015 q 49 1034 68 1015 q 31 1083 31 1053 q 49 1133 31 1114 q 99 1151 68 1151 q 148 1133 129 1151 q 167 1083 167 1114 q 148 1034 167 1053 q 99 1015 129 1015 m 375 1015 q 326 1034 344 1015 q 307 1083 307 1053 q 326 1133 307 1114 q 375 1151 344 1151 q 424 1133 406 1151 q 443 1083 443 1114 q 424 1034 443 1053 q 375 1015 406 1015 z "},"ṭ":{"ha":531,"x_min":50,"x_max":453,"o":"m 378 0 q 220 47 268 0 q 172 203 172 94 l 172 604 l 50 604 l 50 693 l 172 693 l 172 903 l 272 903 l 272 693 l 453 693 l 453 604 l 272 604 l 272 203 q 297 115 272 142 q 378 89 321 89 l 453 89 l 453 0 l 378 0 m 328 -249 q 274 -228 294 -249 q 253 -174 253 -207 q 274 -119 253 -140 q 328 -99 294 -99 q 382 -119 361 -99 q 403 -174 403 -140 q 382 -228 403 -207 q 328 -249 361 -249 z "},"ṯ":{"ha":531,"x_min":50,"x_max":506,"o":"m 378 0 q 220 47 268 0 q 172 203 172 94 l 172 604 l 50 604 l 50 693 l 172 693 l 172 903 l 272 903 l 272 693 l 453 693 l 453 604 l 272 604 l 272 203 q 297 115 272 142 q 378 89 321 89 l 453 89 l 453 0 l 378 0 m 151 -103 l 506 -103 l 506 -175 l 151 -175 l 151 -103 z "},"u":{"ha":792,"x_min":97,"x_max":686,"o":"m 313 -11 q 157 54 217 -11 q 97 225 97 119 l 97 693 l 197 693 l 197 222 q 229 117 197 157 q 313 78 261 78 l 399 78 q 517 129 463 78 q 586 258 571 181 l 586 693 l 686 693 l 686 0 l 589 0 l 589 106 q 504 22 557 56 q 401 -11 451 -11 l 313 -11 z "},"ú":{"ha":792,"x_min":97,"x_max":686,"o":"m 313 -11 q 157 54 217 -11 q 97 225 97 119 l 97 693 l 197 693 l 197 222 q 229 117 197 157 q 313 78 261 78 l 399 78 q 517 129 463 78 q 586 258 571 181 l 586 693 l 686 693 l 686 0 l 589 0 l 589 106 q 504 22 557 56 q 401 -11 451 -11 l 313 -11 m 468 1017 l 582 1017 l 444 806 l 353 806 l 468 1017 z "},"ŭ":{"ha":792,"x_min":97,"x_max":686,"o":"m 313 -11 q 157 54 217 -11 q 97 225 97 119 l 97 693 l 197 693 l 197 222 q 229 117 197 157 q 313 78 261 78 l 399 78 q 517 129 463 78 q 586 258 571 181 l 586 693 l 686 693 l 686 0 l 589 0 l 589 106 q 504 22 557 56 q 401 -11 451 -11 l 313 -11 m 388 794 q 248 844 301 794 q 194 976 194 894 l 194 988 l 275 988 l 275 976 q 306 894 275 925 q 388 864 336 864 l 404 864 q 487 894 456 864 q 518 976 518 925 l 518 988 l 597 988 l 597 976 q 544 844 597 894 q 404 794 490 794 l 388 794 z "},"ǔ":{"ha":792,"x_min":97,"x_max":686,"o":"m 313 -11 q 157 54 217 -11 q 97 225 97 119 l 97 693 l 197 693 l 197 222 q 229 117 197 157 q 313 78 261 78 l 399 78 q 517 129 463 78 q 586 258 571 181 l 586 693 l 686 693 l 686 0 l 589 0 l 589 106 q 504 22 557 56 q 401 -11 451 -11 l 313 -11 m 185 1031 l 279 1031 l 396 875 l 513 1031 l 607 1031 l 433 806 l 357 806 l 185 1031 z "},"û":{"ha":792,"x_min":97,"x_max":686,"o":"m 313 -11 q 157 54 217 -11 q 97 225 97 119 l 97 693 l 197 693 l 197 222 q 229 117 197 157 q 313 78 261 78 l 399 78 q 517 129 463 78 q 586 258 571 181 l 586 693 l 686 693 l 686 0 l 589 0 l 589 106 q 504 22 557 56 q 401 -11 451 -11 l 313 -11 m 357 1031 l 433 1031 l 607 806 l 513 806 l 396 961 l 279 806 l 185 806 l 357 1031 z "},"ü":{"ha":792,"x_min":97,"x_max":686,"o":"m 313 -11 q 157 54 217 -11 q 97 225 97 119 l 97 693 l 197 693 l 197 222 q 229 117 197 157 q 313 78 261 78 l 399 78 q 517 129 463 78 q 586 258 571 181 l 586 693 l 686 693 l 686 0 l 589 0 l 589 106 q 504 22 557 56 q 401 -11 451 -11 l 313 -11 m 257 806 q 208 824 226 806 q 189 874 189 843 q 208 923 189 904 q 257 942 226 942 q 306 923 288 942 q 325 874 325 904 q 306 824 325 843 q 257 806 288 806 m 533 806 q 484 824 503 806 q 465 874 465 843 q 484 923 465 904 q 533 942 503 942 q 583 923 564 942 q 601 874 601 904 q 583 824 601 843 q 533 806 564 806 z "},"ǘ":{"ha":792,"x_min":97,"x_max":686,"o":"m 313 -11 q 157 54 217 -11 q 97 225 97 119 l 97 693 l 197 693 l 197 222 q 229 117 197 157 q 313 78 261 78 l 399 78 q 517 129 463 78 q 586 258 571 181 l 586 693 l 686 693 l 686 0 l 589 0 l 589 106 q 504 22 557 56 q 401 -11 451 -11 l 313 -11 m 442 1167 l 539 1167 l 433 1006 l 353 1006 l 442 1167 m 257 806 q 208 824 226 806 q 189 874 189 843 q 208 923 189 904 q 257 942 226 942 q 306 923 288 942 q 325 874 325 904 q 306 824 325 843 q 257 806 288 806 m 533 806 q 484 824 503 806 q 465 874 465 843 q 484 923 465 904 q 533 942 503 942 q 583 923 564 942 q 601 874 601 904 q 583 824 601 843 q 533 806 564 806 z "},"ǚ":{"ha":792,"x_min":97,"x_max":686,"o":"m 313 -11 q 157 54 217 -11 q 97 225 97 119 l 97 693 l 197 693 l 197 222 q 229 117 197 157 q 313 78 261 78 l 399 78 q 517 129 463 78 q 586 258 571 181 l 586 693 l 686 693 l 686 0 l 589 0 l 589 106 q 504 22 557 56 q 401 -11 451 -11 l 313 -11 m 217 1193 l 301 1193 l 396 1067 l 490 1193 l 575 1193 l 431 1006 l 361 1006 l 217 1193 m 257 806 q 208 824 226 806 q 189 874 189 843 q 208 923 189 904 q 257 942 226 942 q 306 923 288 942 q 325 874 325 904 q 306 824 325 843 q 257 806 288 806 m 533 806 q 484 824 503 806 q 465 874 465 843 q 484 923 465 904 q 533 942 503 942 q 583 923 564 942 q 601 874 601 904 q 583 824 601 843 q 533 806 564 806 z "},"ǜ":{"ha":792,"x_min":97,"x_max":686,"o":"m 313 -11 q 157 54 217 -11 q 97 225 97 119 l 97 693 l 197 693 l 197 222 q 229 117 197 157 q 313 78 261 78 l 399 78 q 517 129 463 78 q 586 258 571 181 l 586 693 l 686 693 l 686 0 l 589 0 l 589 106 q 504 22 557 56 q 401 -11 451 -11 l 313 -11 m 244 1167 l 342 1167 l 431 1006 l 350 1006 l 244 1167 m 257 806 q 208 824 226 806 q 189 874 189 843 q 208 923 189 904 q 257 942 226 942 q 306 923 288 942 q 325 874 325 904 q 306 824 325 843 q 257 806 288 806 m 533 806 q 484 824 503 806 q 465 874 465 843 q 484 923 465 904 q 533 942 503 942 q 583 923 564 942 q 601 874 601 904 q 583 824 601 843 q 533 806 564 806 z "},"ǖ":{"ha":792,"x_min":97,"x_max":686,"o":"m 313 -11 q 157 54 217 -11 q 97 225 97 119 l 97 693 l 197 693 l 197 222 q 229 117 197 157 q 313 78 261 78 l 399 78 q 517 129 463 78 q 586 258 571 181 l 586 693 l 686 693 l 686 0 l 589 0 l 589 106 q 504 22 557 56 q 401 -11 451 -11 l 313 -11 m 219 1092 l 574 1092 l 574 1019 l 219 1019 l 219 1092 m 257 806 q 208 824 226 806 q 189 874 189 843 q 208 923 189 904 q 257 942 226 942 q 306 923 288 942 q 325 874 325 904 q 306 824 325 843 q 257 806 288 806 m 533 806 q 484 824 503 806 q 465 874 465 843 q 484 923 465 904 q 533 942 503 942 q 583 923 564 942 q 601 874 601 904 q 583 824 601 843 q 533 806 564 806 z "}}}
